<?xml version="1.0" encoding="UTF-8" standalone="no"?>
<!-- Created with Inkscape (http://www.inkscape.org/) -->

<svg
   width="210mm"
   height="297mm"
   viewBox="0 0 210 297"
   version="1.1"
   id="svg5"
   sodipodi:docname="Deg-logo final.svg"
   inkscape:version="1.1 (c68e22c387, 2021-05-23)"
   xmlns:inkscape="http://www.inkscape.org/namespaces/inkscape"
   xmlns:sodipodi="http://sodipodi.sourceforge.net/DTD/sodipodi-0.dtd"
   xmlns="http://www.w3.org/2000/svg"
   xmlns:svg="http://www.w3.org/2000/svg">
  <sodipodi:namedview
     id="namedview7"
     pagecolor="#ffffff"
     bordercolor="#666666"
     borderopacity="1.0"
     inkscape:pageshadow="2"
     inkscape:pageopacity="0.0"
     inkscape:pagecheckerboard="0"
     inkscape:document-units="mm"
     showgrid="false"
     inkscape:zoom="1"
     inkscape:cx="610.91474"
     inkscape:cy="472.25806"
     inkscape:window-width="1920"
     inkscape:window-height="1017"
     inkscape:window-x="-8"
     inkscape:window-y="-8"
     inkscape:window-maximized="1"
     inkscape:current-layer="layer1" />
  <defs
     id="defs2">
    <clipPath
       clipPathUnits="userSpaceOnUse"
       id="clipPath10450">
      <path
         id="path10452"
         style="fill:#ff0000;fill-opacity:1;fill-rule:nonzero;stroke:none"
         d="M 471.93555,388.5332 V 553.03711 H 627.58398 V 388.5332 Z m 100.93359,26.19532 c 0.49501,-0.0122 1.09396,0.26502 1.65234,0.94921 0.0607,0.0744 0.0912,0.11735 0.12891,0.15821 0.0612,0.024 0.11788,0.0562 0.17773,0.082 0.24273,0.10998 0.1899,0.0817 0.50586,0.25781 0.0714,0.0397 0.13756,0.0861 0.20899,0.125 0.14283,0.0779 0.29413,0.13868 0.44531,0.19727 0.19975,0.0718 0.15706,0.0518 0.44922,0.19922 0.068,0.0344 0.13157,0.0793 0.19922,0.11328 0.0729,0.0374 0.15601,0.0636 0.23047,0.0976 0.0862,0.0404 0.17044,0.085 0.25586,0.12696 0.17174,0.0979 0.3531,0.17227 0.52734,0.26562 0.0427,0.0231 0.0824,0.0553 0.12695,0.0742 0.017,0.009 -0.0279,-0.0238 -0.043,-0.0352 0.18254,0.0397 0.35002,0.13176 0.52539,0.19336 0.0983,0.0344 0.20068,0.0591 0.30273,0.0742 0.21233,0.0287 0.60934,0.13832 0.77148,0.2793 0.17269,0.14978 0.31027,0.33573 0.46485,0.5039 1.82173,1.98116 -4.23017,-0.66204 -2.38867,1.30079 0.4255,0.45327 0.28434,0.41856 0.67382,0.58789 0.002,0.001 0.004,9.3e-4 0.006,0.002 0.0352,0.005 0.0705,0.0122 0.10547,0.0195 v 0.002 c -0.008,1.6e-4 -0.0383,-0.004 -0.0488,-0.006 -0.0203,-0.003 -0.0385,-0.007 -0.0566,-0.0156 -0.0192,-0.003 -0.0374,-0.005 -0.0566,-0.008 -0.0854,-0.0197 -0.17119,-0.0338 -0.25586,-0.0527 -0.16255,-0.0385 -0.3749,-0.108 -0.52343,-0.16015 -0.0979,-0.034 -0.19118,-0.0812 -0.28907,-0.11524 -0.065,-0.023 -0.12954,-0.0398 -0.19531,-0.0625 -0.1183,-0.051 -0.23792,-0.10138 -0.35547,-0.15429 -0.0333,-0.0151 -0.0597,-0.0415 -0.0937,-0.0566 -0.13927,-0.0688 -0.28606,-0.12231 -0.41797,-0.20508 -0.24982,-0.13191 0.0562,0.0252 -0.30664,-0.14453 -0.10431,-0.0488 -0.20812,-0.0983 -0.31054,-0.15039 -0.0446,-0.0227 -0.0812,-0.0612 -0.12696,-0.0801 -0.0601,-0.0268 -0.12198,-0.0457 -0.18359,-0.0684 -0.0975,-0.0401 -0.19621,-0.0791 -0.29297,-0.1211 -0.16101,-0.0699 -0.39109,-0.18814 -0.5332,-0.26562 -0.18558,-0.10129 -0.0749,-0.061 -0.28321,-0.16797 -0.0548,-0.0284 -0.11203,-0.0497 -0.16796,-0.0762 -0.1135,-0.0522 -0.31341,-0.13894 -0.42188,-0.20508 -0.0964,-0.0586 -0.19092,-0.12142 -0.28125,-0.18945 -0.21895,-0.16506 -0.40691,-0.38683 -0.57812,-0.59961 v -0.002 c -1.1331,-1.40927 -0.56047,-2.64307 0.45312,-2.66796 z m 1.79102,1.11523 c 0.0206,0.0214 0.0431,0.0427 0.0762,0.0684 0.002,0.004 0.003,-0.002 0.002,-0.004 -0.0125,-0.014 -0.0239,-0.0277 -0.0391,-0.0391 -0.008,-0.006 -0.0252,-0.0174 -0.0391,-0.0254 z" />
    </clipPath>
  </defs>
  <g
     inkscape:label="Lager 1"
     inkscape:groupmode="layer"
     id="layer1">
    <path
       style="fill:#000000;stroke-width:0.264583"
       id="path1260"
       d="m 48.473637,145.72973 c -0.258664,-2.55678 -0.282085,-5.13113 -0.322548,-7.69857 0.108995,-3.10904 0.951402,-6.18637 2.376831,-8.9524 0.281152,-0.54557 0.611212,-1.06452 0.916816,-1.59678 1.292662,-1.99647 2.92902,-3.75477 4.885288,-5.11635 0.446341,-0.31066 1.834041,-1.16848 1.387647,-0.8579 -0.602422,0.41914 -1.237494,0.78928 -1.856243,1.18392 2.693178,-1.19044 5.600017,-1.5311 8.514525,-1.47308 1.808757,0.13291 3.600188,0.48784 5.254799,1.25314 0.855726,0.3958 1.165524,0.6551 1.931384,1.18144 1.966236,1.46819 3.04545,3.39981 4.031465,5.59036 1.038267,2.74918 1.38839,5.69334 1.679741,8.59982 0.245922,2.90565 0.260295,5.82403 0.270891,8.73802 -0.0013,2.61124 -0.0096,5.22248 -0.01921,7.8337 0.02178,2.17579 -0.06396,4.35388 0.03352,6.52803 0.141348,1.76157 0.485407,3.49946 1.045237,5.17451 0.42913,1.04876 0.79049,2.16121 1.434081,3.10708 0.388345,0.57075 0.825751,1.00331 1.292926,1.50543 2.046764,1.95722 4.092845,2.5151 6.787258,3.0876 1.837137,0.29562 3.69202,0.62321 5.557004,0.68525 1.108919,0.0369 1.5308,-0.0336 2.646479,-0.12907 2.895182,-0.34515 5.615852,-1.32748 8.243882,-2.54487 2.33371,-1.32214 4.75823,-2.55076 6.82546,-4.28398 1.00027,-0.83867 1.89297,-1.77989 2.77548,-2.73784 1.99325,-2.22735 3.21462,-4.98018 4.23392,-7.75597 1.15839,-3.26033 1.61816,-6.68193 1.92044,-10.10963 0.19617,-2.93868 0.37298,-5.8836 0.14078,-8.82358 -0.2105,-2.52362 -1.15798,-4.85828 -2.19006,-7.13911 -1.36114,-2.70715 -2.78668,-5.3824 -4.01378,-8.15448 -0.66125,-1.44368 -1.00084,-2.97812 -1.12274,-4.55257 -0.02,-1.59125 0.72992,-3.00322 1.54479,-4.31959 0.80009,-1.02214 1.76044,-1.88913 2.83608,-2.61276 0.28226,-0.18989 1.15891,-0.71311 0.86735,-0.53784 -0.77719,0.4672 -1.54952,0.94244 -2.32428,1.41366 2.5152,-1.1532 5.24204,-1.68647 7.96068,-2.09621 3.20675,-0.40904 6.44091,-0.49496 9.66683,-0.34481 3.73675,0.27769 7.35906,1.26444 10.9939,2.10735 0.63559,0.12645 1.27117,0.2529 1.90675,0.37935 0,0 3.11583,-2.17274 3.11583,-2.17274 v 0 c -0.63347,-0.12277 -1.26695,-0.24555 -1.90043,-0.36832 -3.64543,-0.84074 -7.26907,-1.85316 -11.01084,-2.17785 -3.23519,-0.17632 -6.47768,-0.11006 -9.69807,0.27541 -2.72579,0.37849 -5.45608,0.89142 -8.00275,1.97169 -2.92982,1.63792 -5.98952,2.96208 -7.98615,5.74757 -0.81487,1.40021 -1.52894,2.89105 -1.4632,4.55364 0.15597,1.60785 0.5467,3.17108 1.24638,4.63505 1.26569,2.7532 2.71182,5.41743 4.01903,8.1503 0.99679,2.24884 1.92895,4.54391 2.11966,7.02618 0.2223,2.91058 0.0789,5.83097 -0.11848,8.74013 -0.31234,3.40323 -0.8089,6.79822 -1.98367,10.02633 -1.0461,2.7484 -2.29741,5.45426 -4.32542,7.63091 -1.21071,1.28027 -2.45457,2.49781 -3.90142,3.51467 -0.38822,0.27284 -1.62617,0.96905 -1.19122,0.77938 0.72667,-0.31688 1.38255,-0.77617 2.07382,-1.16426 -2.59771,1.24433 -5.28261,2.26298 -8.157273,2.64742 -0.991917,0.0994 -1.608968,0.19158 -2.601325,0.1748 -1.86015,-0.0314 -3.714551,-0.35078 -5.548064,-0.62764 -2.611067,-0.54355 -4.615039,-1.02831 -6.610921,-2.92057 -0.442799,-0.46832 -0.877424,-0.88879 -1.239089,-1.42742 -0.623104,-0.92799 -0.975159,-2.02014 -1.389798,-3.04666 -0.542446,-1.64145 -0.878313,-3.34462 -1.011245,-5.06939 -0.08665,-2.16669 -0.024,-4.3362 -0.04272,-6.50415 -0.0019,-2.60711 0.0046,-5.21424 -0.01085,-7.82132 -0.0204,-2.92597 -0.01167,-5.85831 -0.281453,-8.77464 -0.310229,-2.94463 -0.684422,-5.92309 -1.733791,-8.70996 -1.02476,-2.30677 -2.070433,-4.21725 -4.117422,-5.78423 -0.770186,-0.53894 -1.131213,-0.83793 -1.992572,-1.2476 -1.678958,-0.79854 -3.501747,-1.17931 -5.341834,-1.35677 -2.947747,-0.10682 -5.892167,0.20504 -8.644982,1.33639 -1.088576,0.60062 -4.447702,2.30104 -6.071421,3.4887 -1.937538,1.4172 -3.552425,3.21279 -4.817655,5.24826 -0.300354,0.54244 -0.625498,1.07187 -0.901064,1.6273 -1.403544,2.82902 -2.218492,5.9588 -2.324876,9.11312 0.03659,2.59576 0.05594,5.19453 0.225671,7.78576 0,0 3.506235,-1.83076 3.506235,-1.83076 z" />
    <path
       style="fill:#000000;stroke-width:0.264583"
       id="path1264"
       d="m 100.15496,102.85622 c 0.36804,-0.14213 -2.70997,1.78057 -2.043276,1.31928 0.536406,-0.37115 2.244846,-0.75866 1.656903,-1.04114 -0.661797,-0.31797 -1.338847,0.60575 -2.026277,0.86367 -2.150485,0.80682 -2.949916,0.93804 -5.23975,1.52026 -3.868806,0.69812 -7.997748,1.76686 -11.963617,1.34031 -0.583004,-0.0627 -1.154607,-0.2054 -1.731909,-0.30809 -2.406859,-0.69036 -4.869164,-1.82995 -6.315231,-3.98247 -0.261054,-0.38859 -0.442391,-0.82516 -0.663586,-1.23774 -0.14537,-0.49188 -0.359129,-0.96853 -0.436112,-1.475631 -0.439759,-2.896814 0.77317,-5.768165 2.571128,-7.979319 0.657365,-0.80844 1.440659,-1.50576 2.160987,-2.258637 3.270938,-2.674215 2.081643,-1.840738 5.685686,-4.212394 0.01532,-0.01008 0.03779,0.01529 0.05444,0.0077 1.076203,-0.493456 2.126308,-1.044689 3.216135,-1.507279 2.787866,-1.183341 3.503668,-1.306996 6.372404,-2.153272 3.155463,-0.666474 6.670424,-1.673561 9.913555,-0.910672 1.38664,0.326181 1.58668,0.605587 2.70117,1.368711 0.29172,0.335989 0.62256,0.641652 0.87514,1.007967 1.37477,1.9938 1.32154,4.091006 1.16113,6.379493 -0.25635,1.64976 -0.61588,3.310832 -1.31312,4.838147 -0.39271,0.860227 -0.64457,1.199325 -1.14724,1.99457 -1.29514,1.765932 -2.64477,3.502144 -4.126931,5.115746 -0.260903,0.21826 -0.507267,0.45518 -0.782706,0.65478 -0.283925,0.20575 -1.194573,0.73467 -0.891448,0.55843 0.794279,-0.46181 1.618946,-0.87937 2.365215,-1.41531 0.31109,-0.22341 -0.698012,0.31552 -1.048582,0.46976 -0.778436,0.34247 -1.34479,0.57825 -2.128115,0.9091 0,0 -3.045627,2.40362 -3.045627,2.40362 v 0 c 3.204626,-1.34161 6.551274,-2.68373 9.117984,-5.08725 1.46152,-1.642458 2.83479,-3.371444 4.08921,-5.177115 0.50659,-0.845812 0.72606,-1.148027 1.11683,-2.06026 0.67037,-1.564915 1.00903,-3.255991 1.2433,-4.933291 0.14416,-2.391661 0.1229,-4.5715 -1.30733,-6.641541 -0.27132,-0.392684 -0.62324,-0.723067 -0.93485,-1.084599 -1.16636,-0.820256 -1.38804,-1.12822 -2.84241,-1.491186 -3.26918,-0.81588 -6.927573,0.203515 -10.119183,0.868627 -1.06353,0.306504 -2.139783,0.571883 -3.190592,0.919506 -4.627089,1.530715 -8.535781,3.731403 -12.720955,6.288424 -1.036934,0.633537 -2.038344,1.32706 -3.008146,2.059241 -0.932785,0.704239 -1.795483,1.496801 -2.693228,2.245201 -0.726717,0.779352 -1.519872,1.501672 -2.180156,2.338054 -1.838796,2.329212 -3.007862,5.323806 -2.530043,8.324509 0.08482,0.53264 0.308014,1.0338 0.46202,1.5507 0.23313,0.4354 0.424617,0.8958 0.699387,1.30619 1.490659,2.22646 4.013041,3.43457 6.493147,4.18511 0.59168,0.11319 1.176898,0.26799 1.775039,0.33957 4.012105,0.48015 8.186984,-0.64252 12.10881,-1.31182 2.37209,-0.56862 5.039463,-1.12057 7.233295,-2.24482 1.666341,-0.85393 3.280615,-1.80616 4.907075,-2.73381 1.00214,-0.57157 1.232,-0.76891 2.10255,-1.39928 0,0 -3.65212,1.47028 -3.65212,1.47028 z" />
    <path
       id="path1274"
       style="fill:#000000;stroke-width:0.999999"
       transform="scale(0.26458333)"
       d="m 140.07031,523.60547 c -12.11817,5.92498 -14.13167,4.81657 -14.50976,14.14062 -0.0866,3.20376 -0.038,6.40893 -0.0254,9.61329 -0.0216,2.92027 -0.11961,5.80079 0.45312,8.67187 0.64817,1.8532 1.68798,3.51199 2.83789,5.08984 -5.90314,0.94605 -9.14106,4.12344 -15.45508,8.3086 -0.33312,0.22072 -0.18656,0.80161 -0.10742,1.19336 0.055,0.27229 0.14613,0.51218 0.25977,0.73437 0.30946,0.60511 0.79828,1.06704 1.26367,1.60156 2.36723,2.15908 5.30927,3.32143 8.25,4.45508 -6.81716,2.40169 -14.59453,4.8022 -18.0332,11.21485 -1.21422,2.69933 -0.10007,5 1.72851,7.0332 2.41391,2.04 5.49349,2.74684 8.53711,3.21875 4.73488,0.44387 9.5007,0.61231 14.24024,0.18945 3.67639,-0.32315 6.96692,-1.77866 10.23632,-3.36523 3.17811,-1.62771 6.27525,-3.39398 9.35352,-5.19727 6.57949,-3.81329 13.42751,-7.44368 19.56055,-11.97656 2.16249,-1.06227 3.1717,-3.16916 4.19531,-5.22266 0.90556,-2.02794 1.65727,-4.10543 2.49805,-6.17187 0.70676,1.33216 1.34063,2.70656 2.00195,4.06055 1.37538,2.81858 1.76683,5.94451 2.02734,9.03125 0.27122,3.20239 0.25153,6.34018 -0.42187,9.48437 -2.15107,5.16197 -5.56532,9.67526 -8.79492,14.20117 -3.30907,4.83334 -7.79669,8.66019 -12.29883,12.34375 -4.91492,4.33055 -9.99759,8.47689 -15.2461,12.39649 -4.92762,3.48106 -9.3075,7.53975 -13.26562,12.07617 -4.58792,4.85956 -7.88263,10.672 -10.58008,16.74219 -1.72333,4.72762 -2.83842,9.64931 -3.48633,14.63281 -0.75066,5.6716 0.7634,11.17859 2.57617,16.49805 1.72382,4.34698 4.28202,8.26404 6.62696,12.28515 2.99547,4.21644 5.31043,9.05281 9.0625,12.6875 0.8973,0.86926 1.90243,1.62161 2.85351,2.43164 7.62206,5.4844 16.63642,8.25208 25.75586,9.97657 6.63583,0.91376 13.45356,1.61149 20.12891,0.5625 4.88442,-0.76759 7.91674,-1.90118 12.6582,-3.36915 14.59026,-5.96281 29.08088,-13.39024 40.09375,-24.84179 5.4188,-6.35592 8.6629,-14.03291 11.25781,-21.87891 2.28462,-7.68858 4.02409,-15.56206 5.03321,-23.52148 0.77703,-8.57273 0.73585,-17.19934 0.78125,-25.80078 0.10031,-8.03014 -0.43859,-16.09764 -1.96875,-23.98438 -1.53555,-7.48233 -3.58917,-14.84791 -6.14063,-22.04492 -2.23575,-5.9249 -4.62191,-10.47488 -9.40429,-14.6875 -5.51739,-3.59497 -11.62242,-6.11913 -17.88868,-8.06445 -6.94263,-2.00731 -13.98531,-3.56461 -21.14062,-4.56055 -3.82831,-0.62582 -8.34272,-0.23371 -11.3418,-3.03906 -1.00861,-1.44004 -0.57742,-0.65844 -1.27344,-2.35352 l -13.04492,7.31641 c 0.88196,2.0527 0.35299,1.1009 1.5625,2.86718 0.37434,0.3854 0.71376,0.76121 1.07617,1.10743 -1.47094,1.12611 -2.89508,2.25143 -4.22656,3.12304 -1.5754,1.25764 -3.00562,2.56398 -3.88086,4.4336 -1.00414,1.93168 -1.85318,3.94807 -2.63476,5.97851 -0.86808,2.0829 -1.57526,4.22826 -2.65625,6.21875 -1.16077,1.92647 -2.35814,3.51607 -4.42969,4.56836 -1.24058,0.80515 -2.89608,1.90133 -4.36523,2.89649 -2.84555,1.4239 -5.67667,2.83107 -8.88672,3.27929 -4.66427,0.53972 -9.33082,0.51084 -14.01172,0.084 -2.77753,-0.32807 -5.5471,-0.81181 -7.91016,-2.41992 -1.09466,-1.08159 -1.70038,-2.18907 -1.54492,-3.42579 2.43957,-0.6506 4.89605,-1.23042 7.4082,-1.56054 5.78717,-0.57547 22.75994,-2.83465 19.61719,-10.36328 -2.46803,-1.91936 -6.01446,-1.65437 -8.75391,-3.0625 -0.11801,-0.0466 -0.23717,-0.0906 -0.35546,-0.13672 5.42224,-0.74877 10.68022,-2.78775 11.41015,-8.4043 -0.60654,-2.60292 -3.21492,-4.15149 -4.72461,-6.23828 -1.3807,-1.72494 -2.66244,-3.58874 -3.39062,-5.69141 -0.50901,-2.77852 -0.32361,-5.58799 -0.36719,-8.40234 -0.002,-0.32412 -1.6e-4,-0.6485 -0.002,-0.97266 1.3683,1.22725 2.75727,2.43074 4.1582,3.61133 5.2354,4.97628 10.5483,9.8796 15.41797,15.22461 l 12.79101,-7.7207 c -5.11853,-5.1772 -10.41159,-10.1733 -15.63281,-15.24414 -3.2675,-2.82048 -6.44988,-5.76242 -9.40039,-8.91602 -1.63102,-1.78288 -3.66374,-2.97819 -6.11133,-2.94531 z m 50.07422,39.71875 c 4.8481,0.86518 9.64298,1.99299 14.39258,3.3418 6.12256,1.80487 12.00103,4.29315 17.48047,7.58984 4.57962,3.87859 6.94727,8.43057 9.0918,13.98633 2.55164,7.1215 4.52763,14.42524 6.05273,21.83593 1.45589,7.80715 1.95883,15.7651 1.89258,23.70313 -0.0411,8.5626 -0.0204,17.15215 -0.94141,25.67578 -1.0636,7.86161 -2.71299,15.66297 -5.10156,23.23242 -2.67496,7.67966 -5.9762,15.17803 -11.51172,21.26953 -2.78099,2.7529 -3.43325,3.57164 -6.60156,5.97852 -0.93866,0.71309 -3.2284,2.06052 -4.13086,2.68555 -3.28902,1.76253 -6.05634,3.13669 -4.41797,1.72656 -4.23563,1.37216 -7.95004,2.74674 -12.33984,3.52344 -6.56925,1.16231 -13.2994,0.57771 -19.85547,-0.27344 -8.91561,-1.55157 -17.77992,-4.07717 -25.24414,-9.39844 -2.23239,-1.86977 -3.12503,-2.41786 -4.91602,-4.66797 -2.49968,-3.14044 -4.3415,-6.79048 -6.62305,-10.08203 -2.26916,-3.94976 -4.77992,-7.7793 -6.53906,-11.99805 -1.73477,-5.14419 -3.05369,-10.46058 -2.19141,-15.91992 0.70714,-4.84308 1.78877,-9.65262 3.59766,-14.21289 2.75923,-5.96012 6.17146,-11.57436 10.75586,-16.32617 4.04675,-4.40149 8.49427,-8.34007 13.37305,-11.81055 5.20279,-3.98611 10.26715,-8.14858 15.20508,-12.45898 4.48092,-3.81819 8.9382,-7.71294 12.16406,-12.70313 3.26819,-4.67259 6.89553,-9.32257 8.63672,-14.82031 0.57888,-3.28274 0.60194,-6.56814 0.27148,-9.88672 -0.33282,-3.2522 -0.82915,-6.53202 -2.27148,-9.5039 -0.0769,-0.16145 -0.15212,-0.32453 -0.22852,-0.48633 z m -56.75391,3.13476 c 0.43356,0.59624 0.69578,1.09445 0.54102,1.31641 -2.64013,-0.52271 -2.66518,-0.50438 -0.54102,-1.31641 z" />
    <path
       id="path1370"
       style="fill:#000000;stroke-width:0.999999"
       transform="scale(0.26458333)"
       d="m 214.93164,598.13867 c -3.10792,0.0525 -6.09104,0.94887 -9.00976,1.93555 -3.4298,1.28043 -6.6798,2.98673 -9.93555,4.64844 -5.84308,2.93291 -11.42548,6.39779 -17.04492,9.70703 -1.6458,0.96922 -3.14208,2.16239 -4.59571,3.39062 -2.11121,1.98388 -3.90567,4.34214 -5.07812,7.00391 -0.19741,0.44814 -0.35129,0.91415 -0.52735,1.37109 -0.61465,2.02243 -1.05449,4.18231 -0.57617,6.28516 0.0933,0.41015 0.24885,0.8032 0.37305,1.20508 1.35871,3.16146 4.01281,5.47725 6.44141,7.8164 3.68313,3.60216 7.86344,6.62129 12.00976,9.65625 4.54846,3.35191 9.04642,6.77626 13.24024,10.56641 1.90816,1.95587 4.01291,3.85535 5.44336,6.2168 0.21338,0.35225 0.38301,0.72895 0.57421,1.09375 1.06526,2.63376 1.13955,5.49119 1.01368,8.28906 -0.35982,2.80785 -1.37931,5.49362 -2.77149,7.94922 -0.31604,0.55744 -0.67077,1.09245 -1.00586,1.63867 -0.48979,0.7483 -1.02365,1.46982 -1.60156,2.1543 -2.78404,0.76374 -5.66406,1.17195 -8.55274,1.29101 -0.9109,0.0378 -1.82271,0.0139 -2.73437,0.0215 -3.00997,-0.0737 -6.0148,-0.39817 -8.94336,-1.11133 -1.80383,-0.43926 -2.66705,-0.75521 -4.45508,-1.33008 -3.61044,-1.39166 -7.20421,-2.94714 -10.51367,-4.9707 -0.60796,-0.37191 -1.19424,-0.77857 -1.79102,-1.16797 -2.75834,-1.79966 -5.24555,-3.99103 -7.2539,-6.60938 -0.31476,-0.41034 -0.59352,-0.84817 -0.89063,-1.27148 l -12.43359,7.36914 c 2.44923,3.15008 5.22304,6.02004 8.61133,8.17773 1.64977,1.11134 2.01444,1.41732 3.77148,2.36133 2.84421,1.52806 5.8497,2.75456 8.8125,4.02539 2.18214,0.79514 4.35492,1.56384 6.63477,2.03906 1.76845,0.36851 2.71739,0.45032 4.5332,0.57032 0.86918,0.0574 1.73935,0.0862 2.60938,0.1289 1.94006,0.0302 3.5742,0.0996 5.51172,-0.041 3.3954,-0.24605 6.76938,-0.92045 9.97656,-2.06055 4.76813,-2.64064 9.55695,-5.24472 14.30468,-7.92187 1.34371,-0.75765 2.49631,-1.57962 3.62891,-2.625 1.52458,-1.4072 2.77105,-3.07963 3.85156,-4.8418 1.82878,-3.25826 3.36486,-6.52375 3.63086,-10.3125 0.0645,-3.04872 -0.10864,-6.15935 -1.30664,-9.00586 -0.22828,-0.40879 -0.43179,-0.83179 -0.68359,-1.22656 -1.56145,-2.44793 -3.87556,-4.33294 -5.95899,-6.30664 -4.37695,-3.66981 -9.0189,-7.00652 -13.53711,-10.49805 -3.98613,-3.07937 -7.9999,-6.14319 -11.5664,-9.71484 -2.19431,-2.19697 -4.58296,-4.41883 -5.74414,-7.36524 -0.0882,-0.32957 -0.20799,-0.65201 -0.26563,-0.98828 -0.32341,-1.88666 0.20874,-3.81043 0.81055,-5.58008 0.17828,-0.40936 0.33742,-0.82819 0.53516,-1.22851 1.22908,-2.48818 3.06307,-4.62316 5.17968,-6.39844 0.48334,-0.36914 0.68885,-0.52736 0.95704,-0.73242 1.96347,-0.99414 3.93946,-1.96194 5.96484,-2.82422 2.76337,-1.01299 5.59382,-1.96173 8.55273,-2.1543 2.45315,-0.1251 4.91303,-0.0297 7.36524,0.0879 1.87203,0.12208 3.73495,0.32588 5.59961,0.52344 l 12.1582,-8.66406 c -1.94915,-0.0341 -3.8874,-0.26064 -5.83008,-0.40039 -2.49383,-0.11981 -4.99154,-0.18208 -7.48828,-0.17188 z"
       sodipodi:nodetypes="sccscscsccccsccsccccsccsscccscsscccsscccsccccscsccccccccss" />
    <path
       style="fill:#000000;stroke-width:0.264583"
       id="path1372"
       d="m 52.768468,157.64778 c -0.230328,0.81693 -0.498886,1.62247 -0.749038,2.43351 -0.388851,1.30804 -0.742323,2.62663 -1.077093,3.94946 -0.277407,1.11179 -0.552529,2.22517 -0.768035,3.35086 -0.168799,0.856 -0.32657,1.71332 -0.463896,2.57487 -0.192054,1.18697 -0.419148,2.36808 -0.632225,3.55153 -0.09486,0.66818 -0.259763,1.32338 -0.386704,1.98527 -0.131207,0.68414 -0.237612,1.37436 -0.360508,2.06013 -0.242811,1.22055 -0.492959,2.43962 -0.727814,3.66174 -0.203827,1.16515 -0.393139,2.33282 -0.579546,3.50089 -0.14275,1.01406 -0.331462,2.01877 -0.553989,3.01788 -0.06723,0.36308 -0.130334,0.72665 -0.179959,1.09257 0,0 3.522278,-1.74133 3.522278,-1.74133 v 0 c 0.03742,-0.35091 0.09333,-0.69913 0.139057,-1.049 0.127186,-0.98893 0.254932,-1.978 0.426556,-2.96046 0.199822,-1.17055 0.410001,-2.33936 0.614469,-3.50911 0.220297,-1.21308 0.445391,-2.42523 0.670814,-3.63736 0.103187,-0.58021 0.142168,-0.81653 0.257561,-1.39611 0.04499,-0.22597 0.09753,-0.45043 0.140398,-0.67681 0.124058,-0.65518 0.22029,-1.31602 0.351412,-1.97002 0.233826,-1.20158 0.500235,-2.39648 0.720685,-3.60061 0.158494,-0.85432 0.313323,-1.70937 0.458404,-2.56608 0.202245,-1.10269 0.436878,-2.19943 0.696415,-3.29004 0.33708,-1.3267 0.698368,-2.64827 1.130655,-3.94753 0.285223,-0.8338 0.553506,-1.6806 0.939591,-2.47429 0,0 -3.589488,1.64004 -3.589488,1.64004 z" />
    <path
       id="path1374"
       clip-path="url(#clipPath10450)"
       style="fill:#000000;stroke-width:0.999999"
       transform="scale(0.26458333)"
       d="m 582.97461,388.53516 c -0.29999,-0.0132 -0.60685,0.0338 -0.9082,0.0332 -2.82486,1.61805 -13.14072,6.41677 -17.33399,10.76172 -0.91309,0.94613 -1.16875,1.40217 -1.91797,2.47461 -1.57761,2.93631 -2.61151,6.08443 -3.19726,9.36914 -0.45123,2.25734 -0.91934,4.51092 -1.38281,6.76562 -4.85958,1.60184 -8.88727,6.06152 -12.86329,9.21094 -1.2415,0.89843 -2.39337,1.92681 -3.7207,2.70899 -1.24619,0.81381 -2.36305,1.81094 -3.58398,2.66406 -1.17554,0.77152 -2.3264,1.58165 -3.51172,2.33789 -0.022,0.0125 -0.0444,0.0246 -0.0664,0.0371 -0.11941,0.0461 -1.08699,0.54691 -1.4668,0.73242 -2.20354,1.06885 -4.39671,2.12647 -6.63476,3.12109 -3.77095,1.84184 -7.88621,2.89127 -11.67383,4.71289 -8.2972,3.62249 -16.52635,7.53581 -23.80859,13.02735 -3.35396,2.60043 -6.63198,5.31089 -9.33203,8.61133 -3.12288,3.75874 -6.22002,7.6304 -7.50196,12.44726 -1.62126,5.81722 -2.39062,11.78781 -2.05859,17.83789 0.3863,7.30095 0.92501,14.66363 3.10742,21.6875 0.97671,2.81953 1.21969,3.84754 2.58984,6.50391 2.27475,4.41025 5.42146,8.34284 8.94727,11.80859 2.11223,1.92269 3.53776,3.31456 5.83594,5.02344 4.17634,3.10545 8.84236,5.5069 13.72461,7.2832 1.28557,0.42051 2.55858,0.88415 3.85742,1.26172 7.96501,2.3156 16.25425,3.25943 24.49805,3.88672 1.9014,0.0624 3.80073,0.17125 5.70312,0.1875 10.39321,0.09 20.81811,-0.74029 31.11914,-2.04102 1.74588,-0.34431 3.50563,-0.62762 5.23828,-1.0332 11.75845,-2.75244 22.72784,-8.28641 32.24805,-15.74414 0.80818,-0.75991 1.64789,-1.48654 2.42383,-2.2793 4.17925,-4.27003 7.45248,-9.32041 10.10351,-14.65234 3.1522,-6.47766 5.90735,-13.26403 6.16602,-20.56445 0.0869,-6.54441 -0.44351,-13.13188 -1.95899,-19.51172 -1.72032,-6.38472 -3.74155,-12.74411 -7.53711,-18.24219 -1.46756,-2.01762 -1.80922,-2.63946 -3.50585,-4.40234 -2.39483,-2.48837 -5.17774,-4.60368 -7.83985,-6.78711 -4.02909,-2.64563 -8.06476,-4.55296 -12.78906,-5.65235 -6.34575,-1.95337 -12.7626,-3.71161 -18.89844,-6.2832 -2.09992,-0.89364 -4.55059,-1.91742 -6.79883,-3.11328 2.76629,-0.0754 5.52873,-0.22189 8.28321,-0.5 3.5492,-0.37228 7.13032,-0.71859 10.58398,-1.65039 3.20058,-0.6875 6.38325,-1.4632 9.51758,-2.41016 7.45591,-2.13418 14.70896,-5.70689 20.51367,-10.88476 1.55407,-2.13532 1.67822,-3.98517 0.1582,-6.22461 -0.36963,-0.24265 -0.69835,-0.56551 -1.10937,-0.72852 -1.69357,-0.6717 -3.62431,0.1275 -5.28125,0.49805 -2.98636,0.66761 -1.87433,0.43335 -4.98242,0.99219 -2.25653,0.40501 -2.41417,0.45122 -4.55274,0.77539 -0.1024,0.0155 -0.2083,0.0192 -0.31445,0.0234 1.77968,-1.97407 3.16643,-4.24842 3.94922,-6.8164 0.66172,-3.06539 0.65448,-6.20895 -1.29492,-8.83399 -0.37569,-0.26985 -0.69406,-0.64108 -1.125,-0.80859 -0.91854,-0.35679 -2.18988,-0.14388 -3.01563,0.30664 -4.40239,2.40135 -8.74558,4.84314 -13.00195,7.43555 0.7488,-2.82859 1.33144,-5.68741 0.71875,-8.63477 -0.41344,-1.80542 -0.92817,-4.5039 -2.48633,-5.88867 -0.44438,0.27788 -1.42859,0.87289 -2.8125,1.70117 1.21489,-0.78206 2.23433,-1.39966 2.78906,-1.72265 -0.42241,-0.36922 -0.91804,-0.64825 -1.51172,-0.78125 -0.098,-0.0219 -0.19688,-0.0327 -0.29687,-0.0371 z m 1.80859,0.81836 c 0.008,0.007 0.0155,0.0144 0.0234,0.0215 0.55284,-0.3457 0.41702,-0.27795 -0.0234,-0.0215 z m -10.80664,11.32421 c 0.14632,0.6032 0.25426,1.17091 0.3418,1.56446 0.64025,3.44719 -0.69707,6.63215 -1.6582,9.85937 0.15307,0.91249 0.0459,1.59304 1.33789,1.88867 0.4648,0.10621 0.97404,-0.10778 1.39062,-0.33984 4.85189,-2.70138 9.59086,-5.59744 14.36524,-8.43359 0.17001,-0.101 0.3372,-0.20736 0.50586,-0.31055 0.28978,-0.0319 0.46312,0.0438 0.96679,0.19336 1.58166,2.08418 1.13185,4.76967 0.42969,7.08984 -1.08605,2.63743 -2.70403,4.95958 -4.97852,6.6875 -0.23244,0.18482 -0.61071,0.27066 -0.69726,0.55469 -0.0998,0.32769 -2.7e-4,0.7441 0.22265,1.00391 0.39383,0.45872 0.92472,0.84309 1.50586,1.00976 1.18878,0.34092 5.37911,-0.62978 6.57813,-0.8457 2.36519,-0.3738 4.69854,-0.91232 7.04687,-1.37305 1.40542,-0.2759 2.16911,-0.51656 3.49414,-0.0234 -0.0972,0.37513 -0.17489,0.69313 -0.25195,1.01172 -1.88724,0.50585 -3.78758,0.96705 -5.6914,1.40625 -3.46515,0.90856 -7.00791,1.42102 -10.56055,1.83594 -2.90238,0.31295 -5.81876,0.45582 -8.73633,0.51172 -2.45344,0.0673 -4.90743,0.0469 -7.36133,0.0254 -1.56204,-0.10545 -3.10076,0.14715 -4.64062,0.35938 l 2,-1.16211 c -0.60167,-0.97486 -1.29957,-1.85825 -2.14063,-2.64258 -0.80885,-0.75167 -1.68197,-1.49499 -2.63086,-2.09766 l 6.0293,-2.92383 c 0.47906,-3.61927 1.25705,-7.19902 2.02539,-10.76757 0.29356,-1.37773 0.65117,-2.74888 1.10742,-4.08204 z m 13.00196,3.67774 c -0.21317,0.20438 -0.48512,0.36459 -0.6836,0.58008 0.0204,-0.0742 0.0402,-0.14846 0.0605,-0.22266 0.20804,-0.1185 0.41484,-0.23921 0.62305,-0.35742 z m -34.53907,22.3418 c 0.84807,0.42643 1.61193,1.09554 2.30469,1.71484 0.40565,0.37178 0.77758,0.76746 1.11914,1.1875 -1.40393,0.95301 -2.93696,1.97023 -4.74805,3.01172 -0.62279,0.78693 -1.35973,2.116 -1.00585,3.17578 0.1417,0.42418 0.42843,0.78512 0.64257,1.17773 0.3617,0.37455 0.68188,0.79227 1.08399,1.12305 0.98634,0.81143 2.68559,1.75707 3.77148,2.3418 2.39165,1.28783 4.85377,2.39609 7.34766,3.46679 6.20413,2.48334 12.64098,4.30718 18.98242,6.39454 4.44408,1.18749 8.59567,2.97807 12.5,5.39062 3.33615,2.55133 6.73931,5.18442 9.43555,8.4375 0.60177,0.72609 1.14423,1.49872 1.71679,2.24805 3.7265,5.31689 5.73639,11.49088 7.35743,17.71093 1.40088,6.28555 1.93757,12.75106 1.70898,19.17969 -0.34091,7.11394 -3.1259,13.66984 -6.30078,19.93164 -2.68108,5.2673 -6.07599,10.20946 -10.35547,14.31641 -0.3269,0.31372 -0.67036,0.60848 -1.01367,0.9043 -4.6981,1.85464 -9.51058,3.02995 -14.43164,4.11523 -12.10564,2.02915 -24.42553,2.53622 -36.67774,2.16016 -8.11362,-0.53292 -16.24695,-1.52924 -24.07617,-3.80274 -1.26746,-0.36812 -2.5116,-0.81129 -3.76758,-1.21679 -4.77997,-1.70336 -9.36704,-3.98032 -13.47656,-6.97461 -2.30903,-1.68242 -3.59967,-2.94205 -5.7207,-4.84961 -3.44848,-3.33321 -6.49026,-7.15999 -8.66406,-11.45508 -1.24211,-2.45416 -1.55615,-3.67125 -2.44532,-6.27149 -2.1609,-6.9033 -2.6231,-14.14275 -2.91601,-21.32226 -0.20674,-5.95261 0.60605,-11.8202 2.43164,-17.47656 1.45723,-4.6122 4.6564,-8.35369 7.8125,-11.91797 1.98261,-2.27184 4.23674,-4.26209 6.59375,-6.12891 0.51775,-0.22891 1.03516,-0.45878 1.55273,-0.6875 3.76929,-1.78609 7.7388,-3.08015 11.59766,-4.64453 2.22489,-1.00252 4.46192,-1.9699 6.64648,-3.05859 2.12401,-1.12645 4.97017,-2.71261 7.66407,-4.23829 -1.41298,0.81849 -1.51948,0.87272 -3.47657,2.00977 -0.41824,0.24302 0.84338,-0.47498 1.26563,-0.71094 1.08427,-0.60586 1.09851,-0.60943 2.15625,-1.18554 3.44844,-1.92207 2.77391,-1.55311 4.77929,-2.75 4.49297,-2.59305 8.97628,-5.20018 13.46485,-7.80079 1.51967,-1.11545 3.24248,-1.97849 4.66797,-3.21874 0.1673,-0.0811 0.32282,-0.18085 0.47265,-0.28711 z m -6.6289,1.73632 c -0.24981,0.14544 -2.76654,1.59585 -4.50391,2.59766 -0.1354,0.0756 -0.1863,0.1027 -0.41016,0.22852 1.11303,-0.6397 5.09574,-2.93194 4.91407,-2.82618 z m -1.24024,3.32618 c -2.64043,1.53681 -5.28785,3.06219 -7.93359,4.58984 1.64505,-0.9662 3.632,-2.13053 7.04297,-4.11328 0.29102,-0.16932 1.18161,-0.64593 0.89062,-0.47656 z m 9.49024,1.78711 c -0.4453,0.2552 -0.89065,0.51039 -1.33594,0.76562 0.29631,-0.16441 0.54309,-0.41189 0.84375,-0.56836 0.15306,-0.0797 0.3203,-0.14182 0.49219,-0.19726 z" />
    <path
       style="fill:#000000;stroke-width:0.264583"
       id="path1376"
       d="m 132.46482,123.02856 c 0.15941,1.14711 0.2718,2.301 0.3877,3.45331 0.12995,1.41282 0.22862,2.82861 0.31164,4.24494 0.0351,1.15579 0.11478,2.30908 0.17757,3.46347 0.0581,0.73098 0.0859,1.46367 0.14445,2.19452 0.0313,0.37011 0.0482,0.74122 0.0492,1.11261 0.006,0.28369 -0.001,0.56746 0.003,0.85113 2.6e-4,0.17822 -0.003,0.35641 -0.006,0.5346 0,0 3.52007,-1.79304 3.52007,-1.79304 v 0 c -0.002,-0.17649 -0.005,-0.35299 -0.004,-0.52951 0.004,-0.28757 -8e-4,-0.57544 -0.008,-0.86293 -0.0223,-0.37258 -0.054,-0.74422 -0.10748,-1.11381 -0.09,-0.71113 -0.14813,-1.42563 -0.22413,-2.13834 -0.095,-1.14238 -0.17899,-2.28504 -0.24083,-3.42976 -0.10518,-1.4149 -0.2009,-2.83072 -0.34215,-4.24263 -0.11436,-1.17059 -0.2253,-2.35835 -0.14829,-3.53435 0,0 -3.51266,1.78979 -3.51266,1.78979 z" />
    <path
       style="fill:#000000;stroke-width:0.264583"
       id="path1386"
       d="m 133.34215,132.96146 c 1.06453,0.30132 2.08694,0.73985 3.11758,1.13955 1.09071,0.436 2.19181,0.84313 3.27477,1.29818 0.36109,0.14873 0.72812,0.29305 1.05696,0.5064 0.18875,0.14839 0.36698,0.31033 0.54745,0.46882 0.10884,0.0853 0.0543,0.0469 0.16275,0.11632 0,0 3.32962,-2.14882 3.32962,-2.14882 v 0 c -0.0949,-0.056 -0.0481,-0.0317 -0.13997,-0.0742 -0.20434,-0.14491 -0.39237,-0.31353 -0.57654,-0.48321 -0.0551,-0.0398 -0.19978,-0.14692 -0.25677,-0.1773 -0.29674,-0.15819 -0.63421,-0.23533 -0.94971,-0.34301 -1.13429,-0.38441 -2.26379,-0.78526 -3.37772,-1.22542 -0.99522,-0.38466 -1.96813,-0.81898 -2.92482,-1.29163 0,0 -3.2636,2.21432 -3.2636,2.21432 z" />
    <path
       style="fill:#000000;stroke-width:0.264583"
       id="path1388"
       d="m 138.19149,130.33626 c 0.66092,-0.54751 1.27693,-1.14946 1.89098,-1.74883 0.72114,-0.64525 1.3504,-1.37837 1.96061,-2.12628 0.26514,-0.31128 0.54261,-0.61269 0.83776,-0.89576 0.40597,-0.38936 -0.0815,0.1056 0.25701,-0.2423 0,0 -3.63597,1.51015 -3.63597,1.51015 v 0 c -0.35071,0.3543 -0.66845,0.73976 -0.97953,1.12879 -0.59641,0.73607 -1.23962,1.43042 -1.94078,2.06868 -0.37242,0.35688 -0.7467,0.70998 -1.13485,1.04985 -0.69984,0.61279 -0.0317,0.0228 -0.67137,0.56371 -0.0772,0.0653 -0.15148,0.13408 -0.22722,0.20112 0,0 3.64336,-1.50913 3.64336,-1.50913 z" />
    <path
       style="fill:#000000;stroke-width:0.264583"
       id="path1390"
       d="m 145.22062,126.03381 c 0.28107,1.06456 0.51248,2.14103 0.78722,3.20735 0.31776,1.20109 0.54939,2.42193 0.77804,3.64235 0.1285,0.61104 0.2147,1.23056 0.2815,1.85115 0.0517,0.3694 0.0902,0.73936 0.15108,1.10719 0.0766,0.33103 0.15642,0.65961 0.20212,0.99664 0.003,0.0121 0.0473,0.22845 0.0607,0.25635 0.67413,1.39648 2.85635,-1.42129 3.56525,-1.89085 0.0577,-0.0383 -0.0217,-0.13689 -0.0297,-0.20569 -0.0111,-0.0947 -0.0185,-0.18983 -0.0277,-0.28475 -0.0551,-0.80751 -0.0592,-1.6174 -0.0627,-2.42644 0.004,-0.72779 10e-4,-1.4556 0.006,-2.18339 0.0267,-0.47757 0.0593,-0.97928 0.25129,-1.42496 0.0382,-0.0888 0.0873,-0.17247 0.13091,-0.2587 0.21157,-0.32659 0.49565,-0.58724 0.81549,-0.80433 0.078,-0.0529 0.31865,-0.20117 0.23711,-0.15394 -1.02614,0.59429 -2.04746,1.19688 -3.07118,1.79532 0.33867,-0.19848 0.70488,-0.34062 1.08644,-0.42911 0.27081,-0.0508 0.54244,-0.0695 0.81443,-0.0239 0.26477,0.064 0.52004,0.15704 0.76312,0.27921 0,0 3.2951,-2.17477 3.2951,-2.17477 v 0 c -0.26845,-0.12409 -0.52848,-0.26381 -0.81891,-0.33456 -0.30864,-0.10499 -0.58206,-0.15687 -0.90882,-0.1086 -0.42473,0.0418 -0.82531,0.16873 -1.21232,0.34886 -1.18587,0.69125 -2.37801,1.37184 -3.55761,2.07373 -0.083,0.0494 -0.15481,0.11565 -0.22789,0.17873 -0.31017,0.26773 -0.56347,0.59421 -0.7356,0.9665 -0.039,0.10082 -0.0834,0.19969 -0.11697,0.30244 -0.1596,0.4888 -0.17667,1.01027 -0.18151,1.51954 0.005,0.7247 0.003,1.44949 0.0204,2.17406 0.0125,0.81683 0.0339,1.63397 0.0188,2.45087 -0.006,0.0975 -0.007,0.1955 -0.0194,0.29237 -0.007,0.0519 -0.0845,0.17617 -0.0379,0.15226 3.40263,-1.74842 2.96358,-3.11501 3.4764,-1.73289 0.0237,0.0638 -0.12388,-0.31951 -0.0581,-0.1958 -0.064,-0.33221 -0.13395,-0.66319 -0.20167,-0.99458 -0.0552,-0.36006 -0.11908,-0.71866 -0.17939,-1.07789 -0.0898,-0.62231 -0.2026,-1.24308 -0.3598,-1.85202 -0.31733,-1.18929 -0.62155,-2.38188 -0.90626,-3.57955 -0.15722,-0.69428 -0.30282,-1.38402 -0.40403,-2.08899 -0.0353,-0.24581 -0.092,-0.6662 -0.10442,-0.93114 -0.004,-0.0779 0.004,-0.15591 0.005,-0.23387 0,0 -3.5245,1.79582 -3.5245,1.79582 z"
       inkscape:export-filename="C:\Users\Jonas\Desktop\Deg-logo.png"
       inkscape:export-xdpi="96"
       inkscape:export-ydpi="96" />
    <path
       id="path2507"
       style="fill:#d38d5f;stroke-width:0.674591"
       transform="scale(0.26458333)"
       d="m 160.86719,710.16797 c -0.0313,-0.003 0.0465,0.35311 0.084,0.48242 0.009,0.0306 0.0893,0.0867 0.084,0.0527 -0.0206,-0.12713 -0.0519,-0.25236 -0.0762,-0.3789 -0.0245,-0.0434 -0.0478,-0.0875 -0.0723,-0.13086 -0.009,-0.0167 -0.0151,-0.025 -0.0195,-0.0254 z" />
    <path
       style="fill:#d38d5f;stroke-width:1.34918"
       d=""
       id="path2702"
       transform="scale(0.26458333)" />
    <path
       style="fill:#000000;stroke-width:0.264583"
       id="path136"
       d="m 81.561561,89.76802 c -0.383085,0.0036 -0.766385,-0.0024 -1.149252,0.0109 -0.0872,0.003 -0.172943,0.02349 -0.258946,0.0382 -0.354359,0.06056 -0.707215,0.141158 -1.042979,0.272222 -0.119015,0.04646 -0.232987,0.104925 -0.34948,0.157387 -0.101537,0.07368 -0.213395,0.134911 -0.304612,0.221036 -0.318061,0.300312 -0.485214,0.723619 -0.495517,1.158692 -0.01021,0.43157 0.09343,0.715074 0.198215,1.132536 0.192791,0.617548 0.464084,1.205817 0.678177,1.815592 0.106958,0.304633 0.253275,0.71144 0.256659,1.045792 0.0013,0.140007 -0.0469,0.276069 -0.07034,0.414104 -0.08688,0.102632 -0.153837,0.226193 -0.260636,0.307893 -0.378198,0.289317 -0.8807,0.307531 -1.33082,0.342892 0,0 0.924785,0.137539 0.924785,0.137539 v 0 c 0.462994,-0.05134 0.972719,-0.09149 1.343321,-0.417947 0.110477,-0.09732 0.173966,-0.237564 0.260948,-0.356346 0.01966,-0.147846 0.06377,-0.29447 0.05897,-0.443539 -0.01111,-0.344369 -0.160848,-0.748602 -0.274002,-1.063451 -0.217223,-0.604427 -0.48862,-1.188566 -0.6745,-1.804416 -0.09673,-0.406831 -0.193334,-0.676986 -0.17621,-1.095142 0.01709,-0.417623 0.187926,-0.807598 0.50365,-1.083381 0.09112,-0.07959 0.200732,-0.135102 0.301099,-0.202652 0.115655,-0.04935 0.228912,-0.104731 0.346961,-0.148032 0.237459,-0.0871 0.484598,-0.148606 0.732288,-0.197869 0.108063,-0.02148 0.216913,-0.03918 0.326051,-0.05431 0.08982,-0.01246 0.361061,-0.02273 0.270558,-0.02839 -0.263888,-0.01651 -0.528797,-0.0029 -0.793195,-0.0043 0,0 0.978816,-0.155027 0.978816,-0.155027 z" />
    <path
       style="fill:#000000;stroke-width:0.264583"
       id="path138"
       d="m 97.629026,86.464028 c -0.381447,0.0036 -0.763037,-1.59e-4 -1.144341,0.01082 -0.287425,0.0083 -0.582367,0.110199 -0.786437,0.321469 -0.240678,0.249169 -0.220178,0.357034 -0.30983,0.692094 -0.0056,0.166669 -0.02477,0.333444 -0.01669,0.500013 0.019,0.392676 0.115787,0.850561 0.194659,1.231183 0.03395,0.163827 0.243838,1.098714 0.278046,1.277056 0.03411,0.177842 0.05858,0.357399 0.08787,0.536101 0.02056,0.308917 0.09233,0.895723 -0.264583,1.077635 -0.126135,0.06429 -0.314907,0.04613 -0.44282,0.04744 0.215048,-0.004 0.430096,-0.008 0.645141,-0.01199 0,0 -0.945528,0.146127 -0.945528,0.146127 v 0 c 0.417012,0.0036 0.834025,0.0071 1.251037,0.01074 0.183211,-0.0191 0.312055,-0.0016 0.462291,-0.116581 0.334965,-0.256244 0.252026,-0.819674 0.215609,-1.169387 -0.03369,-0.179914 -0.06399,-0.360495 -0.101068,-0.539742 -0.176665,-0.85407 -0.10582,-0.397319 -0.280236,-1.274233 -0.07487,-0.376439 -0.161087,-0.821854 -0.170866,-1.210009 -0.004,-0.159514 0.01934,-0.318545 0.02902,-0.477819 0.03858,-0.12319 0.05713,-0.254547 0.115734,-0.369567 0.147309,-0.289134 0.438017,-0.441574 0.743013,-0.500052 0.08541,-0.01638 0.346837,-0.01781 0.259974,-0.02207 -0.265586,-0.01307 -0.531804,-0.0029 -0.797705,-0.0044 0,0 0.97772,-0.154855 0.97772,-0.154855 z" />
    <text
       xml:space="preserve"
       style="font-style:normal;font-weight:normal;font-size:15.8567px;line-height:1.25;font-family:sans-serif;fill:#000000;fill-opacity:1;stroke:none;stroke-width:0.396419"
       x="93.711609"
       y="136.67776"
       id="text3870"
       transform="scale(0.93073557,1.074419)"><tspan
         sodipodi:role="line"
         id="tspan3868"
         style="font-style:normal;font-variant:normal;font-weight:normal;font-stretch:normal;font-family:Mistral;-inkscape-font-specification:Mistral;stroke-width:0.396419"
         x="93.711609"
         y="136.67776">DEG</tspan></text>
    <path
       style="fill:#ffcc00;fill-opacity:1;stroke-width:0.0849062"
       d=""
       id="path6211"
       transform="scale(0.26458333)" />
    <path
       style="fill:#000000;fill-opacity:1;stroke-width:0.0106133"
       d="m 195.89789,693.6413 c 0.0422,-0.0322 2.68708,-1.62251 2.6985,-1.62253 0.006,-10e-6 0.0102,0.0107 0.008,0.0239 -0.004,0.0264 -0.31289,0.23877 -0.68806,0.47251 -0.41721,0.25992 -1.07268,0.63305 -1.77122,1.00828 -0.23557,0.12654 -0.29766,0.15609 -0.24759,0.11787 z"
       id="path6326"
       transform="scale(0.26458333)" />
    <path
       style="fill:#000000;fill-opacity:1;stroke-width:0.0106133"
       d=""
       id="path6365"
       transform="scale(0.26458333)" />
    <path
       style="fill:#000000;fill-opacity:1;stroke-width:0.00390625"
       d="m 195.73573,693.73764 c -1e-5,-0.003 0.1498,-0.0964 0.15486,-0.0964 0.001,0 -9.2e-4,0.004 -0.005,0.008 -0.008,0.009 -0.009,0.009 0.0219,0.001 0.005,-0.001 -0.0298,0.0178 -0.078,0.0426 -0.0832,0.0427 -0.0937,0.0476 -0.0937,0.0439 z"
       id="path6441"
       transform="scale(0.26458333)" />
  </g>
</svg>
