<svg width="39" height="33" viewBox="0 0 39 33" fill="none" xmlns="http://www.w3.org/2000/svg">
<path d="M5.84888 18.9241C5.77624 18.206 5.76966 17.483 5.7583 16.762C5.78891 15.8888 6.0255 15.0245 6.42583 14.2477C6.50479 14.0945 6.59749 13.9487 6.68331 13.7992C7.04636 13.2385 7.50593 12.7447 8.05534 12.3623C8.1807 12.2751 8.57043 12.0341 8.44506 12.1214C8.27587 12.2391 8.09751 12.343 7.92374 12.4539C8.68011 12.1195 9.49649 12.0239 10.315 12.0402C10.823 12.0775 11.3261 12.1772 11.7908 12.3921C12.0312 12.5033 12.1182 12.5761 12.3333 12.7239C12.8855 13.1362 13.1886 13.6787 13.4655 14.294C13.7571 15.0661 13.8554 15.8929 13.9372 16.7092C14.0063 17.5253 14.0104 18.3449 14.0133 19.1633C14.013 19.8966 14.0106 20.63 14.0079 21.3634C14.014 21.9744 13.99 22.5861 14.0173 23.1967C14.057 23.6915 14.1537 24.1796 14.3109 24.65C14.4314 24.9445 14.5329 25.257 14.7137 25.5226C14.8227 25.6829 14.9456 25.8044 15.0768 25.9454C15.6516 26.4951 16.2262 26.6518 16.983 26.8126C17.4989 26.8956 18.0199 26.9876 18.5436 27.005C18.8551 27.0154 18.9736 26.9956 19.2869 26.9688C20.1 26.8718 20.8641 26.5959 21.6022 26.254C22.2576 25.8827 22.9385 25.5377 23.5191 25.0509C23.8 24.8154 24.0508 24.551 24.2986 24.282C24.8584 23.6564 25.2014 22.8833 25.4877 22.1037C25.813 21.1881 25.9422 20.2271 26.027 19.2644C26.0821 18.4391 26.1318 17.612 26.0666 16.7863C26.0075 16.0776 25.7414 15.4219 25.4515 14.7813C25.0692 14.021 24.6689 13.2697 24.3242 12.4912C24.1385 12.0857 24.0432 11.6548 24.0089 11.2126C24.0033 10.7657 24.2139 10.3691 24.4428 9.99943C24.6675 9.71236 24.9372 9.46887 25.2393 9.26564C25.3186 9.21231 25.5648 9.06536 25.4829 9.11458C25.2646 9.2458 25.0477 9.37927 24.8301 9.51161C25.5365 9.18773 26.3023 9.03797 27.0659 8.92289C27.9665 8.80801 28.8748 8.78388 29.7808 8.82605C30.8302 8.90404 31.8476 9.18117 32.8684 9.4179C33.0469 9.45341 33.2254 9.48892 33.4039 9.52444L34.279 8.91423C34.1011 8.87975 33.9232 8.84526 33.7453 8.81078C32.7214 8.57466 31.7037 8.29033 30.6529 8.19914C29.7443 8.14962 28.8336 8.16823 27.9292 8.27649C27.1636 8.38278 26.3968 8.52684 25.6816 8.83023C24.8588 9.29024 23.9995 9.66213 23.4387 10.4444C23.2099 10.8377 23.0093 11.2564 23.0278 11.7233C23.0716 12.1749 23.1813 12.6139 23.3778 13.0251C23.7333 13.7983 24.1394 14.5465 24.5066 15.3141C24.7865 15.9456 25.0483 16.5902 25.1019 17.2874C25.1643 18.1048 25.124 18.925 25.0686 19.742C24.9809 20.6978 24.8414 21.6513 24.5115 22.5579C24.2177 23.3298 23.8663 24.0897 23.2967 24.701C22.9567 25.0606 22.6073 25.4025 22.201 25.6881C22.092 25.7647 21.7443 25.9603 21.8664 25.907C22.0705 25.818 22.2547 25.689 22.4489 25.58C21.7193 25.9295 20.9652 26.2156 20.1579 26.3236C19.8793 26.3515 19.706 26.3774 19.4273 26.3726C18.9049 26.3638 18.3841 26.2741 17.8692 26.1964C17.1358 26.0437 16.573 25.9076 16.0125 25.3761C15.8881 25.2446 15.7661 25.1265 15.6645 24.9752C15.4895 24.7146 15.3906 24.4079 15.2742 24.1196C15.1218 23.6586 15.0275 23.1803 14.9902 22.6959C14.9658 22.0874 14.9834 21.478 14.9782 20.8692C14.9776 20.137 14.9795 19.4048 14.9751 18.6726C14.9694 17.8508 14.9718 17.0273 14.8961 16.2082C14.8089 15.3812 14.7038 14.5447 14.4091 13.762C14.1213 13.1142 13.8277 12.5776 13.2528 12.1375C13.0365 11.9862 12.9351 11.9022 12.6931 11.7872C12.2216 11.5629 11.7097 11.456 11.1929 11.4061C10.365 11.3761 9.53809 11.4637 8.76497 11.7814C8.45924 11.9501 7.51583 12.4277 7.05982 12.7612C6.51566 13.1593 6.06212 13.6635 5.70678 14.2352C5.62243 14.3875 5.53111 14.5362 5.45372 14.6922C5.05954 15.4868 4.83066 16.3658 4.80078 17.2516C4.81106 17.9807 4.81649 18.7105 4.86416 19.4383L5.84888 18.9241H5.84888Z" fill="white"/>
<path d="M20.3636 6.88315C20.467 6.84323 19.6025 7.38322 19.7898 7.25367C19.9404 7.14943 20.4202 7.0406 20.2551 6.96127C20.0692 6.87197 19.8791 7.13139 19.686 7.20383C19.0821 7.43042 18.8575 7.46727 18.2144 7.63079C17.1279 7.82686 15.9683 8.12701 14.8545 8.00721C14.6907 7.9896 14.5302 7.94953 14.3681 7.92069C13.6921 7.7268 13.0006 7.40675 12.5944 6.80222C12.5211 6.69308 12.4702 6.57047 12.4081 6.4546C12.3672 6.31645 12.3072 6.18259 12.2856 6.04017C12.1621 5.2266 12.5027 4.42019 13.0077 3.79919C13.1923 3.57214 13.4123 3.3763 13.6146 3.16485C14.5332 2.4138 14.1992 2.64788 15.2114 1.98181C15.2157 1.97897 15.222 1.9861 15.2267 1.98397C15.529 1.84538 15.8239 1.69057 16.13 1.56065C16.9129 1.22831 17.114 1.19358 17.9196 0.955905C18.8058 0.768727 19.793 0.485889 20.7038 0.700145C21.0933 0.791753 21.1495 0.870224 21.4625 1.08455C21.5444 1.17891 21.6373 1.26475 21.7083 1.36763C22.0944 1.92759 22.0794 2.51659 22.0344 3.15931C21.9624 3.62264 21.8614 4.08915 21.6656 4.51809C21.5553 4.75969 21.4845 4.85492 21.3434 5.07827C20.9796 5.57423 20.6006 6.06184 20.1843 6.51502C20.111 6.57632 20.0419 6.64285 19.9645 6.69891C19.8848 6.7567 19.629 6.90524 19.7141 6.85574C19.9372 6.72605 20.1688 6.60878 20.3784 6.45826C20.4658 6.39551 20.1824 6.54687 20.0839 6.59019C19.8653 6.68637 19.7062 6.75259 19.4862 6.84551L18.6309 7.52056C19.5309 7.14377 20.4708 6.76684 21.1916 6.09181C21.6021 5.63053 21.9878 5.14495 22.3401 4.63783C22.4824 4.40028 22.544 4.31541 22.6538 4.05921C22.842 3.6197 22.9371 3.14477 23.0029 2.6737C23.0434 2.002 23.0375 1.3898 22.6358 0.808429C22.5596 0.698144 22.4607 0.605356 22.3732 0.50382C22.0457 0.273452 21.9834 0.18696 21.5749 0.0850214C20.6568 -0.144118 19.6293 0.142179 18.733 0.328975C18.4343 0.415056 18.132 0.489587 17.8369 0.587216C16.5374 1.01712 15.4396 1.63518 14.2642 2.35331C13.973 2.53124 13.6918 2.72602 13.4194 2.93165C13.1574 3.12943 12.9151 3.35202 12.663 3.56221C12.4589 3.78109 12.2362 3.98395 12.0507 4.21885C11.5343 4.87301 11.206 5.71404 11.3402 6.55678C11.364 6.70637 11.4267 6.84712 11.4699 6.99229C11.5354 7.11457 11.5892 7.24388 11.6663 7.35913C12.085 7.98443 12.7934 8.32373 13.4899 8.53452C13.6561 8.56631 13.8205 8.60978 13.9884 8.62988C15.1152 8.76473 16.2878 8.44943 17.3892 8.26146C18.0554 8.10176 18.8045 7.94675 19.4207 7.63101C19.8886 7.39118 20.342 7.12375 20.7988 6.86322C21.0802 6.70269 21.1448 6.64727 21.3893 6.47023L20.3636 6.88316V6.88315Z" fill="white"/>
<path d="M2.64348 16.9042C1.74301 17.3444 1.59339 17.2621 1.56529 17.9549C1.55886 18.193 1.56247 18.4312 1.5634 18.6693C1.5618 18.8863 1.55452 19.1003 1.59708 19.3137C1.64524 19.4514 1.7225 19.5746 1.80795 19.6919C1.3693 19.7622 1.1287 19.9983 0.659517 20.3093C0.634764 20.3257 0.645654 20.3688 0.651535 20.3979C0.655622 20.4182 0.662394 20.436 0.670838 20.4525C0.693834 20.4975 0.730157 20.5318 0.764739 20.5715C0.940643 20.732 1.15926 20.8183 1.37778 20.9026C0.871211 21.081 0.29329 21.2594 0.0377697 21.7359C-0.0524564 21.9365 0.0303336 22.1075 0.166212 22.2585C0.345584 22.4101 0.574422 22.4627 0.800587 22.4977C1.15243 22.5307 1.50656 22.5432 1.85875 22.5118C2.13193 22.4878 2.37645 22.3796 2.61939 22.2617C2.85555 22.1408 3.08569 22.0095 3.31443 21.8755C3.80334 21.5922 4.3122 21.3224 4.76793 20.9856C4.92862 20.9066 5.00362 20.7501 5.07968 20.5975C5.14697 20.4468 5.20283 20.2924 5.2653 20.1389C5.31782 20.2379 5.36492 20.34 5.41406 20.4406C5.51626 20.6501 5.54535 20.8823 5.56471 21.1117C5.58486 21.3497 5.5834 21.5828 5.53336 21.8165C5.37352 22.2 5.11982 22.5354 4.87983 22.8717C4.63394 23.2309 4.30048 23.5152 3.96593 23.789C3.60071 24.1108 3.22303 24.4189 2.83302 24.7101C2.46686 24.9688 2.1414 25.2704 1.84728 25.6075C1.50636 25.9686 1.26154 26.4005 1.0611 26.8516C0.933043 27.2029 0.850183 27.5686 0.802038 27.9389C0.746258 28.3603 0.858764 28.7695 0.993468 29.1648C1.12156 29.4878 1.31166 29.7789 1.4859 30.0777C1.70849 30.391 1.88051 30.7504 2.15932 31.0205C2.226 31.0851 2.30068 31.141 2.37136 31.2012C2.93774 31.6087 3.60757 31.8144 4.28522 31.9425C4.77832 32.0104 5.28493 32.0623 5.78096 31.9843C6.14391 31.9273 6.36924 31.843 6.72156 31.734C7.80573 31.2909 8.8825 30.739 9.70085 29.888C10.1035 29.4157 10.3446 28.8453 10.5374 28.2622C10.7072 27.6909 10.8364 27.1059 10.9114 26.5144C10.9691 25.8774 10.9661 25.2364 10.9695 24.5972C10.9769 24.0005 10.9369 23.401 10.8232 22.815C10.7091 22.259 10.5565 21.7117 10.3669 21.1769C10.2007 20.7366 10.0234 20.3985 9.66805 20.0855C9.25806 19.8183 8.80441 19.6308 8.33878 19.4862C7.82288 19.3371 7.29956 19.2213 6.76786 19.1473C6.48339 19.1008 6.14793 19.13 5.92508 18.9215C5.85013 18.8145 5.88217 18.8726 5.83045 18.7466L4.86111 19.2903C4.92664 19.4428 4.88734 19.3721 4.97721 19.5033C5.00503 19.532 5.03025 19.5599 5.05718 19.5856C4.94788 19.6693 4.84205 19.7529 4.74311 19.8177C4.62605 19.9112 4.51977 20.0082 4.45474 20.1472C4.38012 20.2907 4.31703 20.4405 4.25895 20.5914C4.19445 20.7462 4.1419 20.9056 4.06157 21.0535C3.97532 21.1967 3.88634 21.3148 3.73241 21.393C3.64023 21.4528 3.51721 21.5343 3.40804 21.6082C3.19659 21.714 2.98622 21.8186 2.74769 21.8519C2.40109 21.892 2.05433 21.8898 1.70651 21.8581C1.50011 21.8337 1.29431 21.7978 1.11872 21.6783C1.03738 21.5979 0.992366 21.5156 1.00392 21.4237C1.1852 21.3754 1.36773 21.3323 1.55441 21.3078C1.98444 21.265 3.24565 21.0971 3.01212 20.5377C2.82872 20.3951 2.5652 20.4148 2.36163 20.3101C2.35286 20.3067 2.34401 20.3034 2.33522 20.3C2.73814 20.2443 3.12884 20.0928 3.18308 19.6755C3.13801 19.4821 2.94419 19.367 2.83201 19.2119C2.72941 19.0837 2.63417 18.9452 2.58006 18.789C2.54224 18.5825 2.55601 18.3738 2.55277 18.1646C2.55262 18.1406 2.55276 18.1165 2.55262 18.0924C2.6543 18.1836 2.75751 18.273 2.86161 18.3607C3.25064 18.7305 3.64543 19.0948 4.00729 19.492L4.95776 18.9183C4.57742 18.5336 4.1841 18.1624 3.79612 17.7856C3.55332 17.576 3.31684 17.3574 3.0976 17.123C2.9764 16.9905 2.82535 16.9017 2.64348 16.9042H2.64348ZM6.36439 19.8556C6.72465 19.9199 7.08094 20.0037 7.43388 20.1039C7.88883 20.238 8.32565 20.4229 8.73281 20.6679C9.07311 20.9561 9.24905 21.2943 9.40841 21.7072C9.59801 22.2364 9.74484 22.7791 9.85817 23.3298C9.96636 23.9099 10.0037 24.5012 9.99881 25.0911C9.99575 25.7274 9.99729 26.3656 9.92885 26.999C9.84982 27.5832 9.72725 28.1629 9.54976 28.7254C9.35099 29.296 9.10569 29.8532 8.69435 30.3059C8.4877 30.5104 8.43923 30.5713 8.2038 30.7501C8.13405 30.8031 7.96391 30.9032 7.89685 30.9497C7.65245 31.0806 7.44681 31.1827 7.56856 31.078C7.25382 31.1799 6.97781 31.2821 6.65161 31.3398C6.16346 31.4262 5.66336 31.3827 5.17619 31.3195C4.51369 31.2042 3.855 31.0165 3.30035 30.6211C3.13447 30.4821 3.06814 30.4414 2.93505 30.2742C2.74931 30.0409 2.61245 29.7696 2.44291 29.525C2.27429 29.2315 2.08772 28.947 1.957 28.6335C1.8281 28.2512 1.73009 27.8562 1.79417 27.4505C1.84671 27.0906 1.92709 26.7333 2.0615 26.3944C2.26653 25.9515 2.52009 25.5343 2.86075 25.1812C3.16145 24.8542 3.49194 24.5615 3.85447 24.3036C4.24108 24.0074 4.6174 23.6981 4.98433 23.3778C5.31729 23.0941 5.64851 22.8047 5.88821 22.4339C6.13106 22.0867 6.4006 21.7411 6.52999 21.3326C6.573 21.0887 6.57472 20.8445 6.55016 20.5979C6.52543 20.3563 6.48855 20.1126 6.38137 19.8917C6.37566 19.8797 6.37007 19.8676 6.36439 19.8556V19.8556ZM2.14713 20.0885C2.17935 20.1328 2.19883 20.1698 2.18733 20.1863C1.99115 20.1475 1.98929 20.1489 2.14713 20.0885Z" fill="white"/>
<path d="M8.2063 22.4425C7.97536 22.4464 7.75369 22.513 7.53681 22.5864C7.28194 22.6815 7.04044 22.8083 6.79852 22.9318C6.36433 23.1497 5.94951 23.4072 5.53194 23.6531C5.40965 23.7251 5.29846 23.8138 5.19045 23.905C5.03357 24.0524 4.90022 24.2277 4.8131 24.4255C4.79843 24.4588 4.787 24.4934 4.77391 24.5274C4.72824 24.6776 4.69556 24.8381 4.7311 24.9944C4.73803 25.0249 4.74959 25.0541 4.75882 25.0839C4.85978 25.3189 5.057 25.4909 5.23747 25.6648C5.51115 25.9324 5.82178 26.1568 6.12989 26.3823C6.46788 26.6314 6.80211 26.8858 7.11374 27.1675C7.25553 27.3128 7.41193 27.4539 7.51823 27.6294C7.53408 27.6556 7.54669 27.6836 7.5609 27.7107C7.64005 27.9064 7.64557 28.1187 7.63622 28.3266C7.60948 28.5353 7.53373 28.7349 7.43028 28.9173C7.40679 28.9588 7.38043 28.9985 7.35553 29.0391C7.31914 29.0947 7.27947 29.1483 7.23653 29.1992C7.02965 29.2559 6.81564 29.2863 6.60099 29.2951C6.5333 29.2979 6.46555 29.2961 6.3978 29.2967C6.17414 29.2912 5.95086 29.2671 5.73324 29.2141C5.5992 29.1815 5.53506 29.158 5.40219 29.1153C5.13391 29.0119 4.86686 28.8963 4.62094 28.7459C4.57577 28.7183 4.5322 28.6881 4.48786 28.6591C4.28289 28.5254 4.09807 28.3626 3.94884 28.168C3.92545 28.1375 3.90473 28.105 3.88265 28.0735L2.95874 28.6211C3.14074 28.8552 3.34685 29.0684 3.59863 29.2288C3.72122 29.3114 3.74832 29.3341 3.87888 29.4042C4.09023 29.5178 4.31356 29.6089 4.53372 29.7034C4.69587 29.7625 4.85732 29.8196 5.02674 29.8549C5.15815 29.8823 5.22866 29.8883 5.36359 29.8973C5.42818 29.9015 5.49284 29.9037 5.55749 29.9068C5.70165 29.9091 5.82308 29.9142 5.96705 29.9038C6.21936 29.8855 6.47007 29.8354 6.70839 29.7507C7.0627 29.5545 7.41855 29.361 7.77134 29.162C7.87119 29.1057 7.95683 29.0446 8.041 28.967C8.15428 28.8624 8.24691 28.7381 8.3272 28.6072C8.46309 28.3651 8.57723 28.1224 8.597 27.8409C8.60179 27.6143 8.58893 27.3832 8.49991 27.1717C8.48294 27.1413 8.46782 27.1099 8.44911 27.0805C8.33308 26.8986 8.16112 26.7586 8.00631 26.6119C7.68107 26.3392 7.33613 26.0913 7.00039 25.8318C6.70419 25.603 6.40594 25.3753 6.14092 25.1099C5.97786 24.9467 5.80037 24.7816 5.71408 24.5626C5.70753 24.5381 5.69863 24.5142 5.69435 24.4892C5.67031 24.349 5.70986 24.206 5.75458 24.0745C5.76782 24.0441 5.77965 24.013 5.79434 23.9833C5.88567 23.7984 6.02195 23.6397 6.17923 23.5078C6.21515 23.4804 6.23042 23.4686 6.25035 23.4534C6.39625 23.3795 6.54308 23.3076 6.69358 23.2435C6.89892 23.1682 7.10925 23.0977 7.32912 23.0834C7.51141 23.0741 7.6942 23.0812 7.87642 23.09C8.01552 23.099 8.15395 23.1142 8.29251 23.1289L9.19596 22.4851C9.05112 22.4825 8.9071 22.4657 8.76274 22.4553C8.57743 22.4464 8.39183 22.4418 8.2063 22.4425V22.4425Z" fill="white"/>
<path d="M7.05516 22.2713C6.99047 22.5007 6.91505 22.7269 6.84479 22.9547C6.73559 23.3221 6.63631 23.6924 6.54229 24.0639C6.46438 24.3762 6.38712 24.6889 6.32659 25.005C6.27919 25.2454 6.23488 25.4862 6.19631 25.7282C6.14237 26.0615 6.07859 26.3932 6.01875 26.7256C5.99211 26.9133 5.94579 27.0973 5.91014 27.2832C5.87329 27.4753 5.84341 27.6691 5.8089 27.8617C5.7407 28.2045 5.67045 28.5469 5.60449 28.8901C5.54724 29.2174 5.49408 29.5453 5.44172 29.8734C5.40163 30.1582 5.34863 30.4403 5.28614 30.7209C5.26726 30.8229 5.24953 30.925 5.2356 31.0278L6.22482 30.5387C6.23533 30.4402 6.25104 30.3424 6.26388 30.2441C6.2996 29.9664 6.33547 29.6886 6.38368 29.4127C6.43979 29.0839 6.49882 28.7557 6.55625 28.4271C6.61812 28.0865 6.68134 27.746 6.74465 27.4056C6.77363 27.2426 6.78457 27.1763 6.81698 27.0135C6.82962 26.95 6.84437 26.887 6.85641 26.8234C6.89125 26.6394 6.91828 26.4538 6.95511 26.2701C7.02077 25.9327 7.0956 25.5971 7.15751 25.2589C7.20202 25.019 7.2455 24.7788 7.28625 24.5382C7.34305 24.2285 7.40895 23.9205 7.48184 23.6142C7.57651 23.2416 7.67797 22.8705 7.79938 22.5056C7.87949 22.2714 7.95483 22.0336 8.06326 21.8107L7.05516 22.2713V22.2713Z" fill="white"/>
<path d="M35.5548 6.86736C35.5325 6.86638 35.5097 6.86987 35.4873 6.86983C35.2774 6.99006 34.5108 7.34665 34.1992 7.66951C34.1314 7.73981 34.1124 7.7737 34.0567 7.85339C33.9395 8.07158 33.8627 8.30551 33.8191 8.54959C33.7856 8.71733 33.7508 8.88479 33.7164 9.05233C33.3553 9.17136 33.056 9.50275 32.7605 9.73678C32.6683 9.80354 32.5827 9.87996 32.4841 9.93808C32.3915 9.99855 32.3085 10.0726 32.2177 10.136C32.1304 10.1934 32.0449 10.2536 31.9568 10.3098C31.9552 10.3107 31.9535 10.3116 31.9519 10.3125C31.943 10.3159 31.8711 10.3532 31.8429 10.3669C31.6791 10.4464 31.5162 10.525 31.3498 10.5989C31.0696 10.7357 30.7638 10.8137 30.4824 10.9491C29.8658 11.2183 29.2544 11.509 28.7132 11.9171C28.464 12.1103 28.2204 12.3117 28.0198 12.557C27.7877 12.8363 27.5576 13.124 27.4623 13.4819C27.3419 13.9142 27.2847 14.3579 27.3094 14.8074C27.3381 15.3499 27.3781 15.897 27.5403 16.419C27.6128 16.6285 27.6309 16.7049 27.7327 16.9023C27.9017 17.23 28.1356 17.5222 28.3976 17.7797C28.5545 17.9226 28.6604 18.026 28.8312 18.153C29.1416 18.3838 29.4883 18.5622 29.8511 18.6942C29.9466 18.7255 30.0412 18.7599 30.1377 18.788C30.7296 18.96 31.3455 19.0302 31.9581 19.0768C32.0994 19.0814 32.2405 19.0895 32.3819 19.0907C33.1542 19.0974 33.9288 19.0357 34.6943 18.9391C34.824 18.9135 34.9548 18.8924 35.0835 18.8623C35.9573 18.6578 36.7724 18.2465 37.4798 17.6924C37.5399 17.6359 37.6023 17.5819 37.6599 17.523C37.9705 17.2057 38.2137 16.8304 38.4107 16.4342C38.6449 15.9529 38.8497 15.4486 38.8689 14.9061C38.8753 14.4198 38.8359 13.9303 38.7233 13.4562C38.5955 12.9818 38.4453 12.5093 38.1632 12.1007C38.0542 11.9508 38.0288 11.9046 37.9027 11.7736C37.7248 11.5887 37.518 11.4315 37.3202 11.2692C37.0208 11.0726 36.7209 10.9309 36.3698 10.8492C35.8983 10.7041 35.4215 10.5734 34.9655 10.3823C34.8095 10.3159 34.6274 10.2398 34.4603 10.151C34.6659 10.1454 34.8712 10.1345 35.0758 10.1138C35.3396 10.0862 35.6057 10.0604 35.8623 9.9912C36.1001 9.94011 36.3366 9.88247 36.5695 9.8121C37.1236 9.65352 37.6625 9.38804 38.0939 9.00328C38.2094 8.84461 38.2186 8.70715 38.1056 8.54074C38.0782 8.52271 38.0537 8.49872 38.0232 8.48661C37.8973 8.43669 37.7539 8.49608 37.6308 8.52362C37.4088 8.57322 37.4915 8.55582 37.2605 8.59734C37.0928 8.62744 37.0811 8.63087 36.9222 8.65496C36.9146 8.65611 36.9067 8.65639 36.8988 8.6567C37.0311 8.51001 37.1341 8.34101 37.1923 8.15019C37.2415 7.9224 37.2409 7.68881 37.0961 7.49375C37.0682 7.4737 37.0445 7.44611 37.0125 7.43367C36.9442 7.40715 36.8498 7.42298 36.7884 7.45645C36.4613 7.63489 36.1385 7.81634 35.8223 8.00897C35.8779 7.79879 35.9212 7.58635 35.8757 7.36734C35.8449 7.23318 35.8067 7.03267 35.6909 6.92977C35.6579 6.95041 35.5848 6.99463 35.4819 7.05618C35.5722 6.99806 35.6479 6.95217 35.6892 6.92817C35.6578 6.90073 35.621 6.88 35.5768 6.87012C35.5696 6.86849 35.5622 6.86769 35.5548 6.86736V6.86736ZM35.6892 6.92817C35.6898 6.92869 35.6903 6.92924 35.6909 6.92977C35.732 6.90408 35.7219 6.90912 35.6892 6.92817ZM34.8861 7.76965C34.897 7.81447 34.905 7.85666 34.9115 7.8859C34.9591 8.14206 34.8598 8.37872 34.7883 8.61853C34.7997 8.68634 34.7917 8.73691 34.8877 8.75888C34.9223 8.76677 34.9601 8.75087 34.9911 8.73362C35.3516 8.53289 35.7038 8.31769 36.0585 8.10694C36.0712 8.09943 36.0836 8.09153 36.0961 8.08386C36.1177 8.08149 36.1305 8.08712 36.168 8.09823C36.2855 8.2531 36.2521 8.45266 36.1999 8.62506C36.1192 8.82104 35.999 8.9936 35.8299 9.122C35.8127 9.13573 35.7846 9.14211 35.7781 9.16321C35.7707 9.18756 35.7781 9.21851 35.7947 9.23781C35.8239 9.2719 35.8634 9.30046 35.9066 9.31285C35.9949 9.33818 36.3063 9.26605 36.3954 9.25C36.5711 9.22223 36.7445 9.18221 36.919 9.14798C37.0235 9.12747 37.0802 9.10959 37.1787 9.14624C37.1714 9.17411 37.1657 9.19774 37.1599 9.22142C37.0197 9.259 36.8785 9.29327 36.737 9.32591C36.4795 9.39342 36.2163 9.4315 35.9523 9.46234C35.7366 9.48559 35.5199 9.49621 35.3031 9.50036C35.1208 9.50536 34.9385 9.50385 34.7561 9.50225C34.64 9.49441 34.5257 9.51318 34.4113 9.52895L34.5599 9.4426C34.5152 9.37016 34.4633 9.30452 34.4008 9.24624C34.3407 9.19038 34.2758 9.13515 34.2053 9.09036L34.6534 8.8731C34.689 8.60416 34.7468 8.33815 34.8039 8.07298C34.8257 7.97061 34.8522 7.86872 34.8861 7.76965V7.76965ZM35.8523 8.04294C35.8365 8.05812 35.8163 8.07003 35.8015 8.08604C35.803 8.08053 35.8045 8.07501 35.806 8.0695C35.8215 8.06069 35.8368 8.05172 35.8523 8.04294H35.8523ZM33.2858 9.70311C33.3488 9.7348 33.4056 9.78452 33.457 9.83053C33.4872 9.85816 33.5148 9.88756 33.5402 9.91878C33.4359 9.98959 33.322 10.0652 33.1874 10.1426C33.1411 10.201 33.0863 10.2998 33.1126 10.3786C33.1232 10.4101 33.1445 10.4369 33.1604 10.4661C33.1873 10.4939 33.211 10.5249 33.2409 10.5495C33.3142 10.6098 33.4405 10.6801 33.5212 10.7235C33.6989 10.8192 33.8819 10.9016 34.0672 10.9811C34.5282 11.1657 35.0065 11.3012 35.4777 11.4563C35.8079 11.5446 36.1164 11.6776 36.4066 11.8569C36.6545 12.0465 36.9073 12.2421 37.1077 12.4839C37.1524 12.5378 37.1927 12.5952 37.2353 12.6509C37.5122 13.046 37.6615 13.5048 37.782 13.967C37.8861 14.434 37.926 14.9145 37.909 15.3922C37.8836 15.9208 37.6767 16.4079 37.4408 16.8732C37.2415 17.2646 36.9893 17.6319 36.6713 17.9371C36.647 17.9604 36.6215 17.9823 36.596 18.0043C36.2469 18.1421 35.8892 18.2294 35.5236 18.3101C34.624 18.4608 33.7086 18.4985 32.7981 18.4706C32.1952 18.431 31.5908 18.3569 31.0091 18.188C30.9149 18.1606 30.8224 18.1277 30.7291 18.0976C30.3739 17.971 30.0331 17.8018 29.7277 17.5793C29.5561 17.4543 29.4602 17.3607 29.3026 17.2189C29.0464 16.9713 28.8203 16.6869 28.6588 16.3677C28.5665 16.1854 28.5432 16.0949 28.4771 15.9017C28.3165 15.3888 28.2822 14.8508 28.2604 14.3173C28.245 13.875 28.3054 13.439 28.4411 13.0187C28.5494 12.6759 28.7871 12.3979 29.0216 12.1331C29.169 11.9642 29.3365 11.8164 29.5116 11.6776C29.5501 11.6606 29.5885 11.6435 29.627 11.6266C29.9071 11.4938 30.202 11.3977 30.4888 11.2814C30.6541 11.2069 30.8203 11.135 30.9827 11.0541C31.1405 10.9704 31.352 10.8526 31.5522 10.7392C31.4472 10.8 31.4393 10.8041 31.2938 10.8886C31.2627 10.9066 31.3565 10.8533 31.3879 10.8357C31.4684 10.7907 31.4695 10.7904 31.5481 10.7476C31.8043 10.6048 31.7542 10.6322 31.9032 10.5433C32.2371 10.3506 32.5702 10.1569 32.9038 9.96362C33.0167 9.88073 33.1447 9.8166 33.2507 9.72444C33.2631 9.71842 33.2746 9.711 33.2858 9.70311V9.70311ZM32.7932 9.83213C32.7746 9.84294 32.5876 9.95072 32.4585 10.0252C32.4485 10.0308 32.4447 10.0328 32.428 10.0421C32.5107 9.9946 32.8067 9.82427 32.7932 9.83213ZM32.701 10.0793C32.5048 10.1935 32.3081 10.3068 32.1115 10.4204C32.2337 10.3486 32.3814 10.262 32.6349 10.1147C32.6565 10.1021 32.7227 10.0667 32.701 10.0793ZM33.4062 10.2121C33.3731 10.2311 33.3401 10.25 33.307 10.269C33.329 10.2568 33.3473 10.2384 33.3697 10.2267C33.381 10.2208 33.3935 10.2162 33.4062 10.2121V10.2121Z" fill="white"/>
<path d="M29.4377 12.5486C29.4825 12.8707 29.5141 13.1948 29.5466 13.5184C29.5831 13.9152 29.6108 14.3128 29.6342 14.7106C29.644 15.0352 29.6664 15.3591 29.684 15.6833C29.7003 15.8886 29.7081 16.0944 29.7246 16.2996C29.7334 16.4036 29.7381 16.5078 29.7384 16.6121C29.7401 16.6918 29.7381 16.7715 29.7393 16.8512C29.7393 16.9012 29.7384 16.9513 29.7376 17.0013L30.7262 16.4977C30.7256 16.4482 30.7248 16.3986 30.7251 16.349C30.7262 16.2683 30.7248 16.1874 30.7228 16.1067C30.7165 16.002 30.7076 15.8976 30.6926 15.7938C30.6673 15.5941 30.651 15.3935 30.6297 15.1933C30.603 14.8725 30.5794 14.5515 30.562 14.2301C30.5325 13.8327 30.5056 13.435 30.4659 13.0385C30.4338 12.7098 30.4027 12.3762 30.4243 12.0459L29.4378 12.5486H29.4377Z" fill="white"/>
<path d="M29.6841 15.3382C29.9831 15.4228 30.2702 15.546 30.5597 15.6582C30.866 15.7807 31.1752 15.895 31.4794 16.0228C31.5808 16.0646 31.6839 16.1051 31.7762 16.1651C31.8292 16.2067 31.8793 16.2522 31.93 16.2967C31.9605 16.3207 31.9452 16.3099 31.9757 16.3294L32.9108 15.7259C32.8841 15.7102 32.8973 15.717 32.8715 15.7051C32.8141 15.6644 32.7613 15.617 32.7096 15.5693C32.6941 15.5582 32.6535 15.5281 32.6374 15.5195C32.5541 15.4751 32.4593 15.4535 32.3707 15.4232C32.0522 15.3153 31.7349 15.2027 31.4221 15.0791C31.1426 14.971 30.8693 14.8491 30.6007 14.7163L29.6841 15.3382V15.3382Z" fill="white"/>
<path d="M31.0462 14.6009C31.2318 14.4471 31.4048 14.2781 31.5773 14.1097C31.7798 13.9285 31.9565 13.7226 32.1279 13.5126C32.2024 13.4251 32.2803 13.3405 32.3632 13.261C32.4772 13.1516 32.3403 13.2906 32.4354 13.1929L31.4142 13.6171C31.3157 13.7166 31.2265 13.8248 31.1391 13.9341C30.9716 14.1408 30.791 14.3358 30.594 14.5151C30.4894 14.6153 30.3843 14.7145 30.2753 14.8099C30.0788 14.982 30.2664 14.8163 30.0868 14.9682C30.0651 14.9866 30.0442 15.0059 30.0229 15.0247L31.0462 14.6009V14.6009Z" fill="white"/>
<path d="M33.0203 13.3925C33.0992 13.6915 33.1642 13.9938 33.2414 14.2933C33.3306 14.6306 33.3956 14.9735 33.4599 15.3163C33.496 15.4879 33.5202 15.6619 33.5389 15.8362C33.5534 15.9399 33.5643 16.0438 33.5814 16.1471C33.6029 16.2401 33.6253 16.3324 33.6381 16.427C33.639 16.4304 33.6514 16.4912 33.6552 16.499C33.8445 16.8912 34.4574 16.0998 34.6565 15.968C34.6727 15.9572 34.6504 15.9295 34.6481 15.9102C34.645 15.8836 34.6429 15.8569 34.6403 15.8302C34.6249 15.6034 34.6237 15.376 34.6227 15.1488C34.6239 14.9444 34.623 14.74 34.6244 14.5356C34.6319 14.4014 34.6411 14.2605 34.695 14.1354C34.7057 14.1104 34.7195 14.0869 34.7318 14.0627C34.7912 13.971 34.871 13.8978 34.9608 13.8368C34.9827 13.822 35.0503 13.7803 35.0274 13.7936C34.7392 13.9605 34.4524 14.1297 34.1648 14.2978C34.26 14.2421 34.3628 14.2021 34.47 14.1773C34.546 14.163 34.6223 14.1578 34.6987 14.1706C34.7731 14.1885 34.8448 14.2147 34.913 14.249L35.8384 13.6382C35.7631 13.6033 35.69 13.5641 35.6085 13.5442C35.5218 13.5148 35.445 13.5002 35.3532 13.5137C35.2339 13.5255 35.1214 13.5611 35.0127 13.6117C34.6797 13.8059 34.3449 13.997 34.0136 14.1941C33.9903 14.208 33.9701 14.2266 33.9496 14.2443C33.8625 14.3195 33.7913 14.4112 33.743 14.5158C33.732 14.5441 33.7196 14.5718 33.7101 14.6007C33.6653 14.738 33.6605 14.8844 33.6592 15.0275C33.6606 15.231 33.66 15.4345 33.6649 15.638C33.6684 15.8674 33.6744 16.0969 33.6702 16.3264C33.6685 16.3537 33.6682 16.3813 33.6647 16.4085C33.6628 16.4231 33.641 16.458 33.6541 16.4512C34.6097 15.9602 34.4864 15.5764 34.6304 15.9646C34.6371 15.9825 34.5956 15.8748 34.6141 15.9096C34.5961 15.8163 34.5765 15.7233 34.5575 15.6302C34.542 15.5291 34.524 15.4284 34.5071 15.3275C34.4819 15.1527 34.4502 14.9784 34.406 14.8074C34.3169 14.4734 34.2315 14.1384 34.1515 13.8021C34.1074 13.6071 34.0665 13.4134 34.038 13.2154C34.0281 13.1463 34.0122 13.0283 34.0087 12.9539C34.0076 12.932 34.0098 12.9101 34.0101 12.8882L33.0203 13.3925L33.0203 13.3925Z" fill="white"/>
<path d="M4.18877 30.7672C4.18645 30.767 4.19223 30.7935 4.19501 30.8031C4.19568 30.8053 4.20165 30.8095 4.20126 30.807C4.19972 30.7975 4.1974 30.7882 4.19559 30.7788C4.19377 30.7756 4.19204 30.7723 4.19022 30.7691C4.18955 30.7679 4.1891 30.7672 4.18877 30.7672V30.7672Z" fill="#D38D5F"/>
<path d="M15.1415 3.20734C15.0339 3.20835 14.9262 3.20667 14.8187 3.2104C14.7942 3.21125 14.7701 3.217 14.746 3.22113C14.6465 3.23814 14.5474 3.26077 14.4531 3.29758C14.4196 3.31063 14.3876 3.32705 14.3549 3.34178C14.3264 3.36248 14.295 3.37968 14.2694 3.40386C14.18 3.48821 14.1331 3.60709 14.1302 3.72928C14.1273 3.85049 14.1564 3.93011 14.1859 4.04735C14.24 4.22079 14.3162 4.386 14.3763 4.55726C14.4064 4.64281 14.4475 4.75707 14.4484 4.85097C14.4488 4.89029 14.4352 4.9285 14.4286 4.96727C14.4042 4.99609 14.3854 5.0308 14.3554 5.05374C14.2492 5.135 14.1081 5.14011 13.9817 5.15004L14.2414 5.18867C14.3714 5.17425 14.5146 5.16297 14.6187 5.07129C14.6497 5.04396 14.6675 5.00457 14.692 4.97121C14.6975 4.92969 14.7099 4.88851 14.7085 4.84664C14.7054 4.74993 14.6634 4.6364 14.6316 4.54797C14.5706 4.37822 14.4944 4.21417 14.4421 4.0412C14.415 3.92695 14.3878 3.85108 14.3927 3.73364C14.3975 3.61635 14.4454 3.50682 14.5341 3.42937C14.5597 3.40702 14.5905 3.39143 14.6187 3.37246C14.6512 3.3586 14.683 3.34304 14.7161 3.33088C14.7828 3.30642 14.8522 3.28914 14.9218 3.27531C14.9521 3.26928 14.9827 3.2643 15.0133 3.26006C15.0386 3.25656 15.1148 3.25367 15.0893 3.25208C15.0152 3.24745 14.9408 3.25127 14.8666 3.25087L15.1415 3.20734L15.1415 3.20734Z" fill="white"/>
<path d="M19.6541 2.27943C19.547 2.28044 19.4398 2.27938 19.3327 2.28246C19.252 2.28479 19.1691 2.31341 19.1118 2.37275C19.0442 2.44273 19.05 2.47302 19.0248 2.56712C19.0232 2.61393 19.0179 2.66077 19.0201 2.70755C19.0255 2.81783 19.0526 2.94643 19.0748 3.05333C19.0843 3.09934 19.1433 3.3619 19.1529 3.41199C19.1625 3.46193 19.1693 3.51236 19.1776 3.56255C19.1833 3.64931 19.2035 3.81411 19.1033 3.8652C19.0678 3.88326 19.0148 3.87816 18.9789 3.87853C19.0393 3.8774 19.0997 3.87628 19.1601 3.87516L18.8945 3.9162C19.0116 3.91721 19.1288 3.91819 19.2459 3.91922C19.2973 3.91385 19.3335 3.91876 19.3757 3.88647C19.4698 3.81451 19.4465 3.65627 19.4363 3.55805C19.4268 3.50752 19.4183 3.45681 19.4079 3.40647C19.3583 3.1666 19.3782 3.29488 19.3292 3.0486C19.3082 2.94288 19.2839 2.81778 19.2812 2.70877C19.2801 2.66397 19.2866 2.61931 19.2893 2.57457C19.3002 2.53998 19.3054 2.50309 19.3218 2.47078C19.3632 2.38958 19.4449 2.34677 19.5305 2.33034C19.5545 2.32574 19.6279 2.32534 19.6035 2.32414C19.5289 2.32047 19.4542 2.32333 19.3795 2.32291L19.6541 2.27942L19.6541 2.27943Z" fill="white"/>
<path d="M6.792 29.5391C6.79513 29.5368 6.99167 29.4186 6.99252 29.4186C6.99296 29.4186 6.99328 29.4194 6.99311 29.4204C6.99281 29.4223 6.96986 29.4381 6.94198 29.4555C6.91098 29.4748 6.86228 29.5025 6.81037 29.5304C6.79286 29.5398 6.78825 29.542 6.79197 29.5391L6.792 29.5391Z" fill="white"/>
<path d="M6.77979 29.5463C6.77978 29.5461 6.79092 29.5391 6.79129 29.5391C6.79137 29.5391 6.79122 29.5394 6.79092 29.5397C6.79033 29.5404 6.79025 29.5404 6.79255 29.5398C6.79292 29.5397 6.79033 29.5411 6.78675 29.543C6.78057 29.5461 6.77979 29.5465 6.77979 29.5462L6.77979 29.5463Z" fill="white"/>
</svg>
