<?xml version="1.0" encoding="UTF-8" standalone="no"?>
<!-- Created with Inkscape (http://www.inkscape.org/) -->

<svg
   width="210mm"
   height="297mm"
   viewBox="0 0 210 297"
   version="1.1"
   id="svg5"
   sodipodi:docname="Deg-logo final.svg"
   inkscape:version="1.1 (c68e22c387, 2021-05-23)"
   xmlns:inkscape="http://www.inkscape.org/namespaces/inkscape"
   xmlns:sodipodi="http://sodipodi.sourceforge.net/DTD/sodipodi-0.dtd"
   xmlns="http://www.w3.org/2000/svg"
   xmlns:svg="http://www.w3.org/2000/svg">
  <sodipodi:namedview
     id="namedview7"
     pagecolor="#ffffff"
     bordercolor="#666666"
     borderopacity="1.0"
     inkscape:pageshadow="2"
     inkscape:pageopacity="0.0"
     inkscape:pagecheckerboard="0"
     inkscape:document-units="mm"
     showgrid="false"
     inkscape:zoom="0.35355339"
     inkscape:cx="-145.664"
     inkscape:cy="456.79098"
     inkscape:window-width="1920"
     inkscape:window-height="1017"
     inkscape:window-x="-8"
     inkscape:window-y="-8"
     inkscape:window-maximized="1"
     inkscape:current-layer="layer1" />
  <defs
     id="defs2">
    <clipPath
       clipPathUnits="userSpaceOnUse"
       id="clipPath10450">
      <path
         id="path10452"
         style="fill:#ff0000;fill-opacity:1;fill-rule:nonzero;stroke:none"
         d="M 471.93555,388.5332 V 553.03711 H 627.58398 V 388.5332 Z m 100.93359,26.19532 c 0.49501,-0.0122 1.09396,0.26502 1.65234,0.94921 0.0607,0.0744 0.0912,0.11735 0.12891,0.15821 0.0612,0.024 0.11788,0.0562 0.17773,0.082 0.24273,0.10998 0.1899,0.0817 0.50586,0.25781 0.0714,0.0397 0.13756,0.0861 0.20899,0.125 0.14283,0.0779 0.29413,0.13868 0.44531,0.19727 0.19975,0.0718 0.15706,0.0518 0.44922,0.19922 0.068,0.0344 0.13157,0.0793 0.19922,0.11328 0.0729,0.0374 0.15601,0.0636 0.23047,0.0976 0.0862,0.0404 0.17044,0.085 0.25586,0.12696 0.17174,0.0979 0.3531,0.17227 0.52734,0.26562 0.0427,0.0231 0.0824,0.0553 0.12695,0.0742 0.017,0.009 -0.0279,-0.0238 -0.043,-0.0352 0.18254,0.0397 0.35002,0.13176 0.52539,0.19336 0.0983,0.0344 0.20068,0.0591 0.30273,0.0742 0.21233,0.0287 0.60934,0.13832 0.77148,0.2793 0.17269,0.14978 0.31027,0.33573 0.46485,0.5039 1.82173,1.98116 -4.23017,-0.66204 -2.38867,1.30079 0.4255,0.45327 0.28434,0.41856 0.67382,0.58789 0.002,0.001 0.004,9.3e-4 0.006,0.002 0.0352,0.005 0.0705,0.0122 0.10547,0.0195 v 0.002 c -0.008,1.6e-4 -0.0383,-0.004 -0.0488,-0.006 -0.0203,-0.003 -0.0385,-0.007 -0.0566,-0.0156 -0.0192,-0.003 -0.0374,-0.005 -0.0566,-0.008 -0.0854,-0.0197 -0.17119,-0.0338 -0.25586,-0.0527 -0.16255,-0.0385 -0.3749,-0.108 -0.52343,-0.16015 -0.0979,-0.034 -0.19118,-0.0812 -0.28907,-0.11524 -0.065,-0.023 -0.12954,-0.0398 -0.19531,-0.0625 -0.1183,-0.051 -0.23792,-0.10138 -0.35547,-0.15429 -0.0333,-0.0151 -0.0597,-0.0415 -0.0937,-0.0566 -0.13927,-0.0688 -0.28606,-0.12231 -0.41797,-0.20508 -0.24982,-0.13191 0.0562,0.0252 -0.30664,-0.14453 -0.10431,-0.0488 -0.20812,-0.0983 -0.31054,-0.15039 -0.0446,-0.0227 -0.0812,-0.0612 -0.12696,-0.0801 -0.0601,-0.0268 -0.12198,-0.0457 -0.18359,-0.0684 -0.0975,-0.0401 -0.19621,-0.0791 -0.29297,-0.1211 -0.16101,-0.0699 -0.39109,-0.18814 -0.5332,-0.26562 -0.18558,-0.10129 -0.0749,-0.061 -0.28321,-0.16797 -0.0548,-0.0284 -0.11203,-0.0497 -0.16796,-0.0762 -0.1135,-0.0522 -0.31341,-0.13894 -0.42188,-0.20508 -0.0964,-0.0586 -0.19092,-0.12142 -0.28125,-0.18945 -0.21895,-0.16506 -0.40691,-0.38683 -0.57812,-0.59961 v -0.002 c -1.1331,-1.40927 -0.56047,-2.64307 0.45312,-2.66796 z m 1.79102,1.11523 c 0.0206,0.0214 0.0431,0.0427 0.0762,0.0684 0.002,0.004 0.003,-0.002 0.002,-0.004 -0.0125,-0.014 -0.0239,-0.0277 -0.0391,-0.0391 -0.008,-0.006 -0.0252,-0.0174 -0.0391,-0.0254 z" />
    </clipPath>
  </defs>
  <g
     inkscape:label="Lager 1"
     inkscape:groupmode="layer"
     id="layer1">
    <path
       style="fill:#000000;stroke-width:0.464111"
       id="path1260"
       d="m 33.574919,167.15602 c -0.380346,-5.35022 -0.414785,-10.73719 -0.474282,-16.10971 0.160269,-6.50585 1.398964,-12.94534 3.494949,-18.73342 0.413414,-1.14163 0.898741,-2.22757 1.348108,-3.34133 1.900763,-4.17774 4.306903,-7.85709 7.183447,-10.70627 0.656311,-0.65006 2.696818,-2.44509 2.04043,-1.7952 -0.885816,0.87707 -1.819641,1.65162 -2.729464,2.47741 3.960113,-2.49105 8.2344,-3.2039 12.519963,-3.08249 2.659641,0.27813 5.293804,1.02083 7.726785,2.62226 1.25828,0.82825 1.713815,1.37084 2.839954,2.47224 2.891201,3.07227 4.478104,7.11427 5.927963,11.69815 1.526694,5.75281 2.041523,11.91364 2.469932,17.99562 0.36161,6.08022 0.382745,12.18709 0.398326,18.28478 -0.0019,5.46419 -0.01412,10.92836 -0.02825,16.39249 0.03203,4.55294 -0.09404,9.11074 0.04929,13.66027 0.207841,3.68617 0.713755,7.32281 1.536942,10.82794 0.631003,2.1946 1.162356,4.52247 2.108707,6.50176 0.571032,1.19434 1.214204,2.09946 1.901149,3.15019 3.009613,4.09561 6.01822,5.263 9.98015,6.46099 2.701365,0.6186 5.428825,1.30409 8.171152,1.43392 1.63057,0.0774 2.25092,-0.0705 3.89145,-0.2701 4.25714,-0.72226 8.25768,-2.77782 12.12199,-5.32527 3.43156,-2.76664 6.99662,-5.33762 10.03633,-8.96446 1.47082,-1.75498 2.78347,-3.72454 4.08113,-5.72911 2.93092,-4.66085 4.72685,-10.4213 6.22565,-16.22981 1.70333,-6.82243 2.37938,-13.98232 2.82386,-21.15497 0.28846,-6.14936 0.54844,-12.31177 0.207,-18.46385 -0.30952,-5.28081 -1.70271,-10.16623 -3.2203,-14.93899 -2.00147,-5.66488 -4.09761,-11.26299 -5.90197,-17.06371 -0.97232,-3.021 -1.47166,-6.23189 -1.6509,-9.52653 -0.0294,-3.32977 1.07329,-6.2844 2.2715,-9.039 1.17647,-2.138879 2.58859,-3.953101 4.17023,-5.467345 0.41505,-0.397368 1.70409,-1.492199 1.27538,-1.125452 -1.1428,0.977651 -2.27846,1.972117 -3.41768,2.958167 3.69841,-2.413146 7.70802,-3.52905 11.70558,-4.386442 4.71528,-0.855949 9.47087,-1.035741 14.21434,-0.721528 5.49461,0.581065 10.82094,2.6459 16.1657,4.409741 0.93458,0.264612 1.86916,0.529194 2.80373,0.793807 0,0 4.58159,-4.546563 4.58159,-4.546563 v 0 c -0.93146,-0.256921 -1.86295,-0.513841 -2.79443,-0.770746 -5.36033,-1.759287 -10.68863,-3.877849 -16.19061,-4.557276 -4.7571,-0.368942 -9.52494,-0.230321 -14.26028,0.57632 -4.00807,0.792009 -8.02276,1.865341 -11.76744,4.125869 -4.30808,3.427432 -8.80714,6.198322 -11.74302,12.027108 -1.19821,2.93003 -2.24819,6.04972 -2.15152,9.52878 0.22934,3.3645 0.80388,6.63566 1.83271,9.6991 1.86109,5.76123 3.9875,11.33626 5.90967,17.05496 1.4657,4.70584 2.83636,9.50839 3.11679,14.7027 0.32688,6.09054 0.11606,12.20162 -0.1742,18.28922 -0.45928,7.12144 -1.18944,14.22565 -2.91686,20.98064 -1.5382,5.75121 -3.37816,11.41335 -6.36018,15.96813 -1.78026,2.67903 -3.60926,5.22681 -5.73675,7.35464 -0.57084,0.57095 -2.39116,2.0278 -1.75159,1.63092 1.06852,-0.6631 2.03294,-1.62418 3.04939,-2.43629 -3.81973,2.60383 -7.76767,4.7354 -11.99465,5.53988 -1.45853,0.208 -2.36586,0.40089 -3.82504,0.36578 -2.73522,-0.0658 -5.461967,-0.73402 -8.158017,-1.31339 -3.839374,-1.1374 -6.786063,-2.15178 -9.720856,-6.11144 -0.651104,-0.98001 -1.290187,-1.85986 -1.821987,-2.98698 -0.916227,-1.94187 -1.433898,-4.22725 -2.043593,-6.37531 -0.797625,-3.43482 -1.291493,-6.9988 -1.486959,-10.60797 -0.127413,-4.53394 -0.03529,-9.07375 -0.06281,-13.61032 -0.0027,-5.45552 0.0068,-10.91108 -0.01596,-16.36655 -0.02999,-6.12276 -0.01715,-12.25885 -0.413855,-18.36146 -0.456167,-6.16178 -1.00639,-12.39438 -2.549407,-18.22608 -1.506832,-4.82704 -3.044415,-8.82482 -6.054358,-12.10382 -1.132499,-1.12777 -1.663363,-1.75341 -2.929926,-2.61067 -2.468781,-1.671 -5.149054,-2.46779 -7.854762,-2.83913 -4.33444,-0.22351 -8.663987,0.42906 -12.711793,2.79647 -1.600668,1.25684 -6.540008,4.81508 -8.927565,7.30032 -2.849002,2.96556 -5.223571,6.72294 -7.083996,10.98228 -0.441649,1.13509 -0.919748,2.24294 -1.324946,3.40522 -2.063805,5.91988 -3.262125,12.46913 -3.418555,19.06973 0.0538,5.43177 0.08226,10.86983 0.331833,16.29213 0,0 5.155653,-3.83095 5.155653,-3.83095 z" />
    <path
       style="fill:#000000;stroke-width:0.464111"
       id="path1264"
       d="m 109.5684,77.440726 c 0.54116,-0.297414 -3.98481,3.725952 -3.00449,2.760678 0.78874,-0.776669 3.30087,-1.58754 2.43635,-2.17864 -0.97313,-0.665369 -1.96868,1.267565 -2.9795,1.807281 -3.16212,1.688319 -4.33762,1.962893 -7.704647,3.181224 -5.688783,1.46087 -11.760079,3.697247 -17.591589,2.804679 -0.857264,-0.131296 -1.697763,-0.429815 -2.546641,-0.644709 -3.539104,-1.444617 -7.159737,-3.829248 -9.28607,-8.333534 -0.38386,-0.813141 -0.650502,-1.726692 -0.975753,-2.590037 -0.213755,-1.029301 -0.528072,-2.026713 -0.641269,-3.087859 -0.646633,-6.061735 1.136888,-12.070206 3.780649,-16.697166 0.966605,-1.691707 2.118381,-3.150903 3.177567,-4.726328 4.809668,-5.595952 3.060899,-3.851862 8.360371,-8.81468 0.02253,-0.0211 0.05557,0.032 0.08005,0.01556 1.582476,-1.032581 3.126575,-2.186079 4.729083,-3.154068 4.099346,-2.476213 5.151878,-2.734958 9.370132,-4.505852 4.639867,-1.394623 9.808347,-3.502017 14.577137,-1.90563 2.03895,0.682558 2.33309,1.267219 3.97186,2.864106 0.42895,0.70307 0.91543,1.34269 1.28683,2.109226 2.02148,4.172139 1.94322,8.560672 1.70736,13.349465 -0.37695,3.452209 -0.90562,6.928092 -1.93086,10.124096 -0.57744,1.80007 -0.94779,2.509663 -1.68693,4.173755 -1.9044,3.695316 -3.88893,7.328431 -6.06833,10.704981 -0.38364,0.456723 -0.74589,0.952497 -1.15092,1.370171 -0.41748,0.430538 -1.75652,1.537349 -1.31079,1.16854 1.16792,-0.966364 2.38053,-1.840113 3.47786,-2.961602 0.45743,-0.467495 -1.02638,0.660227 -1.54186,0.983002 -1.14463,0.716619 -1.97741,1.210006 -3.12923,1.902342 0,0 -4.47836,5.029709 -4.47836,5.029709 v 0 c 4.71216,-2.807406 9.63315,-5.615858 13.4073,-10.64536 2.14906,-3.436937 4.16835,-7.054934 6.01287,-10.833416 0.7449,-1.769907 1.06762,-2.402317 1.64222,-4.311213 0.98572,-3.274672 1.4837,-6.813349 1.82818,-10.323196 0.21197,-5.004687 0.18071,-9.566121 -1.92234,-13.89781 -0.39895,-0.821702 -0.91643,-1.513052 -1.37461,-2.269581 -1.71505,-1.716431 -2.04102,-2.360862 -4.17956,-3.12039 -4.80707,-1.707276 -10.18647,0.425866 -14.87949,1.817653 -1.563837,0.641375 -3.146387,1.196697 -4.691527,1.924119 -6.803776,3.203115 -12.551211,7.808163 -18.705192,13.158893 -1.524732,1.325706 -2.997231,2.776946 -4.423251,4.30907 -1.371589,1.473669 -2.640123,3.132139 -3.960188,4.698208 -1.068583,1.63085 -2.234857,3.142343 -3.205755,4.892518 -2.70381,4.874014 -4.422833,11.140372 -3.720236,17.419505 0.124721,1.114592 0.452911,2.163286 0.679364,3.244929 0.3428,0.911119 0.624369,1.874522 1.028397,2.733283 2.191901,4.658997 5.900873,7.18704 9.547681,8.757575 0.87002,0.236864 1.730539,0.560789 2.61006,0.710579 5.899498,1.004735 12.038341,-1.344502 17.805089,-2.745058 3.487971,-1.189878 7.410138,-2.344846 10.636008,-4.697415 2.45022,-1.786885 4.8239,-3.779485 7.21548,-5.720657 1.47357,-1.196037 1.81157,-1.608996 3.09165,-2.928078 0,0 -5.37017,3.076645 -5.37017,3.076645 z" />
    <path
       id="path1274"
       style="fill:#000000;stroke-width:0.464111"
       d="m 16.792425,152.10541 c -4.714571,3.28039 -5.497922,2.66672 -5.645018,7.82902 -0.0337,1.77377 -0.01479,3.54833 -0.0099,5.32247 -0.0083,1.6168 -0.04653,3.21162 0.176287,4.80121 0.25217,1.02603 0.656708,1.94445 1.104079,2.81803 -2.296615,0.52379 -3.5563264,2.28296 -6.0127944,4.6001 -0.1296,0.1223 -0.07259,0.44383 -0.04179,0.6607 0.02139,0.15081 0.05685,0.28357 0.101067,0.40659 0.120399,0.33504 0.310571,0.59077 0.491631,0.88673 0.920969,1.19538 2.06557,1.83891 3.2096604,2.46658 -2.6522144,1.32971 -5.6779984,2.65877 -7.0158133,6.20916 -0.472391,1.49449 -0.038928,2.76829 0.672478,3.89396 0.9391299,1.12947 2.1372409,1.52082 3.3213599,1.7821 1.842104,0.24574 3.6962444,0.339 5.5401614,0.10474 1.4303,-0.17893 2.71048,-0.98477 3.982438,-1.8632 1.236444,-0.90118 2.441386,-1.87908 3.638986,-2.87749 2.559749,-2.11124 5.223969,-4.12122 7.610026,-6.63089 0.841317,-0.58813 1.23395,-1.75462 1.632185,-2.89155 0.352309,-1.12278 0.644761,-2.273 0.971866,-3.41711 0.274965,0.73757 0.521572,1.49851 0.778858,2.24816 0.535091,1.56052 0.687385,3.29122 0.788736,5.0002 0.105517,1.77302 0.09785,3.51029 -0.164128,5.25109 -0.836873,2.85795 -2.165187,5.35675 -3.421662,7.86254 -1.287392,2.67602 -3.0333,4.79476 -4.784856,6.83419 -1.912149,2.39764 -3.889561,4.69327 -5.931492,6.8634 -1.91709,1.92731 -3.621081,4.17442 -5.160986,6.68604 -1.78493,2.69053 -3.0667354,5.90861 -4.1161794,9.26941 -0.67046,2.61745 -1.104286,5.3424 -1.356355,8.10153 -0.292045,3.14013 0.297001,6.1891 1.002258,9.13424 0.670653,2.40674 1.665919,4.57545 2.5782174,6.80174 1.165388,2.33446 2.066022,5.01216 3.525764,7.0245 0.349095,0.48129 0.74014,0.89783 1.110157,1.34632 2.965362,3.03645 6.472396,4.5688 10.020312,5.52358 2.581668,0.50592 5.234105,0.8922 7.831147,0.31141 1.900283,-0.42496 3.080007,-1.0526 4.924669,-1.86533 5.676338,-3.30136 11.31391,-7.41359 15.598464,-13.75381 2.108182,-3.51899 3.3703,-7.76941 4.379849,-12.11337 0.888831,-4.25684 1.56557,-8.61603 1.958168,-13.0228 0.302304,-4.74636 0.286283,-9.52252 0.303946,-14.28477 0.03903,-4.44593 -0.170633,-8.91255 -0.765942,-13.27908 -0.597405,-4.14265 -1.396365,-8.22063 -2.389011,-12.2053 -0.869818,-3.28035 -1.798152,-5.79948 -3.658737,-8.13183 -2.146539,-1.99037 -4.521699,-3.38789 -6.959586,-4.46489 -2.701028,-1.11138 -5.440981,-1.97358 -8.224752,-2.525 -1.489404,-0.34648 -3.245734,-0.12939 -4.412526,-1.68259 -0.392399,-0.7973 -0.224645,-0.36455 -0.495431,-1.30305 l -5.075123,4.05079 c 0.343127,1.13646 0.137332,0.60951 0.60789,1.58743 0.145637,0.21336 0.277689,0.42143 0.418685,0.61312 -0.57227,0.62348 -1.126331,1.24653 -1.644343,1.72909 -0.612908,0.69629 -1.169336,1.41957 -1.509847,2.45468 -0.390661,1.06948 -0.72098,2.18588 -1.025054,3.31005 -0.337726,1.15321 -0.612854,2.34102 -1.033413,3.44304 -0.451597,1.06661 -0.917433,1.94669 -1.72337,2.5293 -0.482646,0.44578 -1.126719,1.0527 -1.698291,1.60366 -1.107061,0.78835 -2.208507,1.56744 -3.457377,1.8156 -1.814633,0.29883 -3.630153,0.28283 -5.451256,0.0464 -1.080597,-0.18166 -2.1580974,-0.44947 -3.0774464,-1.33981 -0.425878,-0.59881 -0.661532,-1.21201 -0.601051,-1.89671 0.949115,-0.3602 1.9048084,-0.68122 2.8821594,-0.86399 2.251497,-0.31862 8.854749,-1.56943 7.632063,-5.73769 -0.960186,-1.06266 -2.339924,-0.91596 -3.405707,-1.69559 -0.04591,-0.0258 -0.09227,-0.0501 -0.138291,-0.0758 2.109521,-0.41456 4.155137,-1.54345 4.439116,-4.65309 -0.235974,-1.44112 -1.250764,-2.29849 -1.838108,-3.45385 -0.537162,-0.95502 -1.035822,-1.98693 -1.31912,-3.15108 -0.198031,-1.53835 -0.125901,-3.09382 -0.142856,-4.65201 -7.78e-4,-0.17944 -6.2e-5,-0.35906 -7.78e-4,-0.53852 0.532336,0.67947 1.072715,1.3458 1.617748,1.99943 2.03683,2.75515 4.103812,5.46991 5.998357,8.4292 l 4.976339,-4.2746 c -1.991363,-2.86639 -4.050626,-5.63252 -6.08194,-8.44002 -1.27122,-1.56156 -2.509325,-3.19039 -3.65722,-4.93641 -0.634547,-0.98709 -1.425378,-1.6489 -2.377612,-1.63069 z m 19.481363,21.9905 c 1.886153,0.47901 3.7516,1.10344 5.59943,1.85021 2.381981,0.99928 4.668999,2.37691 6.800772,4.20215 1.781701,2.14741 2.702834,4.66763 3.537163,7.74361 0.992714,3.94288 1.761473,7.98661 2.354814,12.08958 0.566413,4.32249 0.762081,8.72846 0.736307,13.12339 -0.01599,4.74073 -0.0079,9.49637 -0.366255,14.21554 -0.413793,4.35262 -1.055488,8.6719 -1.984761,12.86276 -1.040692,4.25189 -2.325039,8.40341 -4.478632,11.77599 -1.081943,1.52417 -1.335704,1.97746 -2.568335,3.31006 -0.365184,0.39479 -1.256008,1.14081 -1.60711,1.48686 -1.279592,0.97584 -2.356217,1.73665 -1.718811,0.95592 -1.64787,0.75971 -3.09296,1.52076 -4.800811,1.95079 -2.555764,0.64351 -5.174128,0.31983 -7.724766,-0.1515 -3.468615,-0.85902 -6.917272,-2.25734 -9.821226,-5.20349 -0.86851,-1.03522 -1.215791,-1.33866 -1.912576,-2.58446 -0.972501,-1.73873 -1.689061,-3.75958 -2.576697,-5.58197 -0.882815,-2.18681 -1.859626,-4.30705 -2.54402,-6.64278 -0.674911,-2.8481 -1.188037,-5.79156 -0.852567,-8.81416 0.275112,-2.68142 0.695921,-5.34423 1.399668,-7.86905 1.073478,-3.29986 2.401005,-6.4082 4.184566,-9.03906 1.574387,-2.43693 3.304694,-4.61754 5.202782,-6.53899 2.024144,-2.20693 3.994432,-4.51152 5.915533,-6.89799 1.7433,-2.11397 3.477404,-4.2703 4.732424,-7.03317 1.271489,-2.587 2.682705,-5.16149 3.360114,-8.20533 0.225214,-1.81752 0.234184,-3.63651 0.105613,-5.47385 -0.129482,-1.80061 -0.32258,-3.6165 -0.883718,-5.26188 -0.02992,-0.0894 -0.05918,-0.1797 -0.08891,-0.26927 z m -22.080094,1.73556 c 0.168677,0.33014 0.270693,0.60596 0.210482,0.72886 -1.027141,-0.28939 -1.036886,-0.27926 -0.210482,-0.72886 z" />
    <path
       id="path1370"
       style="fill:#000000;stroke-width:0.464111"
       d="m 45.917207,193.37112 c -1.209135,0.0291 -2.369717,0.52535 -3.505244,1.07163 -1.334364,0.70892 -2.598775,1.65362 -3.865423,2.57366 -2.273249,1.6238 -4.445081,3.54215 -6.631323,5.37434 -0.640297,0.53661 -1.222425,1.19721 -1.787959,1.87723 -0.821367,1.0984 -1.5195,2.40406 -1.975642,3.87774 -0.07681,0.24812 -0.136668,0.50616 -0.205165,0.75912 -0.239129,1.11974 -0.410249,2.31557 -0.224158,3.47982 0.03629,0.22709 0.09681,0.4447 0.145134,0.6672 0.528606,1.75037 1.561182,3.03251 2.506029,4.32758 1.432921,1.99437 3.059269,3.66594 4.672395,5.34624 1.769576,1.85581 3.519507,3.75172 5.151111,5.85017 0.742369,1.08289 1.561222,2.13452 2.117738,3.44196 0.08302,0.19503 0.149011,0.40359 0.223397,0.60556 0.414438,1.4582 0.443341,3.04023 0.394371,4.5893 -0.139987,1.55457 -0.53662,3.04158 -1.078247,4.40113 -0.122956,0.30864 -0.260963,0.60483 -0.39133,0.90725 -0.190553,0.41429 -0.39825,0.81378 -0.623086,1.19275 -1.08313,0.42285 -2.203601,0.64885 -3.327441,0.71477 -0.354386,0.0209 -0.709125,0.008 -1.063806,0.0118 -1.171029,-0.0408 -2.340057,-0.22046 -3.479413,-0.6153 -0.701779,-0.2432 -1.037615,-0.41813 -1.733248,-0.73638 -1.40464,-0.77053 -2.802796,-1.63172 -4.090339,-2.75208 -0.236528,-0.20591 -0.46462,-0.43107 -0.696797,-0.64667 -1.073132,-0.99639 -2.04078,-2.20964 -2.822128,-3.65931 -0.122456,-0.22717 -0.230908,-0.46959 -0.3465,-0.70396 l -4.837284,4.07996 c 0.952872,1.74408 2.032022,3.33304 3.350235,4.52765 0.641843,0.61529 0.783717,0.78471 1.467294,1.30737 1.106539,0.84602 2.275825,1.52508 3.428501,2.22868 0.848961,0.44022 1.69428,0.86583 2.581256,1.12893 0.688014,0.20402 1.0572,0.24933 1.76364,0.31576 0.338154,0.0319 0.676693,0.0477 1.015179,0.0715 0.75478,0.0173 1.390541,0.0553 2.144333,-0.0228 1.32098,-0.13631 2.633625,-0.50959 3.881377,-1.14083 1.855041,-1.462 3.718131,-2.90376 5.565233,-4.38598 0.522769,-0.4195 0.971189,-0.87455 1.411827,-1.45336 0.593137,-0.77909 1.078077,-1.70506 1.498448,-2.68068 0.711486,-1.80396 1.309098,-3.61192 1.412585,-5.70958 0.0251,-1.68795 -0.04227,-3.41016 -0.508349,-4.98613 -0.08881,-0.22635 -0.167987,-0.46053 -0.265949,-0.67909 -0.607481,-1.35534 -1.507786,-2.39899 -2.318344,-3.49172 -1.702852,-2.03181 -3.508801,-3.87921 -5.266609,-5.81231 -1.550803,-1.70492 -3.112358,-3.4012 -4.499905,-5.37868 -0.853695,-1.21636 -1.782999,-2.4465 -2.234756,-4.0778 -0.03431,-0.18248 -0.08091,-0.36099 -0.103341,-0.54716 -0.125822,-1.04456 0.08121,-2.10967 0.315345,-3.08945 0.06936,-0.22666 0.131274,-0.45855 0.208204,-0.68017 0.478174,-1.37759 1.191688,-2.55965 2.015153,-3.54254 0.188045,-0.20437 0.267997,-0.29197 0.372337,-0.40549 0.763888,-0.55043 1.532645,-1.08625 2.32062,-1.56365 1.075088,-0.56085 2.176274,-1.08612 3.327436,-1.19274 0.954398,-0.0693 1.911413,-0.0173 2.865446,0.0487 0.728312,0.0677 1.453081,0.18041 2.178526,0.28979 l 4.730145,-4.79691 c -0.758317,-0.0189 -1.512392,-0.14426 -2.268191,-0.22167 -0.970224,-0.0663 -1.941958,-0.1009 -2.913314,-0.095 z"
       sodipodi:nodetypes="sccscscsccccsccsccccsccsscccscsscccsscccsccccscsccccccccss" />
    <path
       style="fill:#000000;stroke-width:0.464111"
       id="path1372"
       d="m 39.890143,192.0952 c -0.33868,1.70948 -0.733574,3.39513 -1.101404,5.09227 -0.571776,2.73715 -1.091529,5.49637 -1.583783,8.26446 -0.407906,2.32648 -0.812453,4.6563 -1.129338,7.01188 -0.248206,1.79121 -0.480197,3.58522 -0.682124,5.38806 -0.2824,2.4838 -0.616325,4.95533 -0.929639,7.43177 -0.139485,1.39821 -0.381962,2.76927 -0.568619,4.15429 -0.19293,1.43161 -0.34939,2.87594 -0.530099,4.31093 -0.357036,2.55409 -0.72486,5.10506 -1.070196,7.66243 -0.299712,2.43813 -0.578081,4.88155 -0.852178,7.3258 -0.209903,2.12199 -0.48739,4.22438 -0.814599,6.31509 -0.09886,0.75978 -0.191646,1.52056 -0.264616,2.28626 0,0 5.179243,-3.64384 5.179243,-3.64384 v 0 c 0.05502,-0.73428 0.137235,-1.46297 0.204473,-2.19509 0.187017,-2.06938 0.374857,-4.13907 0.627218,-6.19493 0.293823,-2.44942 0.602875,-4.89523 0.90353,-7.34302 0.32393,-2.53841 0.654914,-5.07493 0.98638,-7.61138 0.15173,-1.21413 0.209049,-1.70864 0.378726,-2.92143 0.06615,-0.47285 0.143409,-0.94253 0.206444,-1.41626 0.182418,-1.371 0.32392,-2.75385 0.516725,-4.12238 0.343823,-2.51436 0.735558,-5.01478 1.059712,-7.53448 0.233054,-1.78772 0.460717,-3.57696 0.674048,-5.36967 0.297386,-2.30744 0.642396,-4.60244 1.024026,-6.88459 0.49565,-2.77622 1.026897,-5.54165 1.662542,-8.26045 0.4194,-1.74476 0.813889,-3.51675 1.381598,-5.17759 0,0 -5.27807,3.43187 -5.27807,3.43187 z" />
    <path
       id="path1374"
       clip-path="url(#clipPath10450)"
       style="fill:#000000;stroke-width:0.999999"
       transform="matrix(0.38904976,0,0,0.55365573,-37.701894,-137.79178)"
       d="m 582.97461,388.53516 c -0.29999,-0.0132 -0.60685,0.0338 -0.9082,0.0332 -2.82486,1.61805 -13.14072,6.41677 -17.33399,10.76172 -0.91309,0.94613 -1.16875,1.40217 -1.91797,2.47461 -1.57761,2.93631 -2.61151,6.08443 -3.19726,9.36914 -0.45123,2.25734 -0.91934,4.51092 -1.38281,6.76562 -4.85958,1.60184 -8.88727,6.06152 -12.86329,9.21094 -1.2415,0.89843 -2.39337,1.92681 -3.7207,2.70899 -1.24619,0.81381 -2.36305,1.81094 -3.58398,2.66406 -1.17554,0.77152 -2.3264,1.58165 -3.51172,2.33789 -0.022,0.0125 -0.0444,0.0246 -0.0664,0.0371 -0.11941,0.0461 -1.08699,0.54691 -1.4668,0.73242 -2.20354,1.06885 -4.39671,2.12647 -6.63476,3.12109 -3.77095,1.84184 -7.88621,2.89127 -11.67383,4.71289 -8.2972,3.62249 -16.52635,7.53581 -23.80859,13.02735 -3.35396,2.60043 -6.63198,5.31089 -9.33203,8.61133 -3.12288,3.75874 -6.22002,7.6304 -7.50196,12.44726 -1.62126,5.81722 -2.39062,11.78781 -2.05859,17.83789 0.3863,7.30095 0.92501,14.66363 3.10742,21.6875 0.97671,2.81953 1.21969,3.84754 2.58984,6.50391 2.27475,4.41025 5.42146,8.34284 8.94727,11.80859 2.11223,1.92269 3.53776,3.31456 5.83594,5.02344 4.17634,3.10545 8.84236,5.5069 13.72461,7.2832 1.28557,0.42051 2.55858,0.88415 3.85742,1.26172 7.96501,2.3156 16.25425,3.25943 24.49805,3.88672 1.9014,0.0624 3.80073,0.17125 5.70312,0.1875 10.39321,0.09 20.81811,-0.74029 31.11914,-2.04102 1.74588,-0.34431 3.50563,-0.62762 5.23828,-1.0332 11.75845,-2.75244 22.72784,-8.28641 32.24805,-15.74414 0.80818,-0.75991 1.64789,-1.48654 2.42383,-2.2793 4.17925,-4.27003 7.45248,-9.32041 10.10351,-14.65234 3.1522,-6.47766 5.90735,-13.26403 6.16602,-20.56445 0.0869,-6.54441 -0.44351,-13.13188 -1.95899,-19.51172 -1.72032,-6.38472 -3.74155,-12.74411 -7.53711,-18.24219 -1.46756,-2.01762 -1.80922,-2.63946 -3.50585,-4.40234 -2.39483,-2.48837 -5.17774,-4.60368 -7.83985,-6.78711 -4.02909,-2.64563 -8.06476,-4.55296 -12.78906,-5.65235 -6.34575,-1.95337 -12.7626,-3.71161 -18.89844,-6.2832 -2.09992,-0.89364 -4.55059,-1.91742 -6.79883,-3.11328 2.76629,-0.0754 5.52873,-0.22189 8.28321,-0.5 3.5492,-0.37228 7.13032,-0.71859 10.58398,-1.65039 3.20058,-0.6875 6.38325,-1.4632 9.51758,-2.41016 7.45591,-2.13418 14.70896,-5.70689 20.51367,-10.88476 1.55407,-2.13532 1.67822,-3.98517 0.1582,-6.22461 -0.36963,-0.24265 -0.69835,-0.56551 -1.10937,-0.72852 -1.69357,-0.6717 -3.62431,0.1275 -5.28125,0.49805 -2.98636,0.66761 -1.87433,0.43335 -4.98242,0.99219 -2.25653,0.40501 -2.41417,0.45122 -4.55274,0.77539 -0.1024,0.0155 -0.2083,0.0192 -0.31445,0.0234 1.77968,-1.97407 3.16643,-4.24842 3.94922,-6.8164 0.66172,-3.06539 0.65448,-6.20895 -1.29492,-8.83399 -0.37569,-0.26985 -0.69406,-0.64108 -1.125,-0.80859 -0.91854,-0.35679 -2.18988,-0.14388 -3.01563,0.30664 -4.40239,2.40135 -8.74558,4.84314 -13.00195,7.43555 0.7488,-2.82859 1.33144,-5.68741 0.71875,-8.63477 -0.41344,-1.80542 -0.92817,-4.5039 -2.48633,-5.88867 -0.44438,0.27788 -1.42859,0.87289 -2.8125,1.70117 1.21489,-0.78206 2.23433,-1.39966 2.78906,-1.72265 -0.42241,-0.36922 -0.91804,-0.64825 -1.51172,-0.78125 -0.098,-0.0219 -0.19688,-0.0327 -0.29687,-0.0371 z m 1.80859,0.81836 c 0.008,0.007 0.0155,0.0144 0.0234,0.0215 0.55284,-0.3457 0.41702,-0.27795 -0.0234,-0.0215 z m -10.80664,11.32421 c 0.14632,0.6032 0.25426,1.17091 0.3418,1.56446 0.64025,3.44719 -0.69707,6.63215 -1.6582,9.85937 0.15307,0.91249 0.0459,1.59304 1.33789,1.88867 0.4648,0.10621 0.97404,-0.10778 1.39062,-0.33984 4.85189,-2.70138 9.59086,-5.59744 14.36524,-8.43359 0.17001,-0.101 0.3372,-0.20736 0.50586,-0.31055 0.28978,-0.0319 0.46312,0.0438 0.96679,0.19336 1.58166,2.08418 1.13185,4.76967 0.42969,7.08984 -1.08605,2.63743 -2.70403,4.95958 -4.97852,6.6875 -0.23244,0.18482 -0.61071,0.27066 -0.69726,0.55469 -0.0998,0.32769 -2.7e-4,0.7441 0.22265,1.00391 0.39383,0.45872 0.92472,0.84309 1.50586,1.00976 1.18878,0.34092 5.37911,-0.62978 6.57813,-0.8457 2.36519,-0.3738 4.69854,-0.91232 7.04687,-1.37305 1.40542,-0.2759 2.16911,-0.51656 3.49414,-0.0234 -0.0972,0.37513 -0.17489,0.69313 -0.25195,1.01172 -1.88724,0.50585 -3.78758,0.96705 -5.6914,1.40625 -3.46515,0.90856 -7.00791,1.42102 -10.56055,1.83594 -2.90238,0.31295 -5.81876,0.45582 -8.73633,0.51172 -2.45344,0.0673 -4.90743,0.0469 -7.36133,0.0254 -1.56204,-0.10545 -3.10076,0.14715 -4.64062,0.35938 l 2,-1.16211 c -0.60167,-0.97486 -1.29957,-1.85825 -2.14063,-2.64258 -0.80885,-0.75167 -1.68197,-1.49499 -2.63086,-2.09766 l 6.0293,-2.92383 c 0.47906,-3.61927 1.25705,-7.19902 2.02539,-10.76757 0.29356,-1.37773 0.65117,-2.74888 1.10742,-4.08204 z m 13.00196,3.67774 c -0.21317,0.20438 -0.48512,0.36459 -0.6836,0.58008 0.0204,-0.0742 0.0402,-0.14846 0.0605,-0.22266 0.20804,-0.1185 0.41484,-0.23921 0.62305,-0.35742 z m -34.53907,22.3418 c 0.84807,0.42643 1.61193,1.09554 2.30469,1.71484 0.40565,0.37178 0.77758,0.76746 1.11914,1.1875 -1.40393,0.95301 -2.93696,1.97023 -4.74805,3.01172 -0.62279,0.78693 -1.35973,2.116 -1.00585,3.17578 0.1417,0.42418 0.42843,0.78512 0.64257,1.17773 0.3617,0.37455 0.68188,0.79227 1.08399,1.12305 0.98634,0.81143 2.68559,1.75707 3.77148,2.3418 2.39165,1.28783 4.85377,2.39609 7.34766,3.46679 6.20413,2.48334 12.64098,4.30718 18.98242,6.39454 4.44408,1.18749 8.59567,2.97807 12.5,5.39062 3.33615,2.55133 6.73931,5.18442 9.43555,8.4375 0.60177,0.72609 1.14423,1.49872 1.71679,2.24805 3.7265,5.31689 5.73639,11.49088 7.35743,17.71093 1.40088,6.28555 1.93757,12.75106 1.70898,19.17969 -0.34091,7.11394 -3.1259,13.66984 -6.30078,19.93164 -2.68108,5.2673 -6.07599,10.20946 -10.35547,14.31641 -0.3269,0.31372 -0.67036,0.60848 -1.01367,0.9043 -4.6981,1.85464 -9.51058,3.02995 -14.43164,4.11523 -12.10564,2.02915 -24.42553,2.53622 -36.67774,2.16016 -8.11362,-0.53292 -16.24695,-1.52924 -24.07617,-3.80274 -1.26746,-0.36812 -2.5116,-0.81129 -3.76758,-1.21679 -4.77997,-1.70336 -9.36704,-3.98032 -13.47656,-6.97461 -2.30903,-1.68242 -3.59967,-2.94205 -5.7207,-4.84961 -3.44848,-3.33321 -6.49026,-7.15999 -8.66406,-11.45508 -1.24211,-2.45416 -1.55615,-3.67125 -2.44532,-6.27149 -2.1609,-6.9033 -2.6231,-14.14275 -2.91601,-21.32226 -0.20674,-5.95261 0.60605,-11.8202 2.43164,-17.47656 1.45723,-4.6122 4.6564,-8.35369 7.8125,-11.91797 1.98261,-2.27184 4.23674,-4.26209 6.59375,-6.12891 0.51775,-0.22891 1.03516,-0.45878 1.55273,-0.6875 3.76929,-1.78609 7.7388,-3.08015 11.59766,-4.64453 2.22489,-1.00252 4.46192,-1.9699 6.64648,-3.05859 2.12401,-1.12645 4.97017,-2.71261 7.66407,-4.23829 -1.41298,0.81849 -1.51948,0.87272 -3.47657,2.00977 -0.41824,0.24302 0.84338,-0.47498 1.26563,-0.71094 1.08427,-0.60586 1.09851,-0.60943 2.15625,-1.18554 3.44844,-1.92207 2.77391,-1.55311 4.77929,-2.75 4.49297,-2.59305 8.97628,-5.20018 13.46485,-7.80079 1.51967,-1.11545 3.24248,-1.97849 4.66797,-3.21874 0.1673,-0.0811 0.32282,-0.18085 0.47265,-0.28711 z m -6.6289,1.73632 c -0.24981,0.14544 -2.76654,1.59585 -4.50391,2.59766 -0.1354,0.0756 -0.1863,0.1027 -0.41016,0.22852 1.11303,-0.6397 5.09574,-2.93194 4.91407,-2.82618 z m -1.24024,3.32618 c -2.64043,1.53681 -5.28785,3.06219 -7.93359,4.58984 1.64505,-0.9662 3.632,-2.13053 7.04297,-4.11328 0.29102,-0.16932 1.18161,-0.64593 0.89062,-0.47656 z m 9.49024,1.78711 c -0.4453,0.2552 -0.89065,0.51039 -1.33594,0.76562 0.29631,-0.16441 0.54309,-0.41189 0.84375,-0.56836 0.15306,-0.0797 0.3203,-0.14182 0.49219,-0.19726 z" />
    <path
       style="fill:#000000;stroke-width:0.464111"
       id="path1376"
       d="m 157.07759,119.65251 c 0.2344,2.4004 0.39965,4.81496 0.57008,7.22624 0.19109,2.95641 0.33617,5.91904 0.45826,8.88279 0.0516,2.41856 0.16876,4.83189 0.26109,7.2475 0.0854,1.52961 0.12631,3.06283 0.2124,4.59216 0.0461,0.77448 0.0708,1.55105 0.0723,2.32821 0.008,0.59363 -9.1e-4,1.18744 0.005,1.78103 3.8e-4,0.37295 -0.005,0.74581 -0.008,1.11868 0,0 5.17599,-3.75202 5.17599,-3.75202 v 0 c -0.003,-0.36931 -0.007,-0.73867 -0.006,-1.10804 0.006,-0.60175 -9.1e-4,-1.20415 -0.012,-1.80573 -0.0328,-0.77964 -0.0794,-1.55733 -0.15804,-2.3307 -0.13234,-1.48809 -0.21782,-2.98322 -0.32958,-4.47461 -0.13967,-2.39048 -0.26318,-4.78156 -0.3541,-7.17696 -0.15466,-2.96076 -0.29543,-5.92344 -0.50312,-8.87795 -0.16815,-2.44953 -0.33128,-4.93499 -0.21804,-7.39584 0,0 -5.1651,3.74524 -5.1651,3.74524 z" />
    <path
       style="fill:#000000;stroke-width:0.464111"
       id="path1386"
       d="m 158.36763,140.43768 c 1.56532,0.63054 3.0687,1.54817 4.58416,2.38457 1.60382,0.91234 3.2229,1.76429 4.81531,2.71651 0.53095,0.31124 1.07065,0.61323 1.55418,1.05969 0.27755,0.3105 0.53962,0.64938 0.80499,0.98102 0.16004,0.17849 0.0798,0.0981 0.23931,0.24341 0,0 4.89595,-4.49653 4.89595,-4.49653 v 0 c -0.13953,-0.1173 -0.0707,-0.0663 -0.20581,-0.1553 -0.30047,-0.30324 -0.57695,-0.65608 -0.84776,-1.01115 -0.081,-0.0834 -0.29377,-0.30745 -0.37756,-0.37102 -0.43634,-0.33101 -0.93256,-0.49243 -1.39649,-0.71777 -1.66788,-0.80439 -3.32872,-1.6432 -4.96667,-2.56425 -1.4634,-0.80492 -2.89398,-1.71375 -4.30072,-2.70281 0,0 -4.79889,4.63358 -4.79889,4.63358 z" />
    <path
       style="fill:#000000;stroke-width:0.464111"
       id="path1388"
       d="m 165.49822,134.9443 c 0.97184,-1.1457 1.87764,-2.40534 2.78055,-3.65954 1.06038,-1.35021 1.98566,-2.8843 2.88293,-4.44935 0.38986,-0.65138 0.79787,-1.28211 1.23186,-1.87443 0.59694,-0.81476 -0.1198,0.22096 0.37792,-0.50705 0,0 -5.34643,3.16011 -5.34643,3.16011 v 0 c -0.51569,0.74138 -0.98291,1.54798 -1.44032,2.36204 -0.87698,1.54027 -1.82277,2.99324 -2.85377,4.32884 -0.54761,0.74679 -1.09796,1.48567 -1.66872,2.19687 -1.02905,1.28229 -0.0465,0.0477 -0.98719,1.1796 -0.11353,0.1366 -0.22274,0.28056 -0.33411,0.42085 0,0 5.35728,-3.15794 5.35728,-3.15794 z" />
    <path
       style="fill:#000000;stroke-width:0.464111"
       id="path1390"
       d="m 175.83403,125.94119 c 0.41329,2.22763 0.75355,4.48021 1.15755,6.71154 0.46724,2.51336 0.80783,5.06803 1.14405,7.62183 0.18894,1.27862 0.31569,2.57502 0.41392,3.87363 0.076,0.773 0.13263,1.54717 0.22215,2.31687 0.11268,0.69269 0.23,1.38027 0.2972,2.08551 0.005,0.0252 0.0696,0.47804 0.0892,0.53645 0.99127,2.92221 4.20005,-2.97415 5.24243,-3.95672 0.0849,-0.08 -0.0319,-0.28647 -0.0436,-0.43043 -0.0163,-0.19815 -0.0272,-0.39722 -0.0407,-0.59585 -0.081,-1.68975 -0.0871,-3.3845 -0.0922,-5.07746 0.006,-1.52294 9.1e-4,-3.04593 0.008,-4.56887 0.0393,-0.99934 0.0872,-2.0492 0.3695,-2.98181 0.0562,-0.18582 0.12837,-0.3609 0.1925,-0.54134 0.3111,-0.68343 0.72882,-1.22883 1.19912,-1.6831 0.11473,-0.11071 0.46855,-0.42096 0.34865,-0.32214 -1.50886,1.2436 -3.01064,2.50454 -4.51595,3.7568 0.49799,-0.41532 1.03648,-0.71276 1.59754,-0.89791 0.3982,-0.10643 0.79762,-0.14545 1.19756,-0.05 0.38931,0.1338 0.76468,0.32861 1.1221,0.58424 0,0 4.84521,-4.55084 4.84521,-4.55084 v 0 c -0.39474,-0.25964 -0.77711,-0.55201 -1.20416,-0.70005 -0.45383,-0.2197 -0.85587,-0.32827 -1.33635,-0.22727 -0.62453,0.0874 -1.21355,0.3531 -1.78262,0.73001 -1.74373,1.44648 -3.49669,2.87066 -5.23119,4.3394 -0.12205,0.10338 -0.22764,0.24201 -0.3351,0.374 -0.45609,0.56024 -0.82854,1.24343 -1.08165,2.02246 -0.0573,0.21097 -0.12263,0.41786 -0.17199,0.63287 -0.23468,1.02284 -0.25978,2.11404 -0.26689,3.17973 0.007,1.51647 0.005,3.03314 0.0299,4.54933 0.0183,1.70926 0.0498,3.41919 0.0277,5.12861 -0.008,0.20399 -0.0109,0.40909 -0.0286,0.61179 -0.0109,0.10856 -0.12425,0.36864 -0.0558,0.31862 5.0033,-3.65867 4.35771,-6.51834 5.11178,-3.62618 0.0349,0.13351 -0.18217,-0.6686 -0.0854,-0.40973 -0.0941,-0.69515 -0.19696,-1.38774 -0.29655,-2.08121 -0.0811,-0.75343 -0.17509,-1.50385 -0.26377,-2.25554 -0.13205,-1.30223 -0.29792,-2.60122 -0.52907,-3.87547 -0.4666,-2.48864 -0.91394,-4.9842 -1.33258,-7.49041 -0.23119,-1.45281 -0.44528,-2.89613 -0.5941,-4.37132 -0.0518,-0.51439 -0.13528,-1.39407 -0.15353,-1.94847 -0.006,-0.16308 0.006,-0.32623 0.007,-0.48939 0,0 -5.1825,3.75785 -5.1825,3.75785 z"
       inkscape:export-filename="C:\Users\Jonas\Desktop\Deg-logo.png"
       inkscape:export-xdpi="96"
       inkscape:export-ydpi="96" />
    <path
       id="path2507"
       style="fill:#d38d5f;stroke-width:0.313085"
       d="m 24.883447,255.39679 c -0.01218,-0.001 0.01808,0.19549 0.03268,0.26709 0.0035,0.0173 0.03475,0.0481 0.03268,0.0293 -0.0079,-0.0704 -0.02019,-0.1397 -0.02965,-0.20977 -0.0095,-0.024 -0.01859,-0.0483 -0.02813,-0.0724 -0.0035,-0.008 -0.0059,-0.0133 -0.0076,-0.0133 z" />
    <path
       style="fill:#d38d5f;stroke-width:0.433331"
       d=""
       id="path2702" />
    <path
       style="fill:#000000;stroke-width:0.464111"
       id="path136"
       d="m 82.228206,50.052925 c -0.563298,0.0069 -1.126912,-0.0053 -1.689888,0.02284 -0.128221,0.0068 -0.2543,0.04911 -0.38076,0.07989 -0.521059,0.126758 -1.039907,0.295373 -1.533622,0.56965 -0.175003,0.0972 -0.342589,0.219558 -0.513884,0.329337 -0.149302,0.154259 -0.313781,0.282301 -0.447909,0.462534 -0.467684,0.628413 -0.71347,1.514206 -0.72862,2.424626 -0.01502,0.903087 0.137382,1.496325 0.29146,2.36989 0.283484,1.292262 0.6824,2.523235 0.997208,3.799238 0.157274,0.637457 0.372422,1.48872 0.377398,2.188379 0.0019,0.292979 -0.06896,0.577691 -0.103425,0.866529 -0.127751,0.214775 -0.226205,0.473331 -0.383246,0.644297 -0.556111,0.605408 -1.295002,0.64353 -1.95687,0.717505 0,0 1.359827,0.287821 1.359827,0.287821 v 0 c 0.680796,-0.107427 1.430309,-0.191449 1.97525,-0.874575 0.162449,-0.203649 0.255805,-0.497115 0.383706,-0.745679 0.02891,-0.30938 0.09377,-0.616196 0.08672,-0.928125 -0.01633,-0.720629 -0.236515,-1.566509 -0.402899,-2.225343 -0.31941,-1.264798 -0.718479,-2.487141 -0.991801,-3.775838 -0.142235,-0.851328 -0.284284,-1.416638 -0.259103,-2.291656 0.02514,-0.873895 0.276331,-1.689944 0.740578,-2.26703 0.133986,-0.166537 0.295162,-0.282714 0.442744,-0.424072 0.170061,-0.103238 0.336597,-0.219145 0.51018,-0.309762 0.349165,-0.182257 0.712564,-0.310955 1.076773,-0.414044 0.1589,-0.04496 0.318955,-0.08197 0.479435,-0.113629 0.132073,-0.02612 0.530912,-0.04755 0.397834,-0.05949 -0.388026,-0.03458 -0.777556,-0.0069 -1.166334,-0.0086 0,0 1.439277,-0.32441 1.439277,-0.32441 z" />
    <path
       style="fill:#000000;stroke-width:0.464111"
       id="path138"
       d="m 105.8542,43.139135 c -0.56089,0.0069 -1.122,-3.28e-4 -1.68267,0.02266 -0.42264,0.0173 -0.85633,0.230593 -1.15639,0.672684 -0.35391,0.521401 -0.32376,0.747118 -0.4556,1.44825 -0.008,0.348776 -0.0364,0.697759 -0.0245,1.046311 0.0279,0.821704 0.17026,1.779852 0.28623,2.576323 0.0499,0.342812 0.35855,2.299111 0.40885,2.672305 0.0502,0.37214 0.0861,0.747877 0.1292,1.121834 0.0302,0.646415 0.13577,1.874343 -0.38905,2.25501 -0.18546,0.134539 -0.46303,0.09649 -0.65112,0.09926 0.31621,-0.0086 0.63242,-0.01729 0.94862,-0.02508 0,0 -1.39032,0.305766 -1.39032,0.305766 v 0 c 0.61319,0.0069 1.22638,0.01556 1.83955,0.02249 0.2694,-0.03995 0.45886,-0.0035 0.67977,-0.243943 0.49254,-0.536203 0.37058,-1.715209 0.31703,-2.447003 -0.0496,-0.376481 -0.094,-0.754361 -0.14862,-1.129443 -0.25976,-1.7872 -0.15558,-0.831421 -0.41205,-2.666407 -0.11014,-0.787719 -0.23687,-1.719774 -0.25124,-2.532016 -0.006,-0.3338 0.0284,-0.666581 0.0427,-0.999862 0.0567,-0.257778 0.0841,-0.532659 0.17017,-0.77335 0.2166,-0.605016 0.64407,-0.924012 1.09254,-1.046383 0.12558,-0.03422 0.51,-0.03736 0.38227,-0.04619 -0.39052,-0.02732 -0.78198,-0.0069 -1.17296,-0.0086 0,0 1.43766,-0.324046 1.43766,-0.324046 z" />
    <text
       xml:space="preserve"
       style="font-style:normal;font-weight:normal;font-size:27.8147px;line-height:1.25;font-family:sans-serif;fill:#000000;fill-opacity:1;stroke:none;stroke-width:0.695368"
       x="116.05863"
       y="132.2437"
       id="text3870"
       transform="scale(0.78020544,1.2817137)"><tspan
         sodipodi:role="line"
         id="tspan3868"
         style="font-style:normal;font-variant:normal;font-weight:normal;font-stretch:normal;font-family:Mistral;-inkscape-font-specification:Mistral;stroke-width:0.695368"
         x="116.05863"
         y="132.2437">DEG</tspan></text>
    <path
       style="fill:#ffcc00;fill-opacity:1;stroke-width:0.0272703"
       d=""
       id="path6211" />
    <path
       style="fill:#000000;fill-opacity:1;stroke-width:0.00492575"
       d="m 38.512132,246.24671 c 0.01642,-0.0178 1.045407,-0.89832 1.04985,-0.89832 0.0023,-2e-5 0.004,0.006 0.0031,0.0133 -0.0016,0.0133 -0.12173,0.13218 -0.26769,0.26161 -0.162315,0.14382 -0.417326,0.3505 -0.689093,0.55826 -0.09165,0.0701 -0.115804,0.0865 -0.09633,0.0651 z"
       id="path6326" />
    <path
       style="fill:#000000;fill-opacity:1;stroke-width:0.0034088"
       d=""
       id="path6365" />
    <path
       style="fill:#000000;fill-opacity:1;stroke-width:0.00181295"
       d="m 38.449043,246.30007 c -4e-6,-0.001 0.05829,-0.0535 0.06026,-0.0535 3.89e-4,0 -3.58e-4,0.001 -0.0019,0.006 -0.0031,0.006 -0.0035,0.006 0.0085,5.7e-4 0.0019,-5.7e-4 -0.01161,0.0101 -0.03035,0.0235 -0.03236,0.0235 -0.03644,0.0264 -0.03644,0.0244 z"
       id="path6441" />
  </g>
</svg>
