<svg width="350" height="330" viewBox="0 0 350 330" fill="none" xmlns="http://www.w3.org/2000/svg">
<path d="M69.1275 239.201C59.872 240.501 50.4737 244.14 43.9984 252.197C37.7811 259.951 27.1305 268.194 21.9551 264.886L21.5463 264.453C29.625 272.514 64.9046 212.842 51.8271 212.842L67.2502 211.804C70.9731 218.255 71.872 231.93 69.1275 239.201Z" fill="#EAED60"/>
<path d="M294.937 329.403C275.81 329.389 262.405 329.204 247.012 329.162C246.444 329.162 245.882 329.045 245.361 328.817C244.84 328.589 244.373 328.256 243.987 327.839C243.601 327.422 243.306 326.929 243.119 326.392C242.933 325.855 242.86 325.286 242.904 324.719C243.303 319.989 244.299 315.328 245.869 310.848L243.833 307.474C251.616 307.673 259.324 305.905 266.243 302.335L270.548 310.84C279.438 313.42 289.372 320.417 296.147 326.12C296.443 326.365 296.656 326.696 296.756 327.066C296.856 327.437 296.839 327.83 296.706 328.191C296.573 328.551 296.331 328.861 296.014 329.078C295.697 329.296 295.321 329.409 294.937 329.403V329.403Z" fill="#EAED60"/>
<path d="M227.816 116.419V151.264C227.814 153.675 226.855 155.986 225.15 157.691C223.446 159.395 221.134 160.354 218.724 160.357C218.625 160.357 218.53 160.396 218.46 160.466C218.39 160.536 218.351 160.631 218.351 160.73C218.351 160.829 218.39 160.924 218.46 160.994C218.53 161.064 218.625 161.103 218.724 161.103C221.332 161.1 223.833 160.063 225.678 158.218C227.522 156.374 228.56 153.873 228.563 151.264V116.419C228.563 116.32 228.523 116.225 228.453 116.155C228.383 116.085 228.288 116.046 228.189 116.046C228.09 116.046 227.996 116.085 227.926 116.155C227.856 116.225 227.816 116.32 227.816 116.419V116.419Z" fill="#3B29AB"/>
<path d="M152.322 157.078C150.964 155.445 150.221 153.388 150.22 151.264V125.843C150.22 125.744 150.181 125.649 150.111 125.579C150.041 125.509 149.946 125.47 149.847 125.47C149.748 125.47 149.653 125.509 149.583 125.579C149.513 125.649 149.474 125.744 149.474 125.843V151.264C149.475 153.562 150.279 155.788 151.748 157.557C151.812 157.633 151.903 157.68 152.001 157.689C152.1 157.698 152.198 157.668 152.274 157.604C152.35 157.541 152.398 157.45 152.407 157.351C152.416 157.252 152.385 157.154 152.322 157.078V157.078Z" fill="#3B29AB"/>
<path d="M130.925 193.894V144.124C130.925 144.025 130.965 143.93 131.034 143.86C131.104 143.79 131.199 143.751 131.298 143.751C131.397 143.751 131.492 143.79 131.562 143.86C131.632 143.93 131.671 144.025 131.671 144.124V193.894C131.671 193.993 131.632 194.088 131.562 194.158C131.492 194.228 131.397 194.267 131.298 194.267C131.199 194.267 131.104 194.228 131.034 194.158C130.965 194.088 130.925 193.993 130.925 193.894V193.894Z" fill="#3B29AB"/>
<path d="M87.8389 97.5428L86.0291 94.4113C85.9924 94.3597 85.9439 94.3176 85.8876 94.2886C85.8313 94.2595 85.7689 94.2444 85.7056 94.2444C85.6423 94.2444 85.5799 94.2595 85.5236 94.2886C85.4674 94.3176 85.4188 94.3597 85.3822 94.4113L84.2867 96.3124C84.2621 96.3563 84.2466 96.4047 84.2411 96.4547C84.2357 96.5047 84.2404 96.5553 84.255 96.6035C84.2696 96.6516 84.2939 96.6963 84.3262 96.7349C84.3585 96.7734 84.3983 96.805 84.4432 96.8278C84.4881 96.8506 84.5371 96.864 84.5873 96.8674C84.6375 96.8707 84.6878 96.8638 84.7353 96.8472C84.7828 96.8306 84.8265 96.8045 84.8636 96.7706C84.9008 96.7367 84.9307 96.6956 84.9515 96.6498C85.6421 96.9554 86.3069 97.2451 86.9519 97.5031L87.19 97.9158C87.2428 97.9951 87.3237 98.0514 87.4164 98.0732C87.5091 98.0949 87.6066 98.0807 87.6892 98.0332C87.7717 97.9857 87.8331 97.9086 87.8609 97.8176C87.8888 97.7265 87.8809 97.6282 87.8389 97.5428V97.5428Z" fill="#3B29AB"/>
<path d="M116.534 98.2929C116.395 97.2865 115.934 96.3521 115.22 95.6291C114.507 94.9061 113.578 94.4333 112.574 94.2813C111.569 94.1292 110.543 94.3062 109.647 94.7856C108.751 95.2651 108.035 96.0213 107.604 96.9415C107.58 96.9936 107.568 97.0506 107.569 97.108C107.57 97.1655 107.585 97.2219 107.612 97.2728C107.638 97.3237 107.676 97.3678 107.723 97.4015C107.769 97.4353 107.823 97.4578 107.88 97.4674C113.309 98.3961 116.361 98.7156 116.161 98.7156C116.214 98.7161 116.267 98.7051 116.316 98.6833C116.365 98.6615 116.409 98.6295 116.444 98.5894C116.479 98.5493 116.506 98.5021 116.521 98.451C116.537 98.3998 116.541 98.3459 116.534 98.2929V98.2929Z" fill="#3B29AB"/>
<path d="M113.714 125.151C113.675 125.083 113.616 125.03 113.544 124.998C113.473 124.966 113.394 124.957 113.317 124.973C113.241 124.988 113.171 125.027 113.118 125.085C113.065 125.142 113.031 125.214 113.022 125.292C108.557 124.726 103.576 123.881 99.0472 122.882C98.284 120.483 97.7771 118.009 97.535 115.502C93.9917 114.643 90.3555 114.228 86.7098 114.266C78.6133 114.5 81.3836 112.383 84.1558 111.454C87.2456 110.422 94.731 108.842 91.925 106.741C86.5253 104.179 88.5931 104.538 81.578 102.472C81.6034 102.385 81.5959 102.291 81.557 102.209C81.518 102.127 81.4504 102.061 81.3667 102.026C81.283 101.99 81.1891 101.986 81.1027 102.014C81.0162 102.043 80.9432 102.102 80.8974 102.181L64.9781 129.766C64.9455 129.823 64.9283 129.888 64.9284 129.953C64.9285 130.019 64.9457 130.083 64.9785 130.14C65.0112 130.197 65.0582 130.244 65.1149 130.277C65.1716 130.31 65.236 130.328 65.3016 130.328C118.261 130.328 116.123 130.445 116.356 130.169C116.534 129.876 116.534 130.048 113.714 125.151Z" fill="#3B29AB"/>
<path d="M316.922 52.9481C316.191 55.7814 314.917 58.4461 313.172 60.7946C314.874 62.8664 313.94 66.6369 312.249 68.3772C312.318 68.3197 312.384 68.2482 312.447 68.1966C314.561 69.0182 313.537 72.6656 311.358 74.8565C313.045 73.4674 314.398 77.1088 312.017 79.4207C311.445 79.8414 300.479 87.6344 300.479 87.6344C299.929 84.0523 298.609 80.632 296.61 77.6091C294.611 74.5862 291.98 72.0324 288.9 70.1235C292.472 67.4584 297.885 61.9734 299.102 59.3777C300.533 56.3256 302.45 53.1327 303.285 52.956H303.809C305.117 53.7756 303.337 61.0923 302.982 62.5568C305.765 60.6549 308.278 58.3853 310.453 55.8097C311.826 54.2221 315.327 48.499 316.605 49.2471C317.232 49.6063 317.361 51.0053 316.922 52.9481Z" fill="#EAED60"/>
<path d="M100.172 101.323C88.7715 99.3745 78.4086 93.2882 75.7118 92.0916C73.7968 91.2422 72.7073 91.0994 72.3898 91.4963C71.8461 92.171 73.5388 94.4233 77.1981 97.4774C74.4772 97.171 71.7282 97.2143 69.0182 97.6064C68.2701 97.781 67.5239 98.8387 72.1437 99.9123C77.2984 101.134 82.3867 102.62 87.3883 104.365C88.5036 105.02 89.6962 105.677 91.9248 106.733C94.7308 108.832 87.2454 110.414 84.1556 111.446C81.3774 112.375 78.613 114.492 86.7096 114.258C90.3551 114.225 93.9907 114.64 97.5348 115.494C97.0131 110.614 97.9298 105.689 100.172 101.323V101.323Z" fill="#EAED60"/>
<path d="M231.434 16.579H146.598C144.573 16.5187 142.557 16.8633 140.666 17.5924C138.776 18.3215 137.05 19.4206 135.59 20.8252C134.13 22.2298 132.965 23.9117 132.163 25.7724C131.362 27.633 130.939 29.6349 130.921 31.6609V80.4189C130.921 80.5178 130.961 80.6127 131.031 80.6827C131.101 80.7527 131.195 80.792 131.294 80.792C131.393 80.792 131.488 80.7527 131.558 80.6827C131.628 80.6127 131.667 80.5178 131.667 80.4189V31.6688C131.686 29.7408 132.088 27.8359 132.852 26.0656C133.616 24.2953 134.726 22.6953 136.116 21.3594C137.506 20.0235 139.149 18.9785 140.949 18.2858C142.748 17.593 144.667 17.2665 146.595 17.3252H231.434C235.019 17.2111 238.518 18.4308 241.256 20.7483C243.993 23.0658 245.773 26.3164 246.252 29.8709C246.267 29.9668 246.318 30.0531 246.395 30.1116C246.473 30.1701 246.57 30.1961 246.666 30.1843C246.762 30.1724 246.85 30.1235 246.911 30.048C246.972 29.9724 247.001 29.8762 246.992 29.7796C246.492 26.044 244.625 22.6264 241.751 20.188C238.877 17.7496 235.201 16.4637 231.434 16.579V16.579Z" fill="#3B29AB"/>
<path d="M256.176 29.3529C256.141 23.5652 253.819 18.026 249.718 13.9422C245.617 9.85829 240.068 7.56063 234.28 7.54974H143.42C137.615 7.55605 132.05 9.86447 127.945 13.9686C123.84 18.0728 121.53 23.6376 121.523 29.4422V80.0895C121.523 80.1884 121.562 80.2833 121.632 80.3533C121.702 80.4232 121.797 80.4625 121.896 80.4625C121.995 80.4625 122.09 80.4232 122.16 80.3533C122.23 80.2833 122.269 80.1884 122.269 80.0895V29.4422C122.276 23.8351 124.507 18.4596 128.472 14.495C132.437 10.5303 137.812 8.30022 143.42 8.29391H234.28C239.87 8.3048 245.23 10.5241 249.191 14.4685C253.152 18.4129 255.395 23.7628 255.43 29.3529C255.43 29.4519 255.469 29.5468 255.539 29.6167C255.609 29.6867 255.704 29.726 255.803 29.726C255.902 29.726 255.997 29.6867 256.067 29.6167C256.137 29.5468 256.176 29.4519 256.176 29.3529V29.3529Z" fill="#3B29AB"/>
<path d="M121.523 204.225V144.451C121.523 144.352 121.562 144.257 121.632 144.187C121.702 144.117 121.797 144.078 121.896 144.078C121.995 144.078 122.09 144.117 122.16 144.187C122.23 144.257 122.269 144.352 122.269 144.451V204.223C122.27 204.322 122.23 204.417 122.161 204.487C122.091 204.557 121.996 204.597 121.897 204.597C121.798 204.597 121.703 204.558 121.633 204.488C121.563 204.419 121.523 204.324 121.523 204.225V204.225Z" fill="#3B29AB"/>
<path d="M146.599 250.649H212.528C212.627 250.649 212.722 250.61 212.792 250.54C212.862 250.47 212.901 250.375 212.901 250.276C212.901 250.177 212.862 250.082 212.792 250.013C212.722 249.943 212.627 249.903 212.528 249.903H146.599C143.636 249.91 140.738 249.031 138.277 247.381C135.816 245.731 133.904 243.384 132.785 240.64C132.743 240.554 132.67 240.488 132.581 240.454C132.492 240.42 132.394 240.422 132.306 240.458C132.218 240.494 132.147 240.562 132.107 240.649C132.067 240.735 132.062 240.833 132.092 240.924C133.267 243.805 135.275 246.27 137.86 248.002C140.444 249.735 143.487 250.657 146.599 250.649V250.649Z" fill="#3B29AB"/>
<path d="M216.685 258.637H143.419C138.561 258.624 133.854 256.946 130.085 253.881C126.316 250.816 123.712 246.55 122.71 241.797C122.687 241.703 122.628 241.621 122.547 241.57C122.465 241.518 122.366 241.5 122.272 241.519C122.177 241.539 122.094 241.595 122.039 241.674C121.985 241.754 121.963 241.852 121.979 241.947C123.017 246.868 125.711 251.283 129.611 254.457C133.512 257.63 138.383 259.37 143.412 259.385H216.678C216.772 259.379 216.861 259.337 216.926 259.269C216.992 259.2 217.029 259.109 217.03 259.014C217.031 258.92 216.996 258.828 216.932 258.758C216.868 258.688 216.78 258.644 216.685 258.637V258.637Z" fill="#3B29AB"/>
<path d="M246.363 118.959C246.363 243.352 246.432 235.512 246.222 237.034C246.209 237.132 246.235 237.231 246.295 237.31C246.355 237.389 246.444 237.441 246.542 237.455C247.397 237.576 247.109 242.535 247.109 118.949C247.108 118.85 247.067 118.756 246.996 118.687C246.925 118.618 246.83 118.58 246.731 118.581C246.632 118.582 246.538 118.623 246.469 118.694C246.4 118.765 246.362 118.86 246.363 118.959V118.959Z" fill="#3B29AB"/>
<path d="M256.176 237.485V119.362C256.176 119.263 256.137 119.168 256.067 119.098C255.997 119.028 255.902 118.989 255.803 118.989C255.704 118.989 255.609 119.028 255.539 119.098C255.469 119.168 255.43 119.263 255.43 119.362V237.488C255.443 242.081 253.948 246.552 251.175 250.213C251.116 250.292 251.09 250.391 251.103 250.489C251.117 250.587 251.169 250.676 251.248 250.736C251.327 250.795 251.426 250.821 251.524 250.808C251.622 250.794 251.711 250.742 251.771 250.663C254.643 246.872 256.191 242.241 256.176 237.485V237.485Z" fill="#3B29AB"/>
<path d="M323.642 42.1448C323.642 42.0458 323.602 41.9509 323.532 41.881C323.462 41.811 323.367 41.7717 323.268 41.7717H252.072C251.973 41.7717 251.878 41.811 251.808 41.881C251.738 41.9509 251.699 42.0458 251.699 42.1448V52.9481C251.699 53.0471 251.738 53.142 251.808 53.2119C251.878 53.2819 251.973 53.3212 252.072 53.3212H312.58C312.659 53.3212 312.735 53.2965 312.799 53.2505C312.862 53.2045 312.91 53.1397 312.934 53.0652C312.959 52.9907 312.96 52.9103 312.936 52.8355C312.912 52.7607 312.865 52.6952 312.802 52.6485C314.239 50.7097 315.823 48.7887 316.599 49.2432C317.194 49.5825 317.345 50.8307 316.996 52.5731H316.916C316.822 52.58 316.733 52.6224 316.669 52.6918C316.604 52.7612 316.568 52.8524 316.568 52.9471C316.568 53.0419 316.604 53.1331 316.669 53.2025C316.733 53.2719 316.822 53.3143 316.916 53.3212H323.266C323.365 53.3212 323.46 53.2819 323.53 53.2119C323.6 53.142 323.64 53.0471 323.64 52.9481L323.642 42.1448Z" fill="#3B29AB"/>
<path d="M307.637 59.1657H303.809C303.71 59.1657 303.615 59.1264 303.545 59.0565C303.475 58.9865 303.436 58.8916 303.436 58.7927C303.436 58.6937 303.475 58.5988 303.545 58.5289C303.615 58.4589 303.71 58.4196 303.809 58.4196H307.637C307.736 58.4196 307.831 58.4589 307.901 58.5289C307.971 58.5988 308.01 58.6937 308.01 58.7927C308.01 58.8916 307.971 58.9865 307.901 59.0565C307.831 59.1264 307.736 59.1657 307.637 59.1657V59.1657Z" fill="#3B29AB"/>
<path d="M251.701 90.1232V58.7927C251.701 58.6937 251.74 58.5988 251.81 58.5289C251.88 58.4589 251.975 58.4196 252.074 58.4196H299.376C299.475 58.4196 299.57 58.4589 299.639 58.5289C299.709 58.5988 299.749 58.6937 299.749 58.7927C299.749 58.8916 299.709 58.9865 299.639 59.0565C299.57 59.1264 299.475 59.1657 299.376 59.1657H252.447V90.1232C252.447 90.2222 252.408 90.317 252.338 90.387C252.268 90.457 252.173 90.4963 252.074 90.4963C251.975 90.4963 251.88 90.457 251.81 90.387C251.74 90.317 251.701 90.2222 251.701 90.1232V90.1232Z" fill="#3B29AB"/>
<path d="M323.641 58.7927C323.641 58.6937 323.602 58.5988 323.532 58.5289C323.462 58.4589 323.367 58.4196 323.268 58.4196H314.501C314.402 58.4196 314.307 58.4589 314.237 58.5289C314.167 58.5988 314.128 58.6937 314.128 58.7927C314.128 58.8916 314.167 58.9865 314.237 59.0565C314.307 59.1264 314.402 59.1657 314.501 59.1657H322.895V91.814H300.509C300.414 91.8208 300.326 91.8633 300.261 91.9326C300.197 92.002 300.161 92.0933 300.161 92.188C300.161 92.2828 300.197 92.374 300.261 92.4434C300.326 92.5128 300.414 92.5552 300.509 92.5621H323.268C323.368 92.5616 323.462 92.5218 323.532 92.4516C323.602 92.3813 323.641 92.2862 323.641 92.187V58.7927Z" fill="#3B29AB"/>
<path d="M336.562 39.9538C336.557 37.0439 335.398 34.2548 333.34 32.1977C331.282 30.1407 328.492 28.9835 325.582 28.9798H249.764C246.853 28.9824 244.062 30.1398 242.003 32.1978C239.944 34.2559 238.786 37.0467 238.782 39.9578V89.2476C238.782 89.3466 238.822 89.4415 238.892 89.5115C238.962 89.5814 239.057 89.6207 239.155 89.6207C239.254 89.6207 239.349 89.5814 239.419 89.5115C239.489 89.4415 239.529 89.3466 239.529 89.2476V39.9578C239.532 37.2444 240.611 34.6431 242.53 32.7249C244.449 30.8066 247.051 29.7281 249.764 29.726H325.58C328.294 29.7286 330.895 30.8073 332.814 32.7254C334.733 34.6436 335.813 37.2446 335.816 39.9578V94.3755C335.813 97.0897 334.733 99.6919 332.814 101.611C330.895 103.53 328.293 104.61 325.578 104.613H291.863C291.774 103.714 291.4 102.867 290.795 102.197C290.19 101.526 289.386 101.067 288.501 100.886C288.179 100.821 288.332 100.992 283.724 103.877C283.683 103.903 283.647 103.937 283.619 103.977C283.59 104.016 283.57 104.062 283.56 104.109C283.523 104.275 283.497 104.444 283.482 104.613H282.657C282.558 104.613 282.463 104.653 282.393 104.723C282.323 104.793 282.284 104.887 282.284 104.986C282.284 105.085 282.323 105.18 282.393 105.25C282.463 105.32 282.558 105.359 282.657 105.359H283.478C283.562 106.346 283.991 107.272 284.69 107.974C285.388 108.676 286.312 109.109 287.298 109.197V148.291C287.291 154.961 284.638 161.355 279.923 166.071C275.207 170.787 268.813 173.44 262.143 173.448H223.695C223.6 173.455 223.512 173.497 223.447 173.567C223.383 173.636 223.347 173.727 223.347 173.822C223.347 173.917 223.383 174.008 223.447 174.077C223.512 174.147 223.6 174.189 223.695 174.196H262.139C269.007 174.188 275.59 171.456 280.446 166.6C285.301 161.744 288.033 155.16 288.04 148.293V109.199C289.027 109.111 289.951 108.678 290.649 107.976C291.348 107.274 291.777 106.348 291.861 105.361H325.574C328.487 105.358 331.279 104.2 333.338 102.141C335.397 100.082 336.555 97.2896 336.558 94.3775L336.562 39.9538Z" fill="#3B29AB"/>
<path d="M101.414 265.658H91.133V255.382C91.133 255.283 91.0937 255.189 91.0237 255.119C90.9537 255.049 90.8588 255.009 90.7599 255.009C90.6609 255.009 90.566 255.049 90.4961 255.119C90.4261 255.189 90.3868 255.283 90.3868 255.382V265.664H80.1053C80.0064 265.664 79.9115 265.703 79.8415 265.773C79.7716 265.843 79.7323 265.938 79.7323 266.037C79.7323 266.136 79.7716 266.231 79.8415 266.301C79.9115 266.371 80.0064 266.41 80.1053 266.41H90.3868V276.693C90.3868 276.792 90.4261 276.887 90.4961 276.957C90.566 277.027 90.6609 277.066 90.7599 277.066C90.8588 277.066 90.9537 277.027 91.0237 276.957C91.0937 276.887 91.133 276.792 91.133 276.693V266.41H101.414C101.464 266.41 101.513 266.4 101.558 266.381C101.604 266.362 101.645 266.335 101.68 266.3C101.715 266.265 101.743 266.223 101.762 266.178C101.781 266.132 101.79 266.083 101.79 266.034C101.79 265.985 101.781 265.936 101.762 265.89C101.743 265.844 101.715 265.803 101.68 265.768C101.645 265.733 101.604 265.705 101.558 265.686C101.513 265.668 101.464 265.658 101.414 265.658Z" fill="#3B29AB"/>
<path d="M208.396 116.867L205.999 131.207C195.352 128.452 184.179 128.452 173.532 131.207L171.851 116.822C180.144 113.446 200.171 113.436 208.396 116.867Z" fill="#EAED60"/>
<path d="M201.927 76.2753C200.941 75.7487 200.071 75.0288 199.37 74.1587C198.668 73.2886 198.149 72.2861 197.843 71.211C196.476 66.7063 197.907 70.7585 194.773 63.9638C198.879 64.9104 204.509 66.1467 204.249 61.9099C204.013 58.0561 200.897 52.5095 196.24 44.5895C195.035 44.5288 193.832 44.7194 192.705 45.1492C193.819 47.8957 194.18 51.6979 192.336 49.8682C189.129 46.6931 186.101 51.8527 192.227 55.6231C191.923 58.7268 191.433 61.6439 190.896 64.5651C190.606 66.8236 190.153 69.0581 189.538 71.2507C188.805 72.7676 187.737 74.0978 186.414 75.1406C185.091 76.1834 183.548 76.9114 181.902 77.2695C178.972 78.1223 176.176 79.3807 173.595 81.0082C189.181 88.7674 212.806 81.2841 212.806 81.2841C209.048 79.9159 205.41 78.2407 201.927 76.2753V76.2753Z" fill="#EAED60"/>
<path d="M144.733 173.442H116.286C109.678 173.435 103.337 170.83 98.6316 166.189C93.9265 161.549 91.2341 155.244 91.1351 148.637C92.1171 148.547 93.0365 148.116 93.7333 147.418C94.4302 146.72 94.8605 145.801 94.9492 144.818H128.671C131.581 144.815 134.37 143.658 136.428 141.601C138.486 139.545 139.645 136.756 139.651 133.846V126.609C139.651 126.51 139.612 126.415 139.542 126.345C139.472 126.275 139.377 126.236 139.278 126.236C139.179 126.236 139.084 126.275 139.014 126.345C138.944 126.415 138.905 126.51 138.905 126.609V133.848C138.901 136.562 137.821 139.163 135.903 141.081C133.984 142.999 131.382 144.078 128.669 144.08H94.9492C94.8579 143.032 94.377 142.056 93.6015 141.346C92.8259 140.635 91.8121 140.24 90.76 140.24C89.708 140.24 88.6942 140.635 87.9186 141.346C87.1431 142.056 86.6622 143.032 86.5709 144.08H52.8471C50.1344 144.077 47.5337 142.998 45.6155 141.08C43.6974 139.162 42.6184 136.561 42.6152 133.848V90.6945C42.6184 87.9815 43.6977 85.3805 45.6162 83.4623C47.5348 81.5441 50.136 80.4653 52.8491 80.4627H128.669C131.382 80.4653 133.984 81.544 135.903 83.4622C137.821 85.3803 138.901 87.9813 138.905 90.6945V100.279C138.905 100.378 138.944 100.473 139.014 100.543C139.084 100.613 139.179 100.652 139.278 100.652C139.377 100.652 139.472 100.613 139.542 100.543C139.612 100.473 139.651 100.378 139.651 100.279V90.6945C139.647 87.7839 138.489 84.9937 136.43 82.9358C134.372 80.8779 131.582 79.7202 128.671 79.7165H52.8491C49.9383 79.7196 47.1476 80.8772 45.0892 82.9352C43.0308 84.9933 41.8727 87.7837 41.8691 90.6945V133.848C41.8727 136.759 43.0303 139.548 45.0878 141.606C47.1454 143.664 49.935 144.822 52.8451 144.826H86.5689C86.6574 145.809 87.0881 146.73 87.7859 147.428C88.4836 148.125 89.4042 148.556 90.387 148.645C90.4885 155.449 93.2606 161.941 98.1053 166.72C102.95 171.499 109.479 174.182 116.284 174.19H144.733C144.828 174.183 144.916 174.141 144.981 174.072C145.045 174.002 145.081 173.911 145.081 173.816C145.081 173.722 145.045 173.63 144.981 173.561C144.916 173.492 144.828 173.449 144.733 173.442V173.442Z" fill="#3B29AB"/>
<path d="M27.4083 107.287L19.9011 120.404L13.5687 111.486C13.5089 111.413 13.4235 111.365 13.3298 111.352C13.2361 111.339 13.1411 111.363 13.0639 111.417C12.9868 111.472 12.9333 111.554 12.9143 111.647C12.8953 111.739 12.9121 111.836 12.9615 111.916L19.6312 121.313C19.6682 121.363 19.717 121.404 19.7734 121.43C19.8298 121.457 19.892 121.47 19.9543 121.466C20.0167 121.463 20.0773 121.445 20.1307 121.412C20.1841 121.38 20.2286 121.335 20.2603 121.281L28.0572 107.658C28.1064 107.572 28.1194 107.47 28.0934 107.374C28.0673 107.278 28.0044 107.197 27.9183 107.148C27.8323 107.099 27.7302 107.086 27.6345 107.112C27.5389 107.138 27.4575 107.201 27.4083 107.287V107.287Z" fill="#3B29AB"/>
<path d="M288.199 7.9209L295.48 0.659784C295.544 0.588876 295.579 0.49611 295.576 0.400606C295.574 0.305103 295.535 0.214138 295.467 0.14646C295.4 0.078781 295.309 0.0395465 295.214 0.036841C295.118 0.0341354 295.025 0.0681649 294.954 0.131918L287.673 7.39105L280.412 0.110089C280.342 0.0398268 280.247 0.000247759 280.148 6.16941e-05C280.049 -0.000124371 279.954 0.0390983 279.883 0.109097C279.813 0.179097 279.773 0.27414 279.773 0.37332C279.773 0.4725 279.812 0.567689 279.882 0.637951L287.143 7.91891L279.855 15.18C279.785 15.25 279.745 15.345 279.745 15.444C279.745 15.543 279.785 15.6379 279.855 15.7079C279.925 15.7779 280.019 15.8172 280.118 15.8172C280.217 15.8172 280.312 15.7779 280.382 15.7079L287.663 8.44877L294.922 15.7297C294.992 15.8 295.088 15.8396 295.187 15.8397C295.286 15.8399 295.381 15.8007 295.451 15.7307C295.522 15.6607 295.561 15.5657 295.561 15.4665C295.562 15.3673 295.522 15.2721 295.452 15.2019L288.199 7.9209Z" fill="#3B29AB"/>
<path d="M348.977 329.033H296.597C296.795 328.812 296.947 328.554 297.043 328.273C297.139 327.992 297.178 327.695 297.157 327.399C297.137 327.103 297.057 326.814 296.922 326.549C296.788 326.285 296.602 326.05 296.375 325.858C292.111 322.26 281.117 313.596 270.802 310.544L266.733 302.503C268.387 301.597 269.985 300.592 271.518 299.493C271.588 299.443 271.639 299.37 271.661 299.287C271.684 299.204 271.678 299.115 271.643 299.036C244.664 238.751 234.575 193.836 206.384 131.152L207.773 122.847C210.381 121.912 211.712 120.807 211.73 119.56L212.195 112.825C226.213 117.16 240.761 119.544 255.43 119.908C255.491 119.907 255.552 119.894 255.609 119.87C271.909 112.035 287.183 103.901 301.074 92.1987C301.116 92.1642 301.15 92.1209 301.173 92.0718C301.196 92.0227 301.208 91.9691 301.207 91.9149C301.212 90.5358 301.104 89.1587 300.884 87.7972C302.384 86.7295 311.707 80.1034 312.277 79.6808C312.887 79.1283 313.321 78.4077 313.524 77.6094C313.727 76.8112 313.689 75.9708 313.416 75.1939C313.325 74.9695 313.187 74.767 313.012 74.5997C312.837 74.4325 312.628 74.3042 312.4 74.2235C313.789 72.3879 314.825 69.2624 312.995 68.0717C313.789 67.0516 314.272 65.8245 314.386 64.5371C314.5 63.2497 314.241 61.9566 313.64 60.8126C315.323 58.4674 316.557 55.8305 317.279 53.0355C317.77 50.8903 317.587 49.392 316.783 48.9297C315.654 48.2688 313.957 50.4379 311.955 53.1685C310.623 55.1425 309.069 56.9575 307.323 58.5781C306.137 59.6901 304.881 60.7266 303.565 61.6818C304.313 59.1537 304.661 56.5244 304.597 53.8888C304.382 52.1901 303.285 52.1524 302.166 53.4026C300.795 55.1942 299.65 57.1477 298.757 59.2191C297.578 61.7334 292.406 66.9981 288.86 69.6811C287.767 69.0897 286.606 68.6326 285.403 68.3198C285.345 68.3052 285.284 68.3048 285.225 68.3186C285.166 68.3324 285.112 68.36 285.066 68.3991C272.663 79.137 261.586 86.1461 250.207 90.4524C249.603 90.4316 249.004 90.3423 248.421 90.1865C237.374 89.1218 226.543 86.4441 216.273 82.2387C211.391 80.5356 206.656 78.4384 202.114 75.9678C198.496 73.6817 198.45 71.8303 197.549 68.9488C201.905 67.8534 204.939 66.2996 204.596 61.7592C204.211 56.6413 196.676 44.5123 196.478 44.3277C196.251 43.326 195.742 42.4101 195.012 41.6884C194.281 40.9668 193.359 40.4696 192.354 40.2556C192.532 39.3959 192.497 38.5057 192.252 37.6626C192.007 36.8196 191.559 36.0494 190.948 35.4191C190.337 34.7889 189.58 34.3178 188.745 34.0471C187.91 33.7763 187.021 33.714 186.157 33.8657C185.992 32.9834 185.611 32.156 185.046 31.4584C184.481 30.7609 183.752 30.2152 182.923 29.8707C182.094 29.5263 181.192 29.394 180.3 29.4859C179.407 29.5778 178.551 29.8909 177.81 30.3969C177.335 29.6142 176.669 28.9651 175.874 28.5105C175.08 28.0559 174.182 27.8108 173.267 27.7981C172.352 27.7854 171.448 28.0055 170.641 28.4379C169.834 28.8703 169.15 29.5007 168.654 30.2699C167.928 29.7406 167.082 29.4009 166.193 29.2815C165.303 29.1621 164.397 29.2668 163.558 29.5862C162.719 29.9055 161.973 30.4294 161.387 31.1101C160.802 31.7909 160.396 32.6071 160.206 33.4847C159.349 33.315 158.465 33.3559 157.627 33.6038C156.79 33.8517 156.026 34.2992 155.4 34.9078C154.774 35.5165 154.305 36.2681 154.033 37.098C153.762 37.9279 153.696 38.8113 153.842 39.6722C152.961 39.8373 152.136 40.2189 151.44 40.7826C150.743 41.3464 150.198 42.0745 149.854 42.9014C149.509 43.7283 149.376 44.628 149.466 45.5193C149.556 46.4106 149.866 47.2655 150.369 48.0069C149.585 48.4818 148.935 49.1485 148.48 49.9441C148.025 50.7397 147.78 51.6381 147.769 52.5545C147.757 53.471 147.979 54.3753 148.413 55.1823C148.848 55.9893 149.48 56.6724 150.252 57.1671C149.718 57.8914 149.374 58.7376 149.251 59.6288C149.128 60.5199 149.23 61.4277 149.547 62.2696C149.864 63.1114 150.387 63.8604 151.068 64.4485C151.749 65.0366 152.566 65.4451 153.445 65.6368C153.269 66.4959 153.306 67.3849 153.552 68.2267C153.798 69.0684 154.246 69.8374 154.856 70.4669C155.467 71.0965 156.221 71.5676 157.055 71.8394C157.889 72.1112 158.776 72.1755 159.64 72.0267C159.805 72.9075 160.186 73.7334 160.75 74.4299C161.314 75.1263 162.042 75.6715 162.869 76.0161C163.696 76.3607 164.596 76.4939 165.487 76.4038C166.379 76.3136 167.234 76.0028 167.975 75.4995C168.45 76.2835 169.116 76.9337 169.912 77.3889C170.707 77.844 171.606 78.0891 172.522 78.101C173.439 78.1129 174.343 77.8913 175.15 77.457C175.957 77.0226 176.64 76.39 177.135 75.6186C177.861 76.1505 178.707 76.4926 179.598 76.6138C180.49 76.735 181.397 76.6314 182.238 76.3125C183.079 75.9936 183.827 75.4695 184.413 74.7879C185 74.1063 185.407 73.2887 185.597 72.4097C186.641 72.6218 187.725 72.521 188.713 72.12C187.082 74.5238 184.614 76.2343 181.791 76.9184C169.827 80.2483 161.024 91.7224 147.063 100.006C132.481 100.024 117.929 98.6626 103.603 95.9394C103.538 95.9269 103.471 95.9319 103.408 95.9538C103.345 95.9758 103.289 96.0139 103.246 96.0644C101.984 97.5602 100.882 99.1837 99.9579 100.908C92.1398 99.4273 84.6264 96.642 77.7321 92.669C74.5252 90.9743 72.6161 90.5099 72.0565 91.2799C71.1397 92.5499 74.807 95.8719 76.1187 97.0348C73.7215 96.7949 71.3034 96.8616 68.9231 97.2333C68.703 97.2629 68.4995 97.3664 68.3459 97.5269C68.1923 97.6873 68.0977 97.8951 68.0777 98.1163C68.0777 98.9419 69.3795 99.6444 72.0466 100.265C76.214 101.23 80.3376 102.502 81.697 102.897C88.2596 104.8 86.7395 104.713 91.6887 107.036C92.032 107.294 92.1888 107.525 92.1511 107.725C91.9665 108.749 88.204 109.85 85.9576 110.503C84.6499 110.884 80.7147 111.924 80.9826 113.44C81.0957 114.067 81.8478 114.772 86.7097 114.631C90.2333 114.599 93.7479 114.991 97.1777 115.8C97.4361 118.239 97.9387 120.646 98.678 122.986C98.6981 123.048 98.7344 123.105 98.7831 123.149C98.8318 123.194 98.8914 123.225 98.9558 123.24C112.204 126.075 125.74 127.333 139.284 126.988C140.844 126.964 148.137 126.8 148.383 126.718C155.658 124.717 162.503 121.391 168.572 116.907L168.392 119.521C168.392 120.745 169.664 121.854 172.172 122.783L173.133 131.019C160.267 140.558 151.054 154.214 147.025 169.715L124.573 203.275C95.9116 209.625 64.0274 208.037 63.2753 208.5C61.9676 208.698 60.8047 209.871 59.8879 211.925L52.0592 212.451C49.2274 212.689 45.2188 215.914 43.0835 218.007C36.0253 225.341 30.2675 233.824 26.0569 243.091C21.8895 251.882 19.794 259.577 20.6056 263.173C20.6674 263.735 20.8896 264.267 21.2458 264.706C21.6019 265.145 22.0769 265.472 22.6139 265.648C28.8966 268.146 39.6802 258.19 44.2901 252.439C48.8404 246.926 54.9991 242.971 61.9061 241.128C62.2247 241.741 62.6743 242.277 63.223 242.698C63.7716 243.118 64.406 243.413 65.0812 243.561C65.8194 243.912 82.8619 244.087 83.9176 244.087C99.5388 244.051 115.146 243.157 130.669 241.408C135.537 240.854 140.243 239.329 144.511 236.923C148.778 234.516 152.518 231.278 155.511 227.4C165.475 214.463 174.984 201.788 182.013 187.058C241.289 311.56 239.296 307.597 239.562 307.766C239.777 307.869 243.333 307.871 243.609 307.869L245.442 310.901C243.9 315.362 242.918 319.998 242.519 324.701C242.445 325.583 242.636 326.467 243.066 327.241C243.496 328.014 244.148 328.641 244.936 329.043C-10.3995 329.043 0.0942921 328.845 0.0942921 329.418C0.0942921 329.992 -15.3467 329.791 348.961 329.791C349.062 329.793 349.159 329.756 349.232 329.686C349.304 329.616 349.346 329.521 349.348 329.42C349.35 329.32 349.312 329.223 349.243 329.15C349.173 329.077 349.078 329.035 348.977 329.033V329.033ZM270.835 299.058C267.338 301.567 263.476 303.523 259.383 304.855C256.355 297.244 203.527 164.576 199.796 156.007C196.325 148.035 197.252 132.59 197.44 129.963C200.236 130.295 203.006 130.815 205.731 131.519C233.986 194.36 243.857 238.697 270.835 299.058V299.058ZM299.439 59.5346C300.296 57.5185 301.404 55.6184 302.735 53.8789C303.561 52.9561 303.791 53.222 303.878 54.0396C303.873 56.8475 303.46 59.6396 302.652 62.3287C301.68 62.9895 300.612 63.6563 299.477 64.3131C299.406 64.3541 299.35 64.4175 299.318 64.4935C299.287 64.5694 299.281 64.6537 299.302 64.7331C299.324 64.8126 299.371 64.8828 299.436 64.9328C299.501 64.9828 299.581 65.0098 299.663 65.0097C300.889 64.3759 302.07 63.6585 303.198 62.8625C304.832 61.7431 306.378 60.4991 307.822 59.1417C307.837 59.1266 307.851 59.1099 307.863 59.0921L307.893 59.0682C309.653 57.43 311.222 55.5987 312.572 53.609C315.458 49.6659 316.178 49.4298 316.422 49.5726C316.803 49.7929 317.017 50.9181 316.565 52.8668C315.902 55.4256 314.798 57.8493 313.303 60.0287C311.788 61.7671 310.164 63.407 308.441 64.9383C308.37 65.0072 308.329 65.1016 308.327 65.2005C308.326 65.2995 308.364 65.3951 308.433 65.4661C308.502 65.5372 308.596 65.5779 308.695 65.5794C308.794 65.5809 308.89 65.543 308.961 65.4741C309.709 64.7438 311.856 62.8149 313.144 61.4C313.63 62.5095 313.78 63.7373 313.575 64.9312C313.371 66.1252 312.821 67.2329 311.993 68.1173L308.488 71.1496C308.431 71.1994 308.39 71.2656 308.371 71.3392C308.352 71.4128 308.357 71.4905 308.383 71.5617C308.41 71.6329 308.457 71.6943 308.52 71.7377C308.582 71.7811 308.656 71.8044 308.732 71.8045C308.931 71.8045 308.677 71.9712 312.521 68.6472C312.696 68.7503 312.847 68.8906 312.962 69.0583C313.077 69.2259 313.154 69.4169 313.187 69.6176C313.224 70.5489 313.056 71.4768 312.696 72.3365C312.336 73.1962 311.793 73.9669 311.104 74.5946C310.578 75.053 308.921 76.5473 308.782 76.6386C308.715 76.6821 308.663 76.7461 308.635 76.8213C308.607 76.8964 308.603 76.9786 308.626 77.0557C308.648 77.1328 308.695 77.2007 308.758 77.2492C308.822 77.2978 308.9 77.3244 308.98 77.3252C310.014 76.5905 310.991 75.7792 311.904 74.8982C312.088 74.9057 312.267 74.968 312.416 75.0772C312.565 75.1865 312.678 75.3376 312.741 75.5114C312.945 76.1399 312.965 76.8139 312.798 77.4534C312.631 78.0928 312.284 78.671 311.798 79.1192C311.302 79.4823 302.868 85.4833 300.743 86.9875C300.128 83.5581 298.82 80.2899 296.9 77.3824C294.981 74.4748 292.489 71.9888 289.576 70.076C293.168 67.2799 298.249 62.0707 299.439 59.5286V59.5346ZM182.001 77.6368C183.711 77.2786 185.313 76.5272 186.682 75.4422C188.051 74.3572 189.148 72.9684 189.887 71.3857C190.351 69.9315 190.683 68.4385 190.88 66.9247C191.447 63.5055 192.187 59.9692 192.608 55.6669C192.614 55.5977 192.601 55.5281 192.57 55.4658C192.539 55.4035 192.492 55.3509 192.433 55.3137C186.889 51.8925 189.237 47.3203 192.084 50.1322C192.66 50.7038 193.15 50.8605 193.541 50.6006C194.513 49.9536 193.787 46.9869 193.203 45.3835C194.111 45.0735 195.066 44.9244 196.025 44.9429C200.266 52.1604 203.169 57.3517 203.781 61.017C204.023 62.4755 204.126 63.7297 202.788 64.2536C200.865 65.0077 196.883 64.0552 194.868 63.5968C194.793 63.5795 194.714 63.5862 194.643 63.6159C194.572 63.6455 194.512 63.6967 194.471 63.7622C194.43 63.8277 194.411 63.9044 194.415 63.9814C194.42 64.0585 194.449 64.1321 194.497 64.1921C195.688 66.9187 196.662 68.6055 196.766 68.806C198.448 74.2255 197.79 75.7277 211.667 81.2306C207.019 82.5205 187.806 87.2157 174.393 80.9746C176.771 79.5325 179.329 78.4102 182.001 77.6368V77.6368ZM72.2272 99.5412C71.1257 99.3613 70.0673 98.9785 69.1056 98.412C68.8 98.1878 68.7345 98.0528 69.1056 97.9655C71.7578 97.5916 74.447 97.5609 77.107 97.8742C79.4865 99.7178 81.9713 101.421 84.5487 102.976C83.0762 102.498 76.3687 100.502 72.2272 99.5412ZM97.1222 115.02C93.7045 114.231 90.2053 113.85 86.6978 113.885C81.9907 114.022 81.7367 113.311 81.7367 113.311C81.701 113.099 82.5642 112.377 84.2808 111.801C87.3547 110.775 93.0123 109.634 92.923 107.606C93.0659 107.671 95.5941 108.828 95.7529 108.828C95.8391 108.829 95.9229 108.8 95.9901 108.746C96.0572 108.691 96.1034 108.616 96.121 108.531C96.1385 108.447 96.1263 108.359 96.0863 108.282C96.0463 108.206 95.9811 108.146 95.9017 108.112C91.8328 106.525 87.9686 104.457 84.3919 101.95C81.8399 100.214 81.695 100.393 79.0339 98.4259C75.9123 96.0942 72.382 92.5023 72.6836 91.7165C72.7868 91.5736 73.9338 91.4525 77.6447 93.4469C84.5542 97.1796 91.9538 99.9232 99.6265 101.597C97.5897 105.764 96.724 110.407 97.1222 115.028V115.02ZM169.253 117.876L170.128 105.026C170.132 104.943 170.108 104.86 170.059 104.792C170.01 104.725 169.94 104.675 169.859 104.652C169.779 104.629 169.693 104.634 169.616 104.666C169.539 104.698 169.474 104.755 169.434 104.828C169.303 105.026 168.751 106.963 165.183 118.322C159.95 121.736 154.223 124.325 148.202 125.996C130.961 126.683 116.159 126.224 99.3388 122.573C96.4613 113.153 97.4079 104.316 103.691 96.7213C118.026 99.4287 132.585 100.778 147.174 100.752C147.24 100.751 147.304 100.732 147.361 100.698C158.178 94.3042 165.258 86.5867 173.617 81.4489C179.103 83.886 185.066 85.0625 191.066 84.8919C198.418 84.798 205.724 83.7222 212.79 81.693C224.092 86.587 236.084 89.7011 248.339 90.9247C248.812 90.9822 249.911 91.3652 250.481 91.1489C261.897 86.8268 273.002 79.8157 285.407 69.0917C293.817 71.3798 300.425 81.6851 300.455 91.7462C286.689 103.31 271.544 111.392 255.362 119.163C239.487 118.459 219.408 115.506 204.84 109.334C204.473 109.225 204.015 109.559 204.777 110.235C205.497 110.874 207.243 112.248 211.252 115.542L211.077 118.096C205.904 112.577 175.161 112.521 169.253 117.883V117.876ZM172.256 117.05C180.529 113.855 199.839 113.875 207.976 117.088L205.694 130.731C195.24 128.112 184.302 128.112 173.849 130.731C172.694 120.858 173.033 123.736 172.256 117.066V117.05ZM43.7046 251.965C38.1164 258.932 30.1588 265.084 24.9873 265.285C35.5962 261.417 61.1778 218.408 53.7837 213.084L67.0378 212.193C70.59 218.591 71.4314 231.73 68.8536 238.864C58.9313 240.3 49.9338 244.21 43.7046 251.965ZM154.917 226.933C151.987 230.733 148.323 233.905 144.143 236.262C139.964 238.619 135.354 240.113 130.586 240.656C109.523 243.076 88.3033 243.839 67.1212 242.94C70.3162 240.535 71.0643 232.857 71.0901 228.86C88.3167 229.547 105.569 229.249 122.761 227.969C131.707 227.316 142.836 225.467 149.551 216.894C158.807 204.537 167.436 191.722 175.405 178.499L178.088 193.057C171.282 204.949 163.535 216.278 154.919 226.933H154.917ZM239.971 307.055L177.717 176.294C175.932 173.243 174.663 169.919 173.96 166.455C173.956 166.43 173.949 166.405 173.938 166.382C172.375 159.461 173.407 152.207 176.838 145.997C176.861 145.954 176.876 145.907 176.881 145.858C176.887 145.81 176.882 145.76 176.869 145.713C176.855 145.666 176.832 145.622 176.801 145.584C176.771 145.546 176.733 145.514 176.69 145.49C176.603 145.443 176.501 145.431 176.406 145.459C176.311 145.487 176.23 145.551 176.183 145.638C172.624 152.082 171.582 159.618 173.26 166.786L175.216 177.403C167.134 190.846 158.377 203.872 148.98 216.431C142.431 224.766 131.517 226.584 122.714 227.225C105.539 228.504 88.3061 228.8 71.098 228.114C71.236 222.414 70.0278 216.761 67.5717 211.615C66.1468 209.141 65.2141 209.194 65.7479 209.194C89.7201 209.194 109.114 207.607 124.885 203.971C125.248 203.888 147.785 169.773 147.73 169.973C154.844 144.104 172.615 132.239 173.686 131.552C181.202 129.651 188.994 129.086 196.706 129.881C196.508 132.519 195.515 148.043 199.121 156.306C202.84 164.84 255.438 296.943 258.678 305.083C252.593 306.771 246.27 307.437 239.967 307.055H239.971ZM243.269 324.753C243.668 320.053 244.657 315.422 246.214 310.969C246.282 310.699 246.29 310.84 244.482 307.851C251.976 307.944 259.383 306.23 266.075 302.854L270.224 311.046C270.754 311.818 279.404 312.513 295.889 326.426C296.121 326.622 296.287 326.884 296.364 327.178C296.442 327.471 296.427 327.781 296.322 328.066C296.217 328.351 296.027 328.596 295.778 328.769C295.529 328.942 295.232 329.035 294.928 329.033C294.928 329.033 253.606 328.813 247.006 328.793C246.489 328.793 245.978 328.686 245.505 328.479C245.031 328.272 244.606 327.969 244.255 327.59C243.904 327.21 243.636 326.762 243.466 326.274C243.297 325.786 243.231 325.268 243.271 324.753H243.269Z" fill="black"/>
<path d="M316.313 273.058L308.238 255.753C308.063 255.344 307.745 255.013 307.343 254.822C306.941 254.63 306.483 254.593 306.055 254.716L302.315 246.698C305.648 245.036 308.192 242.128 309.396 238.604C310.601 235.079 310.369 231.222 308.75 227.868C307.132 224.513 304.258 221.931 300.75 220.68C297.241 219.429 293.382 219.611 290.006 221.184C286.631 222.758 284.011 225.598 282.714 229.09C281.417 232.581 281.547 236.443 283.076 239.839C284.606 243.235 287.411 245.892 290.885 247.235C294.359 248.578 298.222 248.498 301.638 247.014L305.379 255.031C305.007 255.28 304.739 255.656 304.626 256.088C304.513 256.521 304.563 256.98 304.765 257.379L312.844 274.689C313.06 275.15 313.451 275.506 313.93 275.679C314.409 275.852 314.936 275.827 315.397 275.611C315.858 275.395 316.214 275.004 316.387 274.525C316.56 274.046 316.535 273.519 316.319 273.058H316.313ZM291.398 246.631C289.325 245.877 287.47 244.623 285.997 242.981C284.524 241.339 283.479 239.359 282.954 237.216C282.43 235.073 282.442 232.834 282.989 230.697C283.536 228.56 284.602 226.591 286.092 224.965C287.583 223.338 289.451 222.104 291.532 221.373C293.613 220.641 295.842 220.433 298.023 220.769C300.203 221.104 302.267 221.973 304.031 223.296C305.796 224.62 307.207 226.359 308.139 228.358C309.254 230.762 309.632 233.442 309.226 236.061C308.82 238.68 307.648 241.12 305.858 243.073C304.068 245.027 301.74 246.408 299.167 247.041C296.593 247.674 293.89 247.531 291.398 246.631Z" fill="#3B29AB"/>
</svg>
