<svg width="379" height="367" viewBox="0 0 379 367" fill="none" xmlns="http://www.w3.org/2000/svg">
<path d="M142.062 226.667L103.044 139.077C102.615 138.114 101.998 137.247 101.23 136.524C100.462 135.802 99.5584 135.239 98.5713 134.869C97.5843 134.498 96.5335 134.328 95.48 134.367C94.4265 134.406 93.3911 134.653 92.4341 135.095L75.0355 142.74C74.0704 143.17 73.2005 143.787 72.4765 144.556C71.7524 145.326 71.1887 146.231 70.8181 147.221C70.4476 148.21 70.2776 149.263 70.3181 150.319C70.3587 151.375 70.6089 152.412 71.0542 153.37C118.612 260.429 115.327 253.322 115.705 253.322C115.768 253.321 115.83 253.305 115.885 253.274C115.94 253.243 115.987 253.199 116.021 253.146C116.054 253.092 116.074 253.031 116.078 252.968C116.082 252.905 116.07 252.842 116.044 252.785L71.6315 153.051C70.8468 151.283 70.7959 149.275 71.4901 147.468C72.1843 145.662 73.5668 144.205 75.3341 143.417L92.7327 135.673C94.5016 134.888 96.5096 134.837 98.316 135.531C100.122 136.226 101.579 137.608 102.368 139.375C143.077 230.628 141.266 227.185 141.723 227.185C141.784 227.182 141.843 227.166 141.896 227.136C141.949 227.106 141.994 227.064 142.027 227.013C142.06 226.963 142.081 226.905 142.087 226.844C142.093 226.784 142.084 226.723 142.062 226.667Z" fill="black"/>
<path d="M160.634 268.392L154.662 254.755C154.611 254.685 154.538 254.635 154.455 254.612C154.371 254.589 154.282 254.596 154.203 254.631C154.124 254.666 154.059 254.727 154.019 254.804C153.98 254.881 153.968 254.969 153.985 255.054L159.957 268.71C160.742 270.479 160.793 272.487 160.099 274.293C159.405 276.1 158.022 277.557 156.255 278.345L138.856 286.089C137.09 286.875 135.084 286.928 133.278 286.238C131.472 285.548 130.013 284.17 129.221 282.406L123.667 269.905C123.646 269.859 123.617 269.818 123.58 269.783C123.543 269.749 123.5 269.722 123.453 269.705C123.405 269.687 123.355 269.679 123.305 269.681C123.255 269.683 123.205 269.694 123.16 269.715C123.114 269.736 123.073 269.766 123.038 269.803C123.004 269.84 122.977 269.883 122.96 269.93C122.942 269.977 122.934 270.027 122.936 270.078C122.938 270.128 122.95 270.177 122.971 270.223L128.544 282.705C128.965 283.676 129.575 284.554 130.339 285.286C131.103 286.019 132.005 286.592 132.993 286.972C133.981 287.352 135.035 287.531 136.093 287.499C137.151 287.467 138.192 287.225 139.155 286.786L156.573 279.022C157.545 278.599 158.423 277.987 159.156 277.221C159.888 276.455 160.46 275.55 160.838 274.56C161.217 273.57 161.393 272.515 161.358 271.455C161.323 270.396 161.077 269.355 160.634 268.392Z" fill="black"/>
<path d="M209.008 254.855L193.481 261.802C191.715 262.586 189.71 262.636 187.906 261.942C186.103 261.248 184.65 259.865 183.866 258.1L175.127 238.491C175.087 238.399 175.012 238.326 174.919 238.289C174.826 238.251 174.721 238.253 174.629 238.292C174.537 238.332 174.464 238.407 174.426 238.5C174.389 238.593 174.39 238.697 174.43 238.79L183.169 258.398C183.599 259.363 184.216 260.233 184.986 260.957C185.755 261.681 186.661 262.245 187.65 262.616C188.639 262.986 189.693 263.156 190.748 263.116C191.804 263.075 192.841 262.825 193.799 262.38L209.386 255.452C209.432 255.391 209.458 255.317 209.461 255.24C209.464 255.163 209.444 255.088 209.403 255.023C209.362 254.958 209.302 254.907 209.232 254.877C209.161 254.847 209.083 254.839 209.008 254.855Z" fill="black"/>
<path d="M215.378 244.543L205.425 222.128C205.375 222.053 205.299 221.998 205.212 221.974C205.124 221.95 205.031 221.958 204.949 221.996C204.867 222.035 204.802 222.101 204.765 222.184C204.728 222.267 204.722 222.36 204.748 222.447L214.701 244.862C214.752 244.937 214.827 244.992 214.915 245.016C215.002 245.04 215.095 245.032 215.177 244.994C215.259 244.955 215.324 244.889 215.361 244.806C215.398 244.723 215.404 244.63 215.378 244.543Z" fill="black"/>
<path d="M190.714 189.123L177.655 159.76C177.225 158.797 176.608 157.93 175.84 157.207C175.072 156.485 174.169 155.922 173.182 155.552C172.194 155.182 171.144 155.011 170.09 155.05C169.037 155.089 168.001 155.337 167.044 155.779L149.686 163.483C148.723 163.913 147.855 164.529 147.133 165.297C146.411 166.065 145.848 166.969 145.478 167.956C145.107 168.943 144.936 169.994 144.975 171.047C145.014 172.101 145.262 173.136 145.704 174.093L161.63 210.124C161.669 210.217 161.744 210.29 161.837 210.327C161.931 210.364 162.035 210.363 162.127 210.323C162.22 210.284 162.293 210.209 162.33 210.116C162.367 210.023 162.366 209.918 162.326 209.826L146.281 173.794C145.89 172.919 145.676 171.975 145.65 171.016C145.624 170.058 145.788 169.103 146.132 168.208C146.476 167.313 146.994 166.495 147.655 165.8C148.316 165.105 149.107 164.548 149.984 164.16L167.383 156.416C168.258 156.025 169.202 155.81 170.161 155.784C171.12 155.759 172.074 155.923 172.969 156.267C173.864 156.611 174.682 157.128 175.377 157.789C176.072 158.45 176.629 159.242 177.018 160.118L190.057 189.421C190.11 189.481 190.182 189.522 190.261 189.539C190.339 189.555 190.421 189.546 190.495 189.513C190.568 189.48 190.629 189.424 190.668 189.354C190.707 189.283 190.723 189.203 190.714 189.123Z" fill="black"/>
<path d="M251.35 178.493L240.879 154.983C239.99 153.057 238.377 151.559 236.391 150.813C234.405 150.068 232.205 150.136 230.268 151.001L212.85 158.765C211.887 159.195 211.02 159.812 210.297 160.58C209.575 161.347 209.012 162.251 208.642 163.238C208.271 164.225 208.101 165.276 208.14 166.329C208.179 167.383 208.426 168.418 208.869 169.375L218.344 190.676C218.394 190.751 218.47 190.806 218.557 190.83C218.645 190.854 218.738 190.846 218.82 190.808C218.902 190.769 218.967 190.702 219.004 190.62C219.041 190.537 219.047 190.444 219.021 190.357L209.406 168.977C208.621 167.208 208.57 165.2 209.265 163.394C209.959 161.588 211.341 160.13 213.109 159.342L230.507 151.599C232.276 150.814 234.284 150.763 236.09 151.457C237.897 152.151 239.354 153.534 240.142 155.301L250.593 178.791C250.872 179.229 251.549 178.931 251.35 178.493Z" fill="black"/>
<path d="M324.308 195.592L308.064 159.123C308.053 159.068 308.029 159.016 307.995 158.971C307.961 158.926 307.917 158.89 307.867 158.864C307.817 158.838 307.762 158.824 307.705 158.822C307.649 158.82 307.593 158.831 307.542 158.854C307.49 158.877 307.444 158.911 307.407 158.954C307.371 158.996 307.344 159.047 307.329 159.101C307.314 159.156 307.312 159.213 307.322 159.268C307.332 159.324 307.355 159.376 307.388 159.422L323.632 195.911C324.416 197.677 324.466 199.682 323.772 201.485C323.077 203.288 321.695 204.742 319.929 205.526L305.278 212.055C305.232 212.075 305.19 212.103 305.156 212.139C305.121 212.175 305.093 212.217 305.075 212.263C305.056 212.309 305.047 212.359 305.048 212.408C305.048 212.458 305.059 212.507 305.078 212.553C305.098 212.599 305.127 212.64 305.162 212.675C305.198 212.71 305.24 212.737 305.286 212.756C305.332 212.774 305.382 212.783 305.431 212.783C305.481 212.782 305.53 212.772 305.576 212.752L320.228 206.223C321.201 205.802 322.081 205.191 322.816 204.426C323.55 203.661 324.124 202.756 324.505 201.766C324.885 200.776 325.063 199.72 325.03 198.66C324.996 197.599 324.751 196.557 324.308 195.592Z" fill="black"/>
<path d="M293.652 128.526L286.844 113.258C286.804 113.166 286.803 113.061 286.84 112.968C286.877 112.875 286.95 112.8 287.043 112.76C287.135 112.721 287.239 112.719 287.333 112.757C287.426 112.794 287.501 112.867 287.54 112.959L294.348 128.228C294.368 128.274 294.378 128.323 294.379 128.373C294.38 128.422 294.37 128.472 294.352 128.518C294.334 128.564 294.306 128.606 294.271 128.642C294.237 128.678 294.195 128.706 294.149 128.726C294.057 128.765 293.953 128.766 293.859 128.729C293.766 128.692 293.691 128.619 293.652 128.526Z" fill="#0063D2"/>
<path d="M279.08 94.0677L266.639 66.1981C266.209 65.2355 265.592 64.3679 264.824 63.6455C264.056 62.9231 263.152 62.3604 262.165 61.9901C261.178 61.6197 260.128 61.449 259.074 61.4879C258.021 61.5268 256.985 61.7746 256.028 62.2167L238.61 69.9804C237.647 70.4103 236.78 71.0271 236.057 71.795C235.335 72.5628 234.772 73.4665 234.402 74.4535C234.031 75.4406 233.861 76.4914 233.9 77.5449C233.939 78.5984 234.186 79.6337 234.628 80.5907C255.809 128.188 254.396 125.262 254.754 125.262C254.817 125.261 254.879 125.244 254.934 125.213C254.99 125.183 255.036 125.138 255.07 125.085C255.103 125.032 255.123 124.971 255.127 124.908C255.131 124.845 255.119 124.781 255.093 124.724L235.285 80.1329C234.894 79.2574 234.68 78.3133 234.654 77.3546C234.628 76.396 234.792 75.4418 235.136 74.5467C235.48 73.6516 235.998 72.8331 236.659 72.1384C237.32 71.4436 238.111 70.8862 238.988 70.498L256.387 62.7542C258.153 61.9683 260.159 61.9145 261.965 62.6048C263.771 63.2951 265.23 64.6732 266.021 66.437C279.26 96.1181 278.404 94.5852 278.802 94.5852C278.857 94.5748 278.909 94.5521 278.955 94.5188C279 94.4855 279.038 94.4425 279.064 94.3929C279.091 94.3433 279.106 94.2884 279.109 94.2321C279.112 94.1758 279.102 94.1197 279.08 94.0677Z" fill="black"/>
<path d="M359.623 191.412L292.657 40.996C289.414 33.7322 283.42 28.0525 275.992 25.2046C268.565 22.3567 260.31 22.5734 253.042 25.8071L130.456 80.3718C126.775 72.2682 120.041 65.9482 111.72 62.7896C103.399 59.631 94.1666 59.8899 86.0358 63.51C77.9051 67.1301 71.5351 73.8177 68.3147 82.1149C65.0943 90.4121 65.2846 99.6459 68.8442 107.803L51.5252 115.527C47.9257 117.127 44.6767 119.421 41.964 122.277C39.2513 125.133 37.1281 128.496 35.7157 132.173C34.3032 135.85 33.6293 139.769 33.7324 143.707C33.8354 147.645 34.7135 151.524 36.3164 155.122L103.283 305.518C104.883 309.12 107.177 312.371 110.035 315.086C112.892 317.8 116.257 319.924 119.937 321.337C123.616 322.749 127.538 323.423 131.478 323.318C135.418 323.213 139.298 322.333 142.898 320.727L199.931 295.326C199.976 295.308 200.017 295.282 200.052 295.248C200.086 295.214 200.114 295.174 200.132 295.129C200.151 295.085 200.16 295.037 200.16 294.988C200.159 294.94 200.149 294.892 200.13 294.848C200.11 294.802 200.082 294.761 200.046 294.726C200.011 294.691 199.968 294.664 199.922 294.645C199.876 294.627 199.827 294.617 199.777 294.618C199.727 294.619 199.678 294.629 199.632 294.649L142.599 320.05C139.085 321.623 135.295 322.487 131.447 322.593C127.598 322.698 123.767 322.043 120.172 320.666C116.577 319.288 113.289 317.215 110.497 314.564C107.705 311.913 105.463 308.738 103.9 305.219L37.0131 154.823C35.4499 151.314 34.5935 147.531 34.4929 143.69C34.3922 139.85 35.0493 136.027 36.4266 132.441C37.8038 128.854 39.8743 125.574 42.5196 122.788C45.165 120.003 48.3333 117.765 51.8437 116.204L253.341 26.484C256.86 24.92 260.653 24.0656 264.503 23.9697C268.353 23.8738 272.185 24.5383 275.777 25.9252C279.37 27.312 282.654 29.394 285.441 32.0518C288.228 34.7096 290.464 37.8911 292.02 41.4141L358.927 191.711C362.074 198.797 362.282 206.843 359.506 214.082C356.729 221.322 351.195 227.165 344.116 230.33L236.738 278.106C236.663 278.144 236.602 278.206 236.566 278.282C236.529 278.358 236.52 278.445 236.538 278.527C236.556 278.609 236.602 278.683 236.667 278.737C236.732 278.791 236.813 278.821 236.898 278.823C237.097 278.823 237.057 278.823 245.896 274.842C250.05 283.68 256.581 291.189 264.758 296.529C272.935 301.869 282.436 304.83 292.199 305.08C330.38 306.075 356.996 267.257 341.289 232.46L344.414 231.067C351.688 227.823 357.377 221.824 360.229 214.388C363.081 206.952 362.863 198.688 359.623 191.412ZM69.5409 107.505C66.7761 101.18 66.0794 94.1432 67.5502 87.3989L98.7044 94.5255L69.5409 107.505ZM100.635 93.57L116.919 66.1981C122.569 69.622 127.051 74.6737 129.779 80.6903L100.635 93.57ZM246.592 274.483L291.522 254.576L254.137 286.268C251.095 282.733 248.556 278.794 246.592 274.563V274.483ZM254.555 286.726L293.115 254.039L298.987 304.025C290.759 304.87 282.448 303.749 274.737 300.756C267.027 297.762 260.137 292.981 254.635 286.806L254.555 286.726ZM338.164 278.763L294.19 253.322L340.612 232.659C343.915 239.994 345.417 248.012 344.995 256.045C344.573 264.079 342.237 271.895 338.184 278.843L338.164 278.763Z" fill="black"/>
<path d="M366.232 98.3075L362.788 142.978C362.517 146.638 360.959 150.083 358.39 152.703C355.821 155.323 352.407 156.949 348.754 157.292C335.342 158.118 321.887 157.938 308.502 156.754C304.521 170.33 303.486 181.817 302.53 197.185C284.315 193.004 267.275 191.014 252.186 192.547C250.408 176.806 250.221 160.926 251.628 145.148L240.52 148.453C217.926 146.462 199.811 142.063 177.177 136.509C176.164 132.456 176.013 128.236 176.733 124.121C177.453 120.006 179.028 116.088 181.357 112.621C209.983 119.847 234.847 124.903 264.209 125.182L276.651 159.023L300.42 129.561C313.13 130.639 325.888 131.058 338.641 130.815L341.428 96.078C349.763 95.2199 358.184 95.977 366.232 98.3075Z" fill="#D2716B"/>
<path d="M154.225 255.313C154.124 255.313 154.028 255.273 153.957 255.202C153.886 255.131 153.846 255.035 153.846 254.935C153.846 254.835 153.886 254.738 153.957 254.667C154.028 254.596 154.124 254.557 154.225 254.557C154.325 254.557 154.421 254.596 154.492 254.667C154.563 254.738 154.603 254.835 154.603 254.935C154.603 255.035 154.563 255.131 154.492 255.202C154.421 255.273 154.325 255.313 154.225 255.313Z" fill="#000001"/>
<path d="M181.059 133.145C181.185 133.295 181.34 133.42 181.515 133.51C181.69 133.601 181.881 133.656 182.077 133.673C182.273 133.69 182.47 133.667 182.658 133.607C182.845 133.548 183.019 133.451 183.169 133.324C183.472 133.068 183.663 132.704 183.7 132.309C183.737 131.915 183.618 131.521 183.368 131.214C183.109 130.909 182.741 130.718 182.344 130.681C181.946 130.644 181.549 130.764 181.238 131.015C180.932 131.274 180.742 131.643 180.708 132.043C180.674 132.442 180.801 132.838 181.059 133.145Z" fill="#000001"/>
<path d="M216.871 127.053C217.13 127.357 217.498 127.549 217.896 127.586C218.294 127.623 218.69 127.503 219.001 127.252C219.307 126.993 219.498 126.624 219.531 126.224C219.565 125.825 219.439 125.429 219.18 125.122C218.916 124.816 218.542 124.627 218.138 124.597C217.735 124.567 217.337 124.699 217.03 124.963C216.724 125.227 216.535 125.602 216.506 126.005C216.476 126.408 216.607 126.807 216.871 127.113V127.053Z" fill="#000001"/>
<path d="M245.238 144.571C245.369 144.722 245.528 144.845 245.706 144.934C245.885 145.022 246.079 145.075 246.278 145.089C246.476 145.103 246.676 145.078 246.865 145.014C247.053 144.951 247.228 144.851 247.378 144.721C247.529 144.59 247.652 144.431 247.741 144.253C247.83 144.074 247.882 143.88 247.896 143.682C247.91 143.483 247.885 143.283 247.821 143.094C247.758 142.906 247.658 142.731 247.528 142.581C247.397 142.43 247.238 142.307 247.06 142.218C246.881 142.129 246.687 142.077 246.489 142.063C246.29 142.049 246.09 142.074 245.902 142.138C245.713 142.201 245.538 142.301 245.388 142.431C245.237 142.562 245.114 142.721 245.025 142.899C244.937 143.078 244.884 143.272 244.87 143.47C244.856 143.669 244.881 143.869 244.945 144.057C245.008 144.246 245.108 144.421 245.238 144.571Z" fill="#000001"/>
<path d="M311.986 150.165C312.25 150.469 312.624 150.655 313.025 150.683C313.426 150.711 313.822 150.579 314.126 150.315C314.43 150.051 314.616 149.677 314.644 149.276C314.672 148.874 314.539 148.478 314.275 148.175C314.145 148.024 313.985 147.901 313.807 147.812C313.629 147.724 313.435 147.671 313.236 147.657C313.037 147.643 312.838 147.668 312.649 147.732C312.46 147.795 312.286 147.895 312.135 148.025C311.985 148.156 311.862 148.315 311.773 148.493C311.684 148.672 311.631 148.866 311.617 149.065C311.604 149.263 311.629 149.463 311.692 149.652C311.755 149.841 311.855 150.015 311.986 150.165Z" fill="#000001"/>
<path d="M356.836 138.997C357.027 139.222 357.28 139.385 357.564 139.467C357.847 139.548 358.148 139.543 358.429 139.453C358.71 139.363 358.958 139.192 359.142 138.962C359.326 138.731 359.437 138.451 359.462 138.157C359.487 137.864 359.425 137.569 359.282 137.311C359.14 137.052 358.924 136.842 358.663 136.706C358.401 136.57 358.105 136.515 357.812 136.547C357.519 136.579 357.241 136.698 357.015 136.887C356.865 137.014 356.74 137.169 356.65 137.343C356.559 137.518 356.504 137.709 356.487 137.905C356.47 138.101 356.493 138.298 356.553 138.486C356.613 138.673 356.709 138.847 356.836 138.997Z" fill="#000001"/>
<path d="M270.321 161.532C270.448 161.683 270.603 161.807 270.777 161.898C270.952 161.988 271.143 162.044 271.339 162.06C271.535 162.077 271.733 162.055 271.92 161.995C272.108 161.935 272.281 161.838 272.431 161.711C272.737 161.452 272.928 161.082 272.961 160.683C272.995 160.284 272.869 159.887 272.611 159.581C272.484 159.43 272.329 159.306 272.154 159.215C271.98 159.124 271.789 159.069 271.593 159.052C271.397 159.036 271.199 159.058 271.012 159.118C270.824 159.178 270.65 159.274 270.5 159.402C270.195 159.661 270.004 160.03 269.97 160.43C269.937 160.829 270.063 161.225 270.321 161.532Z" fill="#000001"/>
<path d="M280.713 162.607C280.906 162.836 281.162 163.002 281.45 163.085C281.737 163.168 282.043 163.164 282.328 163.073C282.614 162.982 282.865 162.809 283.052 162.575C283.239 162.341 283.352 162.057 283.377 161.758C283.402 161.46 283.338 161.161 283.193 160.899C283.048 160.637 282.829 160.424 282.563 160.287C282.297 160.15 281.996 160.094 281.698 160.128C281.401 160.162 281.12 160.283 280.892 160.477C280.586 160.736 280.395 161.105 280.362 161.505C280.328 161.904 280.454 162.3 280.713 162.607Z" fill="#000001"/>
<path d="M294.807 187.908C295 188.137 295.256 188.304 295.544 188.387C295.831 188.47 296.137 188.465 296.422 188.375C296.708 188.284 296.959 188.11 297.146 187.876C297.333 187.642 297.446 187.358 297.471 187.06C297.496 186.761 297.432 186.462 297.287 186.2C297.142 185.939 296.923 185.726 296.657 185.588C296.391 185.451 296.09 185.396 295.792 185.43C295.495 185.464 295.214 185.585 294.986 185.778C294.68 186.037 294.489 186.407 294.456 186.806C294.422 187.205 294.548 187.602 294.807 187.908Z" fill="#000001"/>
<path d="M256.187 184.246C256.314 184.396 256.469 184.521 256.643 184.612C256.818 184.702 257.009 184.757 257.205 184.774C257.401 184.791 257.599 184.768 257.786 184.709C257.974 184.649 258.147 184.552 258.297 184.425C258.603 184.166 258.794 183.796 258.827 183.397C258.861 182.998 258.735 182.601 258.476 182.295C258.35 182.144 258.195 182.02 258.02 181.929C257.846 181.838 257.655 181.783 257.459 181.766C257.263 181.75 257.065 181.772 256.878 181.832C256.69 181.892 256.516 181.988 256.366 182.116C256.06 182.375 255.87 182.744 255.836 183.144C255.803 183.543 255.929 183.939 256.187 184.246Z" fill="#000001"/>
<path d="M344.394 103.563C344.653 103.869 345.023 104.06 345.422 104.093C345.822 104.127 346.218 104.001 346.524 103.742C346.68 103.62 346.809 103.468 346.905 103.296C347.001 103.123 347.062 102.933 347.085 102.737C347.107 102.541 347.09 102.342 347.035 102.153C346.98 101.963 346.887 101.786 346.763 101.632C346.633 101.481 346.473 101.356 346.295 101.266C346.116 101.176 345.921 101.122 345.721 101.107C345.522 101.093 345.321 101.117 345.131 101.18C344.941 101.243 344.765 101.342 344.613 101.473C344.462 101.604 344.337 101.763 344.247 101.942C344.157 102.121 344.103 102.315 344.089 102.515C344.074 102.715 344.098 102.915 344.161 103.105C344.224 103.295 344.323 103.471 344.454 103.623L344.394 103.563Z" fill="#000001"/>
<path d="M29.8267 168.599L8.74533 160.377C8.65285 160.345 8.55134 160.349 8.46221 160.39C8.37308 160.431 8.3033 160.505 8.26757 160.596L0.0261422 181.657C-0.0108152 181.753 -0.00850778 181.858 0.032558 181.952C0.0736239 182.045 0.150083 182.118 0.245117 182.155C0.34015 182.192 0.445972 182.19 0.539304 182.149C0.632635 182.108 0.70583 182.031 0.742788 181.936L8.6259 161.751L26.7212 202.978C26.7408 203.023 26.7692 203.065 26.8049 203.1C26.8405 203.134 26.8826 203.162 26.9288 203.18C26.975 203.199 27.0244 203.208 27.0742 203.207C27.124 203.207 27.1731 203.196 27.2189 203.177C27.2646 203.157 27.3061 203.129 27.3408 203.093C27.3756 203.057 27.403 203.015 27.4215 202.969C27.44 202.923 27.4492 202.874 27.4486 202.824C27.448 202.774 27.4376 202.725 27.4179 202.679L9.32263 161.412L29.5679 169.375C29.6708 169.409 29.7832 169.401 29.8803 169.353C29.9773 169.304 30.0511 169.219 30.0855 169.116C30.1198 169.013 30.1118 168.901 30.0633 168.804C30.0147 168.707 29.9296 168.633 29.8267 168.599Z" fill="black"/>
<path d="M351.979 285.77C351.63 284.965 351.484 284.086 351.556 283.212C351.627 282.337 351.913 281.493 352.389 280.756C352.864 280.018 353.514 279.409 354.282 278.983C355.049 278.556 355.909 278.326 356.787 278.312C357.664 278.298 358.532 278.5 359.312 278.901C360.093 279.303 360.762 279.89 361.261 280.612C361.76 281.334 362.074 282.168 362.173 283.04C362.273 283.912 362.156 284.795 361.833 285.611C361.437 286.584 360.764 287.419 359.898 288.013C359.031 288.606 358.009 288.932 356.959 288.949C355.908 288.966 354.876 288.674 353.991 288.108C353.105 287.543 352.406 286.73 351.979 285.77ZM355.045 279.44C354.208 279.792 353.494 280.385 352.995 281.144C352.496 281.903 352.234 282.793 352.242 283.701C352.25 284.609 352.528 285.494 353.04 286.244C353.553 286.994 354.277 287.574 355.12 287.911C355.963 288.248 356.888 288.327 357.776 288.138C358.664 287.948 359.476 287.499 360.108 286.847C360.74 286.195 361.164 285.37 361.326 284.476C361.488 283.583 361.38 282.661 361.017 281.829C360.535 280.725 359.639 279.856 358.521 279.409C357.403 278.962 356.154 278.973 355.045 279.44Z" fill="#0063D2"/>
<path d="M373.657 295.445C372.694 295.445 371.749 295.185 370.922 294.692C370.095 294.199 369.417 293.491 368.959 292.643C368.502 291.796 368.283 290.84 368.325 289.878C368.366 288.916 368.668 287.983 369.197 287.178C369.727 286.373 370.464 285.727 371.331 285.308C372.198 284.888 373.162 284.711 374.121 284.795C375.081 284.88 375.999 285.222 376.78 285.786C377.56 286.35 378.174 287.115 378.555 288C378.909 288.811 379.056 289.698 378.981 290.58C378.906 291.462 378.612 292.311 378.126 293.051C377.639 293.79 376.976 294.397 376.195 294.815C375.415 295.233 374.543 295.45 373.657 295.445ZM373.657 285.492C372.673 285.495 371.716 285.815 370.928 286.405C370.14 286.995 369.563 287.824 369.283 288.767C369.003 289.711 369.035 290.72 369.373 291.644C369.712 292.569 370.339 293.359 371.162 293.899C371.985 294.439 372.961 294.699 373.943 294.641C374.926 294.582 375.864 294.209 376.617 293.576C377.371 292.943 377.901 292.084 378.128 291.126C378.355 290.168 378.267 289.163 377.878 288.259C377.513 287.44 376.918 286.747 376.165 286.262C375.411 285.778 374.533 285.524 373.638 285.531L373.657 285.492Z" fill="#0063D2"/>
<path d="M358.966 301.597L370.791 271.736C370.805 271.684 370.829 271.636 370.863 271.594C370.896 271.552 370.939 271.518 370.986 271.494C371.034 271.47 371.087 271.456 371.141 271.454C371.194 271.451 371.248 271.46 371.298 271.48C371.347 271.5 371.393 271.531 371.43 271.569C371.467 271.608 371.496 271.654 371.514 271.705C371.532 271.755 371.539 271.809 371.534 271.863C371.53 271.916 371.514 271.968 371.488 272.015L359.663 301.875C359.618 301.956 359.546 302.017 359.459 302.048C359.373 302.079 359.278 302.077 359.192 302.043C359.107 302.009 359.037 301.944 358.995 301.862C358.953 301.78 358.943 301.686 358.966 301.597Z" fill="#0063D2"/>
<path d="M331.495 71.2544L335.158 61.8384L325.782 58.2353C325.737 58.2179 325.696 58.1915 325.661 58.1577C325.626 58.124 325.599 58.0835 325.58 58.0389C325.562 57.9943 325.552 57.9463 325.553 57.898C325.553 57.8496 325.563 57.8018 325.583 57.7575L329.226 48.3217L319.73 44.4797C319.683 44.4643 319.64 44.4393 319.603 44.4064C319.567 44.3736 319.537 44.3334 319.516 44.2886C319.496 44.2437 319.485 44.1951 319.484 44.1458C319.483 44.0965 319.492 44.0475 319.511 44.0019L323.174 34.5661L313.479 30.8037C313.399 30.759 313.338 30.6865 313.307 30.5997C313.276 30.513 313.278 30.418 313.312 30.3326C313.346 30.2471 313.41 30.177 313.492 30.1355C313.575 30.094 313.669 30.0838 313.758 30.1069L323.712 34.0883C323.759 34.1059 323.803 34.1329 323.84 34.1677C323.877 34.2024 323.906 34.2443 323.927 34.2907C323.947 34.3371 323.958 34.3872 323.959 34.4379C323.959 34.4887 323.95 34.539 323.931 34.586L320.268 44.0019L329.783 47.8439C329.871 47.8833 329.94 47.9547 329.977 48.0434C330.014 48.1322 330.016 48.2317 329.982 48.3217L326.339 57.7575L335.696 61.281C335.743 61.2986 335.787 61.3256 335.824 61.3604C335.861 61.3952 335.89 61.437 335.911 61.4834C335.931 61.5299 335.942 61.58 335.943 61.6307C335.943 61.6814 335.934 61.7317 335.914 61.7787L332.112 71.553C332.056 71.5984 331.989 71.627 331.917 71.6354C331.846 71.6438 331.773 71.6316 331.709 71.6002C331.644 71.5689 331.589 71.5197 331.551 71.4584C331.514 71.3971 331.494 71.3263 331.495 71.2544Z" fill="black"/>
<path d="M335.635 54.8114L339.298 45.3756L329.942 41.8521C329.893 41.837 329.847 41.8115 329.808 41.7773C329.77 41.743 329.739 41.7008 329.718 41.6535C329.697 41.6063 329.687 41.5551 329.688 41.5034C329.689 41.4518 329.701 41.401 329.723 41.3544L333.386 31.9385L323.87 28.0964C323.778 28.0567 323.703 27.9832 323.663 27.8908C323.622 27.7984 323.618 27.694 323.651 27.5988L327.314 18.1828L317.62 14.4403C317.539 14.3957 317.478 14.3231 317.447 14.2364C317.416 14.1497 317.418 14.0547 317.452 13.9692C317.486 13.8838 317.551 13.8137 317.633 13.7722C317.715 13.7306 317.809 13.7205 317.898 13.7436L327.852 17.725C327.899 17.7404 327.942 17.7653 327.979 17.7982C328.015 17.8311 328.045 17.8712 328.066 17.9161C328.086 17.9609 328.097 18.0095 328.098 18.0589C328.099 18.1082 328.09 18.1572 328.071 18.2027L324.408 27.6386L333.923 31.4806C334.015 31.5163 334.089 31.5861 334.129 31.6752C334.17 31.7644 334.175 31.8659 334.142 31.9584L330.479 41.3743L339.836 44.9177C339.883 44.9331 339.926 44.9581 339.963 44.9909C339.999 45.0238 340.029 45.0639 340.049 45.1088C340.07 45.1536 340.081 45.2023 340.082 45.2516C340.083 45.3009 340.074 45.3499 340.055 45.3955L336.252 55.1697C336.241 55.2291 336.216 55.2849 336.178 55.3325C336.141 55.3801 336.093 55.418 336.038 55.4431C335.983 55.4683 335.923 55.4798 335.862 55.4769C335.802 55.4739 335.743 55.4566 335.691 55.4262C335.639 55.3958 335.594 55.3534 335.562 55.3024C335.529 55.2514 335.51 55.1934 335.504 55.1332C335.499 55.073 335.508 55.0123 335.531 54.9563C335.553 54.9004 335.589 54.8507 335.635 54.8114Z" fill="black"/>
<path d="M200.926 7.75154L188.365 13.5643L182.552 1.02303C182.536 0.970883 182.509 0.92271 182.474 0.881807C182.438 0.840903 182.393 0.808233 182.344 0.786026C182.294 0.763818 182.24 0.752598 182.186 0.753131C182.131 0.753664 182.078 0.765937 182.028 0.789113C181.979 0.812288 181.935 0.84582 181.9 0.887419C181.865 0.929017 181.839 0.977702 181.825 1.03015C181.81 1.08259 181.807 1.13756 181.816 1.19131C181.825 1.24505 181.845 1.29629 181.875 1.34154L187.688 13.8828L175.146 19.7156C175.091 19.727 175.039 19.7507 174.994 19.7848C174.95 19.819 174.913 19.8627 174.887 19.9128C174.861 19.963 174.847 20.0182 174.845 20.0746C174.844 20.1309 174.855 20.1869 174.877 20.2385C174.9 20.2901 174.934 20.3359 174.977 20.3727C175.02 20.4094 175.07 20.4362 175.124 20.4509C175.179 20.4657 175.236 20.4681 175.291 20.4579C175.347 20.4478 175.399 20.4254 175.445 20.3924L188.006 14.5597L193.819 27.1209C193.869 27.1962 193.945 27.2509 194.032 27.2751C194.119 27.2994 194.213 27.2915 194.294 27.2529C194.376 27.2144 194.442 27.1477 194.479 27.065C194.516 26.9823 194.522 26.8891 194.496 26.8024L188.683 14.2611L201.224 8.42837C201.28 8.41689 201.331 8.39322 201.376 8.35909C201.421 8.32495 201.458 8.28122 201.484 8.23109C201.509 8.18096 201.524 8.1257 201.525 8.06934C201.527 8.01299 201.516 7.95698 201.493 7.9054C201.471 7.85382 201.437 7.80798 201.394 7.77123C201.351 7.73449 201.301 7.70776 201.246 7.69301C201.192 7.67827 201.135 7.67587 201.079 7.68599C201.024 7.69612 200.971 7.71852 200.926 7.75154Z" fill="#0063D2"/>
<path d="M69.222 294.549L63.9666 282.983C63.9382 282.922 63.9262 282.856 63.932 282.789C63.9378 282.723 63.9611 282.659 63.9995 282.604C64.0379 282.55 64.0901 282.506 64.1508 282.478C64.2114 282.45 64.2783 282.439 64.3448 282.445L76.9856 283.7C77.0505 283.704 77.1129 283.726 77.1663 283.763C77.2196 283.8 77.2618 283.851 77.2884 283.91C77.315 283.97 77.3249 284.035 77.3172 284.1C77.3095 284.164 77.2843 284.226 77.2444 284.277L69.859 294.609C69.8237 294.665 69.7736 294.71 69.7141 294.739C69.6546 294.769 69.5881 294.781 69.5221 294.775C69.4561 294.769 69.393 294.744 69.3401 294.704C69.2871 294.664 69.2462 294.611 69.222 294.549ZM64.9221 283.182L69.6201 293.553L76.269 284.297L64.9221 283.182Z" fill="black"/>
<path d="M377.082 71.3539C376.464 70.697 375.091 71.1349 372.802 72.5682C373.797 71.1946 374.792 69.8211 375.529 68.5868C375.679 68.4161 375.761 68.1968 375.761 67.9697C375.761 67.7426 375.679 67.5233 375.529 67.3526C373.916 65.9193 368.581 71.4932 367.108 73.0659C368.163 70.7965 368.143 70.1396 367.725 69.8211C367.307 69.5025 366.431 69.8211 363.744 72.1701C360.764 74.9875 358.137 78.1559 355.921 81.6059C355.835 81.7088 355.729 81.7922 355.609 81.8506C355.489 81.909 355.357 81.9409 355.224 81.9443C353.91 81.6656 352.895 75.9723 351.939 73.4839C351.481 72.3492 350.605 70.478 349.53 70.6771C348.874 70.7965 348.137 71.5928 348.237 76.6491C348.045 82.9147 347.48 89.1632 346.544 95.3615C344.892 95.3615 343.22 95.5208 341.568 95.6999C341.52 95.6943 341.472 95.6988 341.426 95.7133C341.38 95.7278 341.338 95.7518 341.302 95.7838C341.267 95.8158 341.238 95.8551 341.219 95.899C341.199 95.9428 341.189 95.9904 341.19 96.0384L338.442 130.437C291.203 131.214 289.352 126.317 288.456 123.968C287.424 121.033 287.057 117.905 287.381 114.811C288.576 108.639 297.912 101.752 298.012 101.672C298.111 101.592 298.171 101.373 298.012 100.378C296.618 93.4704 295.185 86.3437 289.75 81.7054C289.685 81.6467 289.6 81.6142 289.511 81.6142C289.423 81.6142 289.338 81.6467 289.272 81.7054C284.94 85.3325 281.205 89.6184 278.204 94.406C275.477 98.8452 270.879 106.788 273.745 110.809C274.486 111.651 275.408 112.313 276.443 112.744C277.478 113.175 278.598 113.365 279.717 113.298C279.259 114.671 277.965 118.633 277.169 122.196C276.612 124.704 273.865 124.804 267.216 124.724C234.509 124.445 213.567 119.986 181.756 112.163C181.678 112.142 181.596 112.145 181.521 112.174C181.445 112.203 181.381 112.255 181.338 112.322L180.661 113.437C174.994 112.128 169.259 111.138 163.481 110.471C157.947 110.112 155.518 110.471 154.424 113.775C153.732 114.023 153.122 114.457 152.662 115.03C152.202 115.602 151.909 116.291 151.816 117.02C151.218 117.3 150.694 117.715 150.286 118.234C149.878 118.752 149.598 119.359 149.467 120.006C146.779 120.006 143.893 120.006 141.763 120.006C138.976 120.185 137.005 121.121 136.985 122.256C136.985 122.833 137.403 123.331 138.259 123.749L74.5574 119.767C74.435 119.791 74.3247 119.857 74.2455 119.953C74.1662 120.049 74.1228 120.17 74.1228 120.295C74.1228 120.42 74.1662 120.54 74.2455 120.637C74.3247 120.733 74.435 120.798 74.5574 120.822L153.05 127.909C155.175 130.624 158.146 132.55 161.491 133.384C166.298 134.727 171.344 134.979 176.261 134.12C176.401 134.936 176.56 135.733 176.779 136.549C176.794 136.614 176.825 136.674 176.871 136.723C176.916 136.772 176.974 136.808 177.038 136.827C206.241 144.014 224.098 148.154 250.832 149.548C249.797 165.117 250.264 180.75 252.226 196.229C234.638 192.181 216.793 189.348 198.816 187.749C193.978 187.351 189.161 188.723 185.259 191.611C166.072 205.721 147.608 220.79 129.938 236.76C129.886 236.829 129.859 236.913 129.859 236.999C129.859 237.085 129.886 237.169 129.938 237.238C130.436 238.054 130.953 238.87 131.491 239.706C121.299 249.48 92.9513 268.073 94.5239 271.557C96.0966 275.041 113.495 270.343 123.648 270.343C126.528 270.371 129.395 269.955 132.148 269.108C135.731 267.655 140.111 260.548 145.306 255.791C146.58 256.965 147.914 258.12 149.288 259.254C149.358 259.311 149.446 259.342 149.536 259.342C149.627 259.342 149.715 259.311 149.785 259.254C165.442 245.535 182.178 233.1 199.831 222.069C211.292 223.172 222.624 225.358 233.673 228.598C228.55 232.301 223.633 236.182 218.922 240.243C213.914 244.542 210.257 250.197 208.391 256.527C202.724 276.175 198.604 296.236 196.069 316.526C196.059 316.61 196.077 316.694 196.12 316.767C196.163 316.839 196.229 316.894 196.308 316.925C197.92 317.482 199.532 318 201.165 318.477C199.174 332.412 188.405 364.562 191.789 366.254C195.173 367.946 206.062 353.493 213.985 347.283C216.288 345.545 218.303 343.456 219.957 341.091C221.948 337.767 220.992 329.147 222.067 322.339C224.058 322.538 226.267 322.698 228.377 322.737C228.468 322.739 228.556 322.707 228.626 322.649C228.695 322.59 228.741 322.509 228.756 322.419C230.939 303.373 235.075 284.601 241.098 266.401C293.055 241.717 288.874 243.727 289.81 243.229C314.415 229.852 303.625 198.837 302.988 197.046C303.944 181.12 305.278 168.778 308.821 157.073C322.097 158.286 335.444 158.519 348.754 157.769C352.507 157.427 356.016 155.764 358.659 153.078C361.301 150.392 362.905 146.856 363.187 143.098L366.67 98.3276C366.671 98.2456 366.647 98.1653 366.601 98.0976C366.554 98.0299 366.488 97.9781 366.411 97.9494C365.894 97.8101 364.242 97.3124 361.395 96.7351C361.395 95.0231 361.554 93.6694 361.634 92.4949C363.007 88.7049 365.258 85.2939 368.203 82.5415C368.402 82.3425 375.21 75.0366 377.121 72.5881C377.262 72.4109 377.335 72.1897 377.328 71.9637C377.32 71.7377 377.233 71.5216 377.082 71.3539ZM348.754 76.7088C348.754 71.7321 349.411 71.5131 349.451 71.5131C349.491 71.5131 350.327 72.1103 351.023 73.8621C352.138 76.6889 353.014 82.5415 355.005 82.8003C352.25 86.7678 349.89 90.9948 347.958 95.4212H347.122C348.059 89.2243 348.604 82.9744 348.754 76.7088ZM299.664 129.9L277.09 157.769C278.662 145.208 280.613 133.185 281.967 127.511C288.536 138.121 288.058 137.464 288.357 137.464C288.655 137.464 287.959 138.181 295.523 129.064C296.738 129.442 298.091 129.701 299.664 129.9ZM288.297 125.62C289.193 126.814 290.945 127.989 294.747 128.964L288.456 136.529L282.484 126.974C284.497 126.969 286.483 126.513 288.297 125.64V125.62ZM279.18 116.582L282.962 112.979C283.006 112.919 283.031 112.847 283.034 112.773C283.037 112.699 283.019 112.626 282.981 112.562C282.942 112.498 282.886 112.447 282.819 112.415C282.752 112.383 282.677 112.372 282.604 112.382C282.604 112.382 276.353 113.556 274.143 110.391C271.934 107.226 274.92 101.294 276.91 97.9494C279.538 93.55 282.066 91.4996 284.037 92.1764C286.426 92.9926 287.76 97.5115 287.322 100.856C287.182 102.01 287.919 102.847 290.089 101.433C293.134 99.4424 294.727 104.618 288.894 106.828C287.919 107.206 287.023 110.053 286.764 111.207C285.876 115.802 286.262 120.552 287.879 124.943C286.125 125.898 284.135 126.332 282.142 126.194C280.15 126.057 278.238 125.353 276.632 124.167C277.766 123.191 277.328 122.674 279.18 116.602V116.582ZM275.995 124.664C277.483 125.811 279.235 126.564 281.091 126.854L273.128 135.534L269.246 125.58C271.534 125.788 273.84 125.482 275.995 124.684V124.664ZM268.41 125.56L272.61 136.37C272.637 136.427 272.677 136.477 272.727 136.516C272.777 136.555 272.836 136.582 272.898 136.593C272.961 136.605 273.025 136.602 273.085 136.583C273.146 136.565 273.202 136.533 273.247 136.489L281.071 127.909C279.737 133.762 277.866 145.328 276.353 157.451L264.628 125.6L268.41 125.56ZM176.142 133.403C171.315 134.295 166.346 134.049 161.63 132.687C157.011 131.492 153.15 127.849 153.369 126.715C153.369 126.356 154.225 126.416 154.503 126.456C157.415 127.013 160.235 127.971 162.884 129.303C162.974 129.348 163.078 129.355 163.173 129.323C163.268 129.291 163.347 129.223 163.392 129.133C163.436 129.044 163.444 128.94 163.412 128.845C163.38 128.749 163.312 128.671 163.222 128.626C157.131 125.441 150.144 124.983 143.316 124.306C138.618 123.848 137.344 122.853 137.344 122.315C137.344 121.778 138.797 120.962 141.325 120.802C146.229 120.616 151.14 120.696 156.036 121.041C156.514 121.041 156.613 120.345 156.036 120.285C155.1 120.285 152.552 120.066 149.686 120.006C150.462 117.578 151.915 116.881 157.648 117.418C157.748 117.424 157.846 117.393 157.923 117.33C158.001 117.268 158.052 117.178 158.067 117.08C158.072 117.03 158.068 116.98 158.054 116.932C158.04 116.884 158.016 116.839 157.985 116.8C157.953 116.761 157.914 116.729 157.87 116.705C157.826 116.682 157.778 116.667 157.728 116.662C155.875 116.367 153.987 116.367 152.134 116.662C152.751 114.492 154.424 113.377 160.376 114.074C160.473 114.08 160.568 114.048 160.643 113.985C160.717 113.922 160.764 113.832 160.774 113.736C160.779 113.686 160.775 113.636 160.761 113.587C160.747 113.539 160.723 113.495 160.692 113.456C160.66 113.417 160.622 113.385 160.578 113.361C160.534 113.337 160.485 113.322 160.435 113.317C158.561 113.046 156.657 113.046 154.782 113.317C155.638 111.148 157.529 110.69 162.884 111.048C168.555 111.699 174.184 112.669 179.745 113.955C176.401 119.851 175.132 126.7 176.142 133.403ZM251.947 145.168C251.953 145.108 251.943 145.046 251.92 144.99C251.896 144.933 251.86 144.883 251.813 144.844C251.766 144.805 251.71 144.778 251.65 144.765C251.59 144.752 251.528 144.754 251.469 144.77L240.381 148.095C219.181 146.243 202.558 142.342 177.436 136.151C176.489 132.227 176.353 128.151 177.038 124.174C177.722 120.196 179.213 116.4 181.417 113.019C210.84 120.245 232.717 124.963 263.832 125.5L276.134 159.043C274.62 170.003 273.795 181.046 273.666 192.109C266.593 191.471 259.478 191.471 252.405 192.109C250.717 176.515 250.564 160.792 251.947 145.168ZM131.77 268.412C129.1 269.199 126.331 269.594 123.548 269.586C114.351 269.586 96.2558 273.826 95.1012 271.238C95.1012 271.238 95.1012 270.681 96.3155 269.248C99.7196 269.905 107.662 268.71 111.982 268.133C129.401 265.804 129.022 267.217 135.134 265.784C134.183 266.858 133.042 267.749 131.77 268.412ZM142.081 257.881C134.182 256.722 126.54 254.217 119.487 250.476C123.648 247.271 128.684 243.289 131.809 240.323C135.482 245.815 139.799 250.848 144.669 255.313C143.893 255.99 142.997 256.905 142.101 257.881H142.081ZM199.672 221.312C199.637 221.297 199.6 221.29 199.562 221.29C199.525 221.29 199.487 221.297 199.453 221.312C181.806 232.315 165.077 244.724 149.427 258.418C146.638 256.12 143.979 253.668 141.464 251.073C156.947 237.672 173.264 225.265 190.316 213.927C194.288 211.237 199.133 210.155 203.872 210.901C218.14 213.071 232.26 216.116 246.154 220.018C242.173 222.566 238.231 225.22 234.33 227.981C223.029 224.631 211.428 222.398 199.692 221.312H199.672ZM196.805 316.327C199.343 296.179 203.443 276.259 209.068 256.746C210.9 250.556 214.481 245.026 219.38 240.821C232.722 229.402 247.306 219.519 262.856 211.359C262.907 211.34 262.954 211.31 262.992 211.272C263.031 211.234 263.061 211.188 263.08 211.137C263.099 211.086 263.107 211.031 263.103 210.977C263.099 210.923 263.084 210.87 263.058 210.823C263.032 210.775 262.996 210.733 262.952 210.701C262.909 210.668 262.859 210.645 262.805 210.634C262.752 210.622 262.697 210.623 262.644 210.634C262.591 210.646 262.541 210.669 262.498 210.702C257.189 213.462 252.053 216.415 247.09 219.56C232.95 215.564 218.576 212.446 204.051 210.224C199.125 209.471 194.096 210.594 189.957 213.369C172.868 224.736 156.518 237.176 141.006 250.615C137.071 246.51 133.599 241.984 130.655 237.118C148.247 221.231 166.624 206.236 185.717 192.188C189.468 189.412 194.108 188.108 198.756 188.526C216.85 190.13 234.81 192.997 252.505 197.105C252.564 197.119 252.626 197.117 252.684 197.102C252.743 197.086 252.797 197.057 252.842 197.016C252.887 196.975 252.922 196.923 252.943 196.866C252.964 196.809 252.97 196.748 252.962 196.687C252.803 195.453 252.644 194.179 252.485 192.865C265.487 191.883 278.562 192.693 291.343 195.274C291.144 197.404 290.487 208.552 298.111 214.623C277.185 224.966 257.109 236.947 238.072 250.456C231.832 254.967 227.267 261.423 225.093 268.81C220.278 285.824 216.685 303.16 214.343 320.687C208.392 319.726 202.532 318.268 196.825 316.327H196.805ZM219.181 340.793C217.609 343.071 215.688 345.087 213.487 346.765C206.301 352.399 194.576 367.01 192.107 365.676C192.107 365.676 191.709 365.398 191.848 363.327C197.084 360.54 207.236 347.92 214.622 342.127C216.674 340.503 218.548 338.668 220.216 336.652C220.157 338.086 219.811 339.494 219.2 340.793H219.181ZM220.793 326.141C213.874 330.121 206.317 332.87 198.458 334.263C199.732 329.187 201.225 322.996 201.842 318.696C208.174 320.5 214.657 321.726 221.211 322.359C221.052 323.394 220.932 324.648 220.813 326.141H220.793ZM289.213 242.732C288.635 243.03 272.451 250.695 240.56 265.864C240.506 265.883 240.456 265.915 240.414 265.956C240.373 265.998 240.341 266.048 240.322 266.102C234.286 284.281 230.136 303.032 227.94 322.061C223.653 321.898 219.38 321.492 215.139 320.846C217.482 303.359 221.074 286.062 225.889 269.088C228.008 261.873 232.47 255.57 238.57 251.172C257.68 237.602 277.836 225.567 298.848 215.181C299.928 215.987 301.105 216.656 302.351 217.171C302.397 217.19 302.446 217.2 302.495 217.199C302.545 217.198 302.593 217.187 302.638 217.166C302.683 217.146 302.723 217.116 302.756 217.079C302.789 217.043 302.814 216.999 302.829 216.952C302.863 216.862 302.861 216.763 302.824 216.674C302.787 216.585 302.718 216.514 302.63 216.475C291.184 211.896 291.9 198.061 292.139 195.553C295.384 196.15 298.748 196.847 302.192 197.543C303.148 200.151 313.021 229.892 289.233 242.732H289.213ZM365.814 98.5665L362.39 142.939C362.134 146.516 360.609 149.885 358.092 152.439C355.574 154.993 352.228 156.565 348.655 156.874C333.137 157.79 317.57 157.424 302.112 155.779C302.041 155.767 301.967 155.777 301.902 155.808C301.836 155.839 301.781 155.889 301.745 155.951C301.708 156.014 301.691 156.086 301.696 156.158C301.702 156.23 301.729 156.299 301.774 156.356L306.313 163.204C303.985 174.241 302.593 185.456 302.152 196.727C293.049 194.589 283.811 193.072 274.502 192.188C274.615 181.159 275.433 170.148 276.95 159.223L300.52 130.039C311.289 131.492 327.792 131.453 338.622 131.254C338.801 131.254 338.96 131.094 339 130.836L341.747 96.4962C349.835 95.6874 358.003 96.3895 365.834 98.5665H365.814ZM360.579 96.5758C356.68 95.8368 352.722 95.4503 348.754 95.4212C351.694 89.0518 355.354 83.0405 359.663 77.5051C360.959 75.788 362.426 74.2072 364.043 72.7872C364.927 71.8417 365.972 71.0599 367.128 70.478C366.859 71.7236 366.381 72.9149 365.715 74.0015C361.753 81.9244 360.997 87.9363 360.698 96.5758H360.579ZM361.773 90.0862C362.234 85.1721 363.548 80.3759 365.655 75.9125C366.611 74.4394 371.946 68.7461 374.354 67.9498C374.752 67.8304 375.091 67.8304 374.872 68.1887C373.1 70.9557 369.696 75.1959 368.084 77.8634C365.773 81.8241 363.673 85.9041 361.793 90.0862H361.773ZM376.445 72.1701C374.175 75.0765 366.75 82.8799 365.297 84.6118C367.017 81.0428 369.07 77.6437 371.428 74.4594C376.007 71.1548 376.863 71.6326 376.464 72.1701H376.445Z" fill="#000001"/>
</svg>
