<svg width="345" height="294" viewBox="0 0 345 294" fill="none" xmlns="http://www.w3.org/2000/svg">
<path d="M146.437 36.8562C146.509 36.8115 146.596 36.7953 146.68 36.8107C146.764 36.8262 146.839 36.8723 146.891 36.9401C146.942 37.0078 146.967 37.0924 146.961 37.1776C146.954 37.2627 146.916 37.3422 146.854 37.4008C127.511 52.3658 114.375 73.966 109.972 98.0472C105.568 122.128 110.209 146.99 123 167.851C135.792 188.712 155.832 204.099 179.265 211.053C202.699 218.006 227.872 216.036 249.942 205.521C248.746 179.745 235.555 164.952 234.032 163.137C231.261 164.716 228.161 165.625 224.977 165.792C221.793 165.959 218.615 165.379 215.694 164.099C210.53 162.136 205.873 159.034 202.067 155.023C197.639 149.682 194.773 143.217 193.786 136.345C193.783 136.291 193.792 136.237 193.812 136.186C193.832 136.136 193.864 136.091 193.904 136.054C193.944 136.018 193.991 135.991 194.043 135.975C194.095 135.959 194.15 135.956 194.203 135.964C197.682 136.877 201.018 138.27 204.115 140.102C204.803 137.465 206.009 134.991 207.664 132.826C209.319 130.662 211.388 128.85 213.751 127.498C216.114 126.145 218.723 125.279 221.425 124.95C224.126 124.621 226.866 124.835 229.484 125.581C229.485 122.021 229.979 118.478 230.952 115.053C230.97 115.003 230.999 114.957 231.038 114.92C231.076 114.883 231.123 114.856 231.174 114.84C231.225 114.824 231.279 114.821 231.331 114.829C231.384 114.838 231.434 114.859 231.477 114.89C236.905 119.203 241.022 124.949 243.365 131.48C244.859 136.712 245.174 142.212 244.289 147.581C243.93 150.669 242.882 153.636 241.223 156.263C239.564 158.89 237.335 161.109 234.703 162.755C236.696 164.934 249.054 179.328 250.667 203.887C251.728 197.232 254.2 190.882 257.916 185.263C278.772 152.954 279.66 139.757 280.784 121.733C276.843 121.133 273.271 119.07 270.779 115.953C268.286 112.836 267.056 108.894 267.332 104.911C267.609 100.927 269.371 97.1932 272.27 94.4516C275.168 91.7099 278.99 90.1611 282.976 90.1129C283.638 87.102 285.125 84.336 287.271 82.1262C289.595 79.991 292.482 78.5675 295.589 78.024C295.642 78.0132 295.698 78.0162 295.751 78.0328C295.803 78.0493 295.851 78.0789 295.888 78.1188C295.926 78.1586 295.954 78.2074 295.968 78.2607C295.982 78.3139 295.982 78.3699 295.969 78.4233C295.323 81.5097 293.815 84.3486 291.62 86.6097C289.81 88.2887 287.641 89.5305 285.278 90.24C289.459 90.7454 293.268 92.894 295.868 96.213C298.468 99.532 299.645 103.749 299.14 107.938C298.636 112.126 296.491 115.942 293.177 118.546C289.864 121.15 285.654 122.329 281.472 121.824C280.24 141.79 278.464 154.751 258.495 185.681C254.668 191.482 252.191 198.069 251.247 204.958C257.266 201.995 262.967 198.425 268.262 194.303C269.277 185.724 272.716 177.613 278.174 170.924C278.204 170.879 278.245 170.842 278.292 170.816C278.339 170.791 278.392 170.778 278.446 170.778C278.5 170.778 278.553 170.791 278.601 170.816C278.648 170.842 278.688 170.879 278.718 170.924C280.398 173.979 281.718 177.22 282.65 180.58C298.087 162.599 306.557 139.658 306.515 115.943C306.515 66.1347 271.18 24.8762 222.489 17.9242C222.398 17.9242 222.311 17.8878 222.246 17.8232C222.181 17.7585 222.145 17.6708 222.145 17.5793C222.145 17.4878 222.181 17.4001 222.246 17.3354C222.311 17.2707 222.398 17.2344 222.489 17.2344C240.14 19.9283 256.745 27.3225 270.567 38.6439C284.388 49.9654 294.92 64.7984 301.061 81.5921C307.202 98.3859 308.727 116.524 305.475 134.11C302.224 151.696 294.316 168.084 282.578 181.56C285.495 192.451 284.39 202.598 277.885 213.525C282.161 208.891 287.392 205.243 293.215 202.834C301.326 200.017 310.059 199.514 318.439 201.382C318.489 201.397 318.536 201.423 318.575 201.458C318.614 201.494 318.644 201.538 318.663 201.587C318.682 201.636 318.69 201.689 318.686 201.742C318.681 201.794 318.665 201.845 318.638 201.89C313.699 208.924 306.904 214.442 299.013 217.827C294.284 219.586 289.272 220.46 284.227 220.405C280.709 220.424 277.201 220.04 273.771 219.261C271.814 220.532 256.575 231.35 258.35 258.16C260.67 274.206 257.626 271.229 261.703 264.186C264.495 259.728 268.474 256.139 273.191 253.822C273.239 253.798 273.293 253.786 273.347 253.788C273.401 253.789 273.453 253.804 273.5 253.831C273.547 253.858 273.586 253.896 273.614 253.942C273.643 253.988 273.659 254.04 273.662 254.094C274.178 259.313 273.059 264.563 270.461 269.117C267.864 273.67 263.916 277.301 259.166 279.506L276.888 284.244C278.063 284.631 279.045 285.453 279.633 286.543C280.221 287.632 280.37 288.906 280.05 290.102C279.73 291.299 278.965 292.327 277.912 292.976C276.859 293.625 275.598 293.845 274.387 293.592L237.657 283.59C237.044 283.428 236.469 283.147 235.965 282.762C235.461 282.378 235.037 281.897 234.718 281.349C234.399 280.8 234.191 280.194 234.106 279.565C234.021 278.936 234.061 278.296 234.223 277.682C234.384 277.068 234.665 276.492 235.049 275.987C235.433 275.482 235.913 275.058 236.461 274.739C237.008 274.419 237.613 274.211 238.242 274.126C238.87 274.041 239.508 274.08 240.121 274.242L258.459 279.161C258.372 277.068 258.481 274.972 258.785 272.899C259.075 250.899 250.414 232.675 249.906 213.743C249.898 213.689 249.898 213.634 249.906 213.58C249.906 212.6 249.906 211.456 250.015 208.733C250.015 207.898 250.015 207.063 250.015 206.265C227.766 216.969 202.343 219.022 178.67 212.027C154.996 205.032 134.756 189.486 121.868 168.4C108.98 147.314 104.362 122.188 108.908 97.8867C113.453 73.5856 126.839 51.8384 146.473 36.8562H146.437ZM203.898 140.865C200.95 139.108 197.781 137.752 194.475 136.835C195.496 143.386 198.277 149.535 202.52 154.624C204.883 157.215 207.657 159.398 210.729 161.086C207.837 158.676 205.668 155.511 204.463 151.941C203.257 148.372 203.061 144.538 203.898 140.865V140.865ZM215.912 163.518C216.997 163.961 218.111 164.331 219.246 164.625C218.245 158.064 215.476 151.901 211.237 146.8C209.274 144.625 207.01 142.742 204.514 141.21C203.561 145.674 204.175 150.331 206.251 154.395C208.328 158.458 211.74 161.681 215.912 163.518V163.518ZM242.44 151.992C237.117 147.683 233.075 141.995 230.753 135.546C229.831 132.565 229.348 129.464 229.321 126.343C226.772 125.608 224.102 125.394 221.468 125.714C218.835 126.033 216.293 126.881 213.994 128.205C211.694 129.53 209.684 131.304 208.084 133.423C206.483 135.542 205.324 137.961 204.677 140.538C207.306 142.129 209.692 144.091 211.762 146.365C216.152 151.626 219 158.003 219.989 164.788C224.647 165.717 229.482 164.934 233.612 162.585C237.741 160.235 240.888 156.475 242.477 151.992H242.44ZM283.067 121.243C286.074 121.243 289.013 120.35 291.514 118.676C294.014 117.003 295.962 114.624 297.113 111.842C298.264 109.059 298.565 105.997 297.978 103.043C297.392 100.088 295.944 97.3749 293.817 95.245C291.691 93.1152 288.982 91.6648 286.033 91.0771C283.084 90.4895 280.027 90.7911 277.249 91.9438C274.471 93.0964 272.097 95.0484 270.426 97.5528C268.755 100.057 267.864 103.002 267.864 106.014C267.864 110.053 269.466 113.926 272.317 116.782C275.168 119.638 279.035 121.243 283.067 121.243ZM236.877 275.313C236.17 275.725 235.599 276.338 235.238 277.073C234.877 277.809 234.741 278.635 234.848 279.448C234.954 280.261 235.298 281.025 235.837 281.642C236.375 282.26 237.084 282.704 237.874 282.919L274.641 292.793C275.705 293.08 276.84 292.931 277.795 292.379C278.75 291.828 279.447 290.919 279.733 289.853C280.019 288.786 279.87 287.65 279.32 286.693C278.769 285.737 277.862 285.039 276.797 284.752L240.03 274.878C238.963 274.609 237.833 274.765 236.877 275.313V275.313ZM278.211 171.74C273.17 178.09 269.933 185.684 268.842 193.722C273.578 189.985 277.963 185.824 281.944 181.288C281.049 177.979 279.797 174.778 278.211 171.74V171.74ZM298.886 217.119C306.497 213.86 313.076 208.582 317.913 201.854C309.818 200.146 301.411 200.679 293.595 203.397C285.986 206.651 279.412 211.93 274.587 218.662C282.683 220.346 291.084 219.788 298.886 217.047V217.119ZM257.589 253.023C257.879 229.771 271.27 219.987 273.409 218.535C269.607 211.351 267.734 203.301 267.973 195.174C262.654 199.241 256.949 202.774 250.939 205.72C249.181 221.076 254.618 236.324 257.589 253.023Z" fill="#0000D5"/>
<path d="M220.061 151.865C219.793 151.396 219.62 150.878 219.553 150.342C219.485 149.805 219.524 149.261 219.667 148.74C219.81 148.219 220.055 147.731 220.387 147.305C220.719 146.878 221.131 146.522 221.601 146.256L223.413 145.24L220.007 139.268C218.336 140.361 216.593 141.338 214.788 142.19C214.715 142.186 214.646 142.158 214.59 142.112C214.534 142.065 214.494 142.002 214.476 141.932C214.458 141.861 214.463 141.787 214.489 141.719C214.516 141.651 214.563 141.594 214.625 141.555L219.681 138.669L218.448 136.509C218.414 136.471 218.388 136.426 218.373 136.377C218.358 136.328 218.355 136.276 218.362 136.226C218.37 136.175 218.388 136.127 218.417 136.084C218.445 136.042 218.483 136.006 218.527 135.98C218.571 135.954 218.62 135.938 218.671 135.933C218.722 135.928 218.773 135.935 218.821 135.953C218.869 135.97 218.913 135.998 218.948 136.035C218.984 136.071 219.012 136.115 219.028 136.164L220.26 138.324L222.072 137.307C222.78 136.91 223.589 136.73 224.398 136.79C225.207 136.85 225.981 137.147 226.623 137.644C227.264 138.142 227.745 138.818 228.006 139.587C228.267 140.357 228.295 141.186 228.089 141.972C227.948 142.498 227.705 142.991 227.372 143.421C227.039 143.851 226.623 144.21 226.15 144.477L224.338 145.494L227.744 151.466L232.764 148.616C232.843 148.57 232.937 148.558 233.026 148.582C233.114 148.605 233.189 148.663 233.235 148.743C233.28 148.822 233.293 148.917 233.269 149.005C233.245 149.094 233.187 149.169 233.108 149.215L228.052 152.101L229.285 154.261C229.313 154.314 229.327 154.373 229.325 154.433C229.324 154.493 229.307 154.552 229.276 154.603C229.244 154.655 229.201 154.697 229.148 154.726C229.096 154.755 229.036 154.77 228.976 154.769C228.723 154.769 228.795 154.769 227.454 152.428C226.363 153.305 225.041 153.847 223.649 153.989C222.916 153.987 222.197 153.789 221.567 153.416C220.936 153.042 220.416 152.507 220.061 151.865V151.865ZM225.751 143.878C226.542 143.426 227.12 142.677 227.36 141.797C227.599 140.917 227.48 139.978 227.028 139.186C226.577 138.394 225.829 137.814 224.951 137.575C224.073 137.335 223.135 137.454 222.344 137.906L220.532 138.923L223.975 144.986L225.751 143.878ZM225.352 152.809L227.164 151.811L223.776 145.821L221.964 146.837C221.569 147.059 221.224 147.359 220.947 147.717C220.67 148.076 220.467 148.486 220.351 148.924C220.181 149.578 220.207 150.266 220.424 150.905C220.641 151.544 221.041 152.105 221.573 152.518C222.106 152.932 222.748 153.179 223.419 153.231C224.091 153.283 224.763 153.136 225.352 152.809V152.809Z" fill="#0000D5"/>
<path d="M149.282 35.6953C150.279 35.6953 169.469 17.4167 202.811 15.1114C202.902 15.1114 202.99 15.0751 203.054 15.0104C203.119 14.9457 203.155 14.858 203.155 14.7665C203.155 14.6751 203.119 14.5873 203.054 14.5227C202.99 14.458 202.902 14.4216 202.811 14.4216C183.261 15.8056 164.567 22.9975 149.119 35.0781C149.065 35.1194 149.023 35.176 149.001 35.2407C148.979 35.3054 148.976 35.3753 148.994 35.4415C149.011 35.5077 149.048 35.5672 149.099 35.6124C149.151 35.6576 149.214 35.6864 149.282 35.6953Z" fill="#0000D5"/>
<path d="M46.3196 95.8674C46.3196 95.8674 69.2424 112.785 79.0638 128.54C84.1987 122.997 88.4745 116.713 91.7483 109.898C102.621 87.7173 116.32 87.3906 122.372 85.5936C126.25 90.4582 133.607 95.105 140.113 97.9366C144.578 115.034 147.447 132.511 148.684 150.14C148.928 153.332 148.215 156.524 146.636 159.307L117.027 211.547C109.855 209.55 103.137 206.185 97.2389 201.636C104.487 181.216 110.775 162.229 121.883 148.997C119.219 143.806 115.378 136.708 112.823 131.045C107.948 139.213 99.7939 147.381 89.6825 154.896C86.4628 157.299 82.4599 158.402 78.4664 157.989C74.4729 157.575 70.78 155.675 68.1189 152.664L30.6271 110.28C34.9496 104.569 40.2657 99.6865 46.3196 95.8674V95.8674Z" fill="#E6E7E8"/>
<path d="M217.507 35.1506L235.156 0.789706C235.192 0.714369 235.255 0.655494 235.332 0.625127C235.41 0.594759 235.496 0.595193 235.573 0.626342L269.64 12.8242C269.719 12.853 269.784 12.9094 269.824 12.9829C269.864 13.0563 269.876 13.1419 269.858 13.2235L266.07 30.8305L289.99 22.4445C290.071 22.4201 290.159 22.427 290.236 22.4639C290.313 22.5008 290.374 22.5651 290.406 22.6442L292.019 26.456C292.037 26.4953 292.048 26.5378 292.049 26.5811C292.051 26.6243 292.044 26.6675 292.029 26.708C292.013 26.7485 291.99 26.7856 291.961 26.8172C291.931 26.8487 291.896 26.874 291.856 26.8916L263.823 41.2677C261.54 51.8863 261.758 51.124 261.558 51.2329C261.359 51.3418 261.558 51.2329 258.605 50.289C258.518 50.2577 258.448 50.1933 258.408 50.1099C258.369 50.0265 258.365 49.9309 258.396 49.8443C258.427 49.7576 258.492 49.687 258.575 49.6478C258.658 49.6087 258.754 49.6043 258.84 49.6355V49.6355C259.148 48.9095 257.771 48.4012 254.509 48.3468C254.506 48.3998 254.491 48.4515 254.465 48.4977C254.439 48.544 254.403 48.5836 254.359 48.6135C254.315 48.6433 254.265 48.6627 254.213 48.6699C254.16 48.6772 254.107 48.6722 254.056 48.6554L236.225 42.266C236.16 42.2247 236.11 42.1623 236.084 42.0889C236.058 42.0156 236.058 41.9356 236.083 41.862C236.108 41.7884 236.157 41.7255 236.223 41.6835C236.288 41.6415 236.366 41.6229 236.443 41.6307C237.023 39.8156 237.041 38.5631 234.214 40.8683C234.262 40.9265 234.29 40.9988 234.293 41.0742C234.295 41.1495 234.274 41.2238 234.231 41.2856C234.187 41.3474 234.125 41.3933 234.053 41.4163C233.982 41.4392 233.905 41.4381 233.834 41.4129L217.525 35.5862C217.469 35.5286 217.436 35.4523 217.433 35.3719C217.429 35.2915 217.456 35.2127 217.507 35.1506V35.1506Z" fill="#0000D5"/>
<path d="M309.179 47.4208C313.075 39.3071 312.803 39.7609 313.021 39.7064C313.238 39.652 312.64 39.3434 320.468 44.0084C320.508 44.031 320.542 44.0612 320.57 44.0971C320.597 44.1331 320.618 44.1742 320.629 44.218C320.641 44.2618 320.644 44.3076 320.638 44.3526C320.632 44.3976 320.618 44.441 320.595 44.4803C320.55 44.5597 320.474 44.6177 320.386 44.6416C320.342 44.6534 320.297 44.6564 320.252 44.6506C320.207 44.6447 320.163 44.63 320.124 44.6074L313.764 40.7774L319.816 60.3811C340.057 67.1516 338.861 66.6978 338.951 66.9338L344.877 79.3313C344.897 79.3718 344.909 79.4159 344.912 79.4611C344.916 79.5063 344.91 79.5517 344.896 79.5947C344.881 79.6377 344.859 79.6774 344.829 79.7116C344.799 79.7458 344.763 79.7739 344.723 79.7941C344.682 79.8144 344.638 79.8265 344.593 79.8297C344.548 79.8329 344.503 79.8272 344.46 79.8129C344.417 79.7985 344.377 79.7759 344.343 79.7462C344.309 79.7165 344.281 79.6804 344.261 79.6399L338.408 67.315L319.381 60.9801C319.127 60.9801 319.58 62.1055 313.039 41.0134L309.795 47.7839C309.747 47.8657 309.669 47.9251 309.577 47.9489C309.485 47.9727 309.388 47.9591 309.306 47.9109C309.224 47.8628 309.165 47.7841 309.141 47.6922C309.117 47.6003 309.131 47.5027 309.179 47.4208Z" fill="#0000D5"/>
<path d="M277.523 108.683C277.601 107.792 278.024 106.967 278.701 106.383C279.378 105.8 280.255 105.505 281.147 105.56V105.56L282.741 105.706L283.231 100.26L278.574 99.8246C278.498 99.8069 278.43 99.7641 278.382 99.7031C278.334 99.6421 278.308 99.5666 278.308 99.4888C278.308 99.411 278.334 99.3355 278.382 99.2745C278.43 99.2136 278.498 99.1707 278.574 99.153L283.249 99.5705L283.43 97.6101C283.43 97.1382 284.137 97.2471 284.1 97.6101L283.919 99.5523C285.514 99.6975 286.764 99.5523 287.833 100.932C288.251 101.429 288.518 102.036 288.603 102.681C288.688 103.325 288.588 103.98 288.314 104.57C288.04 105.159 287.603 105.657 287.056 106.007C286.508 106.356 285.873 106.541 285.224 106.541L283.303 106.395L282.814 111.841L287.543 112.313C287.619 112.331 287.686 112.373 287.735 112.434C287.783 112.495 287.809 112.571 287.809 112.649C287.809 112.726 287.783 112.802 287.735 112.863C287.686 112.924 287.619 112.967 287.543 112.984L282.85 112.567L282.687 114.527C282.687 114.619 282.651 114.707 282.586 114.771C282.522 114.836 282.434 114.872 282.343 114.872C282.251 114.872 282.164 114.836 282.099 114.771C282.035 114.707 281.998 114.619 281.998 114.527L282.18 112.585L280.585 112.44C280.137 112.397 279.701 112.265 279.304 112.053C278.907 111.84 278.556 111.551 278.271 111.201C277.986 110.852 277.774 110.449 277.645 110.017C277.517 109.585 277.475 109.131 277.523 108.683V108.683ZM285.115 105.924C285.486 105.984 285.866 105.968 286.23 105.875C286.594 105.782 286.936 105.615 287.233 105.385C287.53 105.154 287.777 104.864 287.957 104.534C288.137 104.203 288.248 103.839 288.282 103.464C288.315 103.089 288.271 102.711 288.153 102.354C288.034 101.996 287.843 101.667 287.592 101.387C287.341 101.107 287.035 100.882 286.693 100.725C286.351 100.569 285.98 100.485 285.604 100.478L284.01 100.333L283.52 105.778L285.115 105.924ZM278.827 110.734C279.049 111.009 279.324 111.238 279.635 111.406C279.946 111.575 280.287 111.679 280.639 111.714L282.27 111.859L282.778 106.414L281.183 106.268C280.653 106.219 280.121 106.325 279.651 106.574C279.181 106.823 278.793 107.204 278.536 107.67C278.278 108.136 278.161 108.667 278.2 109.198C278.239 109.729 278.432 110.238 278.755 110.661L278.827 110.734Z" fill="#0000D5"/>
<path d="M212.632 243.276L235.573 232.839C241.371 230.189 245.412 238.938 239.614 241.624L216.637 252.08C210.892 254.675 206.851 245.963 212.632 243.276ZM216.383 251.444L239.324 241.007C240.323 240.545 241.099 239.704 241.479 238.669C241.86 237.634 241.815 236.49 241.353 235.489C240.892 234.488 240.052 233.711 239.019 233.33C237.986 232.949 236.844 232.994 235.845 233.456L212.904 243.893C207.921 246.217 211.472 253.695 216.383 251.444V251.444Z" fill="#0000D5"/>
<path d="M172.096 231.823C173.479 231.821 174.831 231.413 175.984 230.649C177.138 229.886 178.042 228.8 178.586 227.526C179.129 226.253 179.288 224.847 179.042 223.484C178.796 222.121 178.157 220.861 177.202 219.858C176.248 218.856 175.021 218.156 173.674 217.845C172.326 217.534 170.918 217.626 169.622 218.109C168.326 218.593 167.2 219.446 166.384 220.564C165.567 221.682 165.096 223.015 165.029 224.399C164.982 225.357 165.131 226.315 165.465 227.214C165.799 228.113 166.312 228.934 166.973 229.629C167.634 230.323 168.429 230.876 169.31 231.253C170.19 231.63 171.138 231.824 172.096 231.823V231.823ZM172.096 218.354C173.164 218.35 174.215 218.613 175.155 219.119C176.095 219.626 176.894 220.361 177.478 221.256C178.062 222.151 178.413 223.178 178.499 224.244C178.586 225.309 178.404 226.38 177.972 227.358C177.539 228.335 176.869 229.189 176.023 229.841C175.177 230.493 174.182 230.922 173.127 231.09C172.073 231.258 170.994 231.158 169.988 230.801C168.981 230.444 168.08 229.841 167.367 229.045C166.551 228.125 166.016 226.989 165.826 225.772C165.636 224.556 165.799 223.311 166.295 222.184C166.791 221.058 167.6 220.098 168.626 219.419C169.651 218.74 170.849 218.371 172.078 218.354H172.096Z" fill="#0000D5"/>
<path d="M153.903 248.086C155.286 248.085 156.638 247.677 157.791 246.913C158.945 246.149 159.849 245.064 160.393 243.79C160.936 242.516 161.095 241.111 160.849 239.748C160.603 238.385 159.963 237.124 159.009 236.122C158.055 235.12 156.828 234.42 155.481 234.109C154.133 233.798 152.724 233.89 151.429 234.373C150.133 234.856 149.007 235.71 148.191 236.828C147.374 237.946 146.903 239.279 146.836 240.662C146.789 241.621 146.937 242.578 147.272 243.477C147.606 244.376 148.119 245.198 148.78 245.892C149.441 246.587 150.236 247.139 151.117 247.516C151.997 247.894 152.945 248.087 153.903 248.086V248.086ZM153.903 234.618C155.177 234.619 156.422 235.003 157.477 235.72C158.531 236.437 159.347 237.453 159.82 238.639C160.292 239.824 160.399 241.124 160.127 242.372C159.855 243.619 159.216 244.755 158.293 245.636C157.37 246.516 156.205 247.098 154.948 247.309C153.691 247.52 152.4 247.348 151.241 246.817C150.082 246.286 149.109 245.419 148.446 244.328C147.784 243.238 147.463 241.974 147.524 240.699C147.612 239.064 148.319 237.525 149.501 236.395C150.683 235.265 152.251 234.629 153.885 234.618H153.903Z" fill="#0000D5"/>
<path d="M177.641 249.266C177.708 249.267 177.774 249.247 177.831 249.211C177.887 249.174 177.932 249.121 177.959 249.06C177.986 248.998 177.994 248.929 177.983 248.863C177.971 248.796 177.941 248.735 177.895 248.685L148.593 216.321C148.531 216.254 148.444 216.214 148.352 216.211C148.261 216.207 148.171 216.24 148.104 216.303C148.037 216.366 147.997 216.452 147.994 216.544C147.99 216.636 148.023 216.726 148.086 216.793C179.562 251.462 177.405 249.266 177.641 249.266Z" fill="#0000D5"/>
<path d="M74.7151 79.422C74.7585 79.4272 74.8025 79.423 74.8442 79.4098C74.8858 79.3966 74.9242 79.3747 74.9568 79.3455C74.9893 79.3164 75.0153 79.2806 75.033 79.2406C75.0507 79.2005 75.0597 79.1572 75.0594 79.1134L75.8748 62.6137C75.8748 62.5222 75.8386 62.4345 75.774 62.3698C75.7094 62.3051 75.6219 62.2688 75.5305 62.2688C75.4392 62.2688 75.3517 62.3051 75.2871 62.3698C75.2225 62.4345 75.1863 62.5222 75.1863 62.6137L74.3889 79.1134C74.3936 79.1969 74.43 79.2754 74.4907 79.3328C74.5513 79.3902 74.6317 79.4221 74.7151 79.422V79.422Z" fill="#0063D2"/>
<path d="M83.3588 71.5808C83.4344 71.563 83.5018 71.5202 83.5501 71.4593C83.5983 71.3983 83.6246 71.3228 83.6246 71.245C83.6246 71.1672 83.5983 71.0916 83.5501 71.0307C83.5018 70.9697 83.4344 70.9269 83.3588 70.9092L66.887 70.0923C66.7957 70.0923 66.7082 70.1287 66.6436 70.1934C66.579 70.258 66.5427 70.3458 66.5427 70.4372C66.5427 70.5287 66.579 70.6164 66.6436 70.6811C66.7082 70.7458 66.7957 70.7821 66.887 70.7821L83.3588 71.5808Z" fill="#0063D2"/>
<path d="M0.111883 80.0573C0.0616232 80.0113 0.0261355 79.9513 0.00990922 79.885C-0.00631709 79.8188 -0.00255978 79.7492 0.0207204 79.685C0.0440005 79.6209 0.08576 79.5651 0.140694 79.5248C0.195628 79.4844 0.261265 79.4613 0.329322 79.4583C8.73734 79.0953 29.7574 84.3774 36.1721 87.9169C36.607 88.1711 40.0681 93.671 43.4204 97.4284C44.3265 96.7991 45.2506 96.1941 46.1929 95.6132C46.2483 95.5733 46.3149 95.5519 46.3832 95.5519C46.4515 95.5519 46.518 95.5733 46.5734 95.6132C46.8271 95.7947 69.2244 112.44 79.1908 128.068C84.1816 122.665 88.3407 116.548 91.531 109.917C100.99 90.2767 112.624 87.5902 119.672 85.9747C120.651 85.7569 121.485 85.5572 122.227 85.3394C123.394 84.4487 124.513 83.4974 125.58 82.4896C124.331 82.5236 123.083 82.4017 121.865 82.1266C119.708 81.7731 117.678 80.8671 115.973 79.4963C114.268 78.1256 112.946 76.3367 112.134 74.3033C111.344 72.5119 110.966 70.5653 111.028 68.6077C111.091 66.6501 111.593 64.7318 112.497 62.9949C116.737 55.0808 128.715 51.8135 131.179 51.2145C130.273 49.3993 126.993 41.3582 134.513 36.8385C140.566 33.2082 145.585 32.1009 149.409 33.5893C150.591 34.0635 151.661 34.7823 152.548 35.6987C153.435 36.6152 154.119 37.7086 154.555 38.9078C154.99 39.9787 157.056 44.9704 157.527 46.1684C173.237 37.7824 198.969 19.0499 199.204 18.941C199.26 18.9011 199.326 18.8797 199.395 18.8797C199.463 18.8797 199.529 18.9011 199.585 18.941C200.056 19.2133 200.527 19.4856 200.98 19.7942C201.923 18.0713 202.444 16.1491 202.502 14.1853C202.52 12.2071 203.098 10.2745 204.169 8.6128C205.673 6.79765 206.761 5.79931 208.609 7.21513C209.044 6.68874 210.421 5.14585 210.421 5.14585C210.75 4.72935 211.207 4.43225 211.72 4.29996C212.234 4.16766 212.777 4.20745 213.265 4.41323C213.754 4.61901 214.163 4.97947 214.428 5.43954C214.693 5.89961 214.8 6.43398 214.734 6.96101C215.135 6.47097 215.71 6.15567 216.338 6.0813C216.967 6.00692 217.599 6.17925 218.103 6.56211C218.607 6.94497 218.944 7.50858 219.042 8.13463C219.14 8.76068 218.992 9.40048 218.63 9.91971C219.109 9.83394 219.603 9.89447 220.047 10.0934C220.492 10.2924 220.867 10.6207 221.122 11.0355C221.378 11.4504 221.504 11.9328 221.483 12.42C221.462 12.9072 221.295 13.3768 221.004 13.7678C220.877 13.9131 220.75 14.0764 220.587 14.2398C221.022 14.2248 221.452 14.3306 221.831 14.5457C222.209 14.7607 222.52 15.0766 222.731 15.4582C222.941 15.8398 223.041 16.2722 223.021 16.7075C223.001 17.1429 222.861 17.5641 222.616 17.9245C222.345 18.2331 222.055 18.5417 221.728 18.8503C221.728 19.8668 221.185 25.0037 209.859 32.0102C210.113 32.7181 210.33 33.4441 210.53 34.1702C210.546 34.2393 210.543 34.3115 210.521 34.3789C210.498 34.4462 210.457 34.506 210.403 34.5514C201.578 40.9589 179.815 56.4966 170.229 61.7787C176.103 64.7962 181.689 68.3444 186.918 72.3792C188.278 71.4535 198.443 64.5014 214.462 53.7557C214.517 53.7239 214.58 53.7071 214.643 53.7071C214.707 53.7071 214.769 53.7239 214.824 53.7557C215.386 54.0825 215.948 54.4273 216.473 54.7722C221.871 51.0731 227.039 47.0481 231.949 42.7196C235.265 39.5612 236.334 39.0893 236.895 39.5431C237.457 39.9968 236.787 42.3021 236.406 43.3367C235.79 44.9704 231.949 50.2706 232.782 51.6138C233.018 52.0132 233.652 51.8861 233.833 51.9406C240.202 49.9284 246.781 48.6555 253.44 48.1469C259.184 48.0561 259.329 49.1271 259.383 49.472C259.391 49.6367 259.361 49.8011 259.295 49.9522C259.229 50.1034 259.129 50.2372 259.003 50.3432C257.589 51.7591 253.965 52.3762 249.526 53.9735C251.591 53.9735 254.038 54.1551 254.183 54.1551C257.028 54.3184 258.568 54.863 258.658 55.7524C258.661 55.9604 258.59 56.1625 258.457 56.3223C258.324 56.4821 258.138 56.589 257.934 56.6237C255.524 57.2227 251.718 57.8217 248.964 58.4388C250.25 58.7292 253.603 59.4735 253.512 60.8167C253.482 61.0238 253.381 61.2138 253.225 61.3532C253.069 61.4927 252.869 61.5726 252.66 61.579C245.684 62.1417 242.259 60.9437 231.822 64.3018C230.771 64.9915 228.198 67.1153 226.277 68.7852C226.476 69.5476 226.639 70.3463 226.784 71.1631C226.798 71.2267 226.793 71.2928 226.77 71.3538C226.748 71.4149 226.709 71.4683 226.657 71.5079C226.512 71.6169 212.523 81.7454 202.847 88.6975C194.982 94.3426 189.908 97.6099 181.319 93.5258C174.951 90.1559 168.775 86.4352 162.818 82.3807C157.074 87.8262 147.905 95.0868 140.584 98.2996C144.997 115.326 147.842 132.721 149.082 150.268C149.339 153.528 148.614 156.791 146.999 159.634C116.048 214.234 117.444 211.983 117.136 212.055C115.803 211.762 114.49 211.387 113.203 210.93L109.253 217.791C105.955 235.217 102.748 242.623 97.384 251.172C96.6048 252.406 96.5142 252.08 96.1155 250.954C93.1075 242.623 91.5672 221.912 92.7994 214.996C92.9081 214.415 97.1665 209.278 100.048 204.105C99.0511 203.452 98.0544 202.744 97.0397 202.018C96.9777 201.974 96.9317 201.912 96.9088 201.839C96.8858 201.767 96.8873 201.69 96.9128 201.618C103.563 182.904 109.887 162.774 121.485 148.979C119.093 144.314 115.414 137.543 112.732 131.789C108.003 139.486 100.301 147.363 89.8457 155.187C86.5508 157.621 82.4676 158.735 78.3954 158.312C74.3232 157.889 70.5552 155.959 67.8291 152.9L30.3191 110.497C30.2763 110.436 30.2532 110.363 30.2532 110.289C30.2532 110.214 30.2763 110.141 30.3191 110.08C31.0077 109.172 31.7326 108.265 32.4755 107.412L28.1809 102.62C12.4883 93.6529 6.5991 88.1892 0.111883 80.0573ZM153.993 39.3252C153.326 39.2852 152.657 39.3279 152 39.4523C152.326 40.5777 152.652 42.4292 152 42.8285C151.782 42.9555 151.438 42.9918 150.949 42.4655C149.3 40.6503 147.886 43.373 151.13 45.642C151.183 45.6764 151.225 45.7257 151.251 45.7837C151.277 45.8417 151.285 45.906 151.275 45.9687C149.889 54.5114 146.808 62.6893 142.215 70.0195C145.839 67.3512 149.626 59.9272 155.352 58.5659C154.063 56.2914 152.943 53.9254 152 51.4868C151.977 51.4269 151.972 51.362 151.984 51.2992C151.996 51.2363 152.025 51.1781 152.068 51.131C152.112 51.0839 152.167 51.0498 152.229 51.0325C152.29 51.0152 152.355 51.0154 152.417 51.033C153.739 51.4323 157.617 52.5214 157.998 51.1782C158.197 48.9637 156.331 45.1519 153.993 39.3252ZM210.91 5.54519L209.098 7.59631C209.732 8.17716 210.494 8.99398 211.472 10.0831C212.254 9.28805 212.986 8.44543 213.665 7.56001C213.77 7.2014 213.762 6.81901 213.642 6.46507C213.522 6.11112 213.296 5.80289 212.995 5.58246C212.693 5.36203 212.332 5.24016 211.958 5.23349C211.585 5.22682 211.219 5.33567 210.91 5.54519V5.54519ZM215.151 7.36034C214.462 8.10456 212.831 9.75635 212.052 10.5913L212.867 11.4989C214.063 12.824 212.867 14.8569 210.113 13.9131C210.119 14.2294 210.221 14.5364 210.407 14.7923C210.593 15.0482 210.853 15.2408 211.152 15.3438C211.45 15.4468 211.773 15.4554 212.077 15.3683C212.381 15.2812 212.65 15.1027 212.849 14.8569C214.77 12.8603 217.09 10.6276 217.977 9.41147C218.096 9.04328 218.093 8.64691 217.971 8.28013C217.848 7.91336 217.612 7.59536 217.297 7.37249C216.981 7.14962 216.603 7.03352 216.217 7.04114C215.831 7.04875 215.457 7.17966 215.151 7.4148V7.36034ZM217.724 10.9907C216.22 12.5517 214.516 14.2761 213.212 15.7827C211.526 17.5978 213.755 19.7942 215.622 17.9609C217.488 16.1275 219.536 14.2942 220.46 13.2414C220.596 12.8786 220.612 12.4818 220.506 12.109C220.401 11.7362 220.179 11.4071 219.873 11.1698C219.567 10.9324 219.194 10.7994 218.807 10.79C218.42 10.7806 218.041 10.8955 217.724 11.1177V10.9907ZM222.091 17.3982C222.237 17.0578 222.266 16.6783 222.174 16.3195C222.081 15.9607 221.872 15.6429 221.579 15.4163C221.287 15.1896 220.927 15.0669 220.557 15.0675C220.187 15.0681 219.828 15.192 219.536 15.4196C218.122 16.7992 217.18 17.7249 215.803 19.1952C214.154 21.0103 216.238 23.0433 218.086 21.337C219.934 19.6308 221.203 18.578 222.091 17.5252V17.3982ZM220.967 19.4856C220.732 19.7034 219.155 21.1011 218.503 21.7182C216.238 23.8057 213.556 21.5004 214.788 19.2496C214.379 19.3494 213.949 19.3298 213.551 19.1932C213.152 19.0566 212.8 18.8088 212.538 18.4788C212.275 18.1488 212.112 17.7504 212.067 17.3306C212.023 16.9109 212.099 16.4871 212.288 16.1094C211.868 16.2717 211.403 16.2717 210.983 16.1094C211.636 17.8769 211.578 19.8297 210.82 21.5549C210.781 21.6391 210.711 21.7046 210.624 21.7369C210.538 21.7693 210.442 21.7658 210.358 21.7273C210.274 21.6888 210.208 21.6184 210.176 21.5316C210.144 21.4448 210.147 21.3487 210.186 21.2644C211.508 18.2513 210.403 14.8206 207.322 12.352C206.978 11.8801 207.486 11.5897 207.757 11.8075C208.428 12.3896 209.179 12.8725 209.986 13.2414C212.288 14.2579 213.194 12.951 212.414 12.0797C207.395 6.63428 207.268 6.12604 204.767 9.06659C202.702 11.4989 203.861 16.9262 201.614 20.2116C205.391 23.0493 208.211 26.9763 209.696 31.4656C218.738 25.7116 220.587 21.3552 220.967 19.6126V19.4856ZM204.405 37.9276L209.841 34.0431C208.029 27.2363 204.405 22.3354 199.494 19.5219L194.167 23.37C198.917 27.1784 202.471 32.2764 204.405 38.0546V37.9276ZM203.825 38.345C201.955 32.5338 198.419 27.4018 193.659 23.5878C185.016 29.6868 168.87 40.8137 157.762 46.7311C159.429 51.3779 159.049 53.5742 154.138 54.5907C154.736 55.8613 155.37 57.0593 156.077 58.221C159.574 57.6402 164.05 58.6385 169.541 61.216C177.351 57.2045 194.565 45.1519 203.825 38.4721V38.345ZM252.552 60.7985C252.679 60.7985 252.769 60.7985 252.769 60.6896C252.769 60.5807 252.153 59.7639 249.145 59.1104L247.333 58.7111C243.185 59.7618 239.096 61.0342 235.083 62.5229C243.51 60.3629 245.612 61.3612 252.552 60.7985ZM257.988 55.7161C257.988 55.5164 257.227 54.9174 254.165 54.7541C253.983 54.7541 249.797 54.4999 247.822 54.5544C243.019 56.3813 238.517 58.9206 234.467 62.0873C245.63 57.2953 257.988 56.3695 257.916 55.7161H257.988ZM253.766 51.7954C255.356 51.4311 256.878 50.8185 258.278 49.9802C258.93 49.5083 258.803 49.3449 258.151 49.1271C256.89 48.8125 255.588 48.6961 254.291 48.7822C251.972 48.5281 239.904 50.1799 229.756 54.0098C229.321 54.1551 229.085 53.5197 229.502 53.3745C230.499 52.9934 231.495 52.6485 232.492 52.3036C230.354 50.9059 234.993 45.043 235.718 43.0645C235.863 42.6651 236.732 40.4143 236.497 40.0694C236.225 40.0694 235.083 40.614 232.383 43.1915C227.512 47.4761 222.393 51.4703 217.053 55.1534C221.518 58.2219 224.734 62.7958 226.114 68.041C235.12 60.3447 241.281 55.2805 253.693 51.7954H253.766ZM226.023 70.9816C225.533 67.517 224.249 64.2131 222.272 61.3285C220.294 58.444 217.677 56.0571 214.625 54.3547L209.08 57.985C214.692 62.2588 218.557 68.4342 219.953 75.3561L226.023 70.9816ZM153.993 88.8971C158.705 80.6019 159.176 79.8214 159.429 79.4402C159.465 79.4011 159.508 79.3699 159.557 79.3486C159.605 79.3272 159.657 79.3162 159.71 79.3162C159.763 79.3162 159.815 79.3272 159.864 79.3486C159.912 79.3699 159.955 79.4011 159.991 79.4402C166.838 84.3903 174.019 88.8602 181.482 92.8179C189.22 96.4482 193.551 94.3244 202.303 88.044C207.63 84.2322 214.245 79.4402 219.155 75.9006C217.857 68.9577 214.019 62.7501 208.392 58.4933C196.595 66.4255 189.039 71.5806 187.372 72.7059C189.075 73.9766 190.814 75.3198 192.627 76.7356C192.662 76.7642 192.692 76.7996 192.714 76.8397C192.736 76.8798 192.75 76.9239 192.755 76.9694C192.76 77.0149 192.756 77.0609 192.743 77.1049C192.731 77.1489 192.709 77.1899 192.681 77.2257C192.652 77.2614 192.617 77.2912 192.577 77.3133C192.537 77.3354 192.493 77.3494 192.448 77.3544C192.402 77.3595 192.356 77.3555 192.312 77.3428C192.268 77.33 192.227 77.3087 192.192 77.2801C172.422 61.579 159.556 56.0428 152.833 60.3266C148.031 63.3942 144.788 69.7654 141.363 71.2175C140.439 72.706 139.551 74.0673 138.663 75.2835C137.297 77.2776 135.509 78.9458 133.426 80.1693C131.343 81.3928 129.017 82.1417 126.613 82.3626C125.435 83.5382 124.182 84.6356 122.862 85.648C127.011 90.676 134.423 95.0868 140.113 97.5736C145.085 95.2764 149.748 92.3613 153.993 88.8971ZM99.0148 207.064C103.139 208.845 107.063 211.06 110.721 213.671L112.533 210.603C108.354 209.001 104.367 206.938 100.646 204.45C100.066 205.394 99.5585 206.247 99.0148 207.064ZM31.0802 110.28L68.3908 152.446C71.0051 155.379 74.6176 157.229 78.5219 157.635C82.4261 158.042 86.3413 156.974 89.5015 154.642C100.066 146.746 107.785 138.796 112.442 131.045C101.95 108.101 107.332 101.821 109.96 98.7353L110.449 98.1544C110.508 98.0923 110.587 98.0542 110.672 98.0473C110.757 98.0405 110.841 98.0654 110.909 98.1174C110.977 98.1693 111.023 98.2446 111.038 98.3285C111.054 98.4125 111.037 98.4992 110.993 98.5719L110.467 99.1891C108.039 102.039 102.349 108.682 114.309 133.405C117.806 140.665 122.862 149.741 124.638 153.843C124.655 153.885 124.665 153.93 124.665 153.975C124.666 154.021 124.658 154.066 124.641 154.108C124.624 154.15 124.599 154.188 124.567 154.221C124.536 154.253 124.498 154.279 124.456 154.297C124.415 154.315 124.37 154.325 124.325 154.325C124.279 154.326 124.234 154.317 124.192 154.3C124.15 154.284 124.112 154.259 124.079 154.227C124.047 154.195 124.021 154.157 124.003 154.116C123.478 152.881 122.753 151.375 121.883 149.669C110.449 163.337 104.27 183.086 97.692 201.6C100.575 203.71 103.603 205.615 106.752 207.3L122.572 177.041C122.622 176.975 122.693 176.929 122.774 176.912C122.855 176.894 122.939 176.906 123.011 176.946C123.084 176.986 123.14 177.05 123.169 177.127C123.198 177.205 123.198 177.29 123.17 177.368L107.369 207.626C110.385 209.18 113.564 210.398 116.846 211.257L146.328 159.216C147.881 156.497 148.575 153.371 148.321 150.249C147.088 132.695 144.237 115.292 139.805 98.2633C134.024 95.7221 126.432 91.2205 122.227 86.0473C115.124 88.0622 102.512 88.7156 92.0384 110.116C88.8076 116.892 84.574 123.14 79.4807 128.649C80.8567 130.832 81.9813 133.164 82.833 135.601C82.8606 135.645 82.8779 135.695 82.8836 135.746C82.8893 135.798 82.8832 135.85 82.8659 135.899C82.8486 135.948 82.8205 135.993 82.7836 136.029C82.7467 136.066 82.7021 136.094 82.653 136.111C82.6039 136.127 82.5517 136.133 82.5002 136.127C82.4487 136.121 82.3992 136.103 82.3556 136.075C82.3119 136.047 82.2751 136.009 82.2479 135.965C82.2208 135.92 82.204 135.871 82.1988 135.819C76.7626 119.482 48.8748 98.2089 46.3016 96.2848C42.7812 98.5088 39.5018 101.094 36.5164 103.999L55.5432 123.621C55.8513 123.93 55.362 124.42 55.0539 124.093L36.0272 104.471C34.2605 106.304 32.6083 108.243 31.0802 110.28V110.28ZM32.8923 106.867C35.839 103.479 39.158 100.434 42.7862 97.7914L41.5359 96.3393C38.5294 99.7149 35.1699 102.758 31.5151 105.415L32.8923 106.867Z" fill="#0000D5"/>
<path d="M209.117 7.56006C208.927 7.39048 208.728 7.23286 208.519 7.08812C208.779 5.87138 209.295 4.72412 210.033 3.72262C210.77 2.72112 211.712 1.88833 212.795 1.27962C219.681 -2.58666 227.854 2.91326 231.641 9.70194C231.686 9.78137 231.699 9.87572 231.675 9.96423C231.651 10.0527 231.593 10.1281 231.514 10.1739C231.435 10.2196 231.34 10.2319 231.252 10.2081C231.164 10.1843 231.088 10.1263 231.043 10.0468C227.509 3.67562 219.717 -1.8243 213.121 1.87862C212.077 2.47106 211.176 3.28769 210.484 4.26995C209.791 5.25222 209.325 6.37578 209.117 7.56006V7.56006Z" fill="#0000D5"/>
<path d="M218.775 21.555L223.051 25.6573C223.096 25.7053 223.127 25.7654 223.139 25.8303C223.151 25.8952 223.144 25.9622 223.119 26.0234C223.094 26.0845 223.053 26.1373 222.999 26.1753C222.945 26.2134 222.881 26.2352 222.815 26.2381C222.616 26.2381 222.96 26.5104 218.267 22.0088C218.43 21.918 218.539 21.8091 218.775 21.555Z" fill="#0063D2"/>
</svg>
